<?xml version="1.0" encoding="utf-8" standalone="no"?>
<!DOCTYPE svg PUBLIC "-//W3C//DTD SVG 1.1//EN"
  "http://www.w3.org/Graphics/SVG/1.1/DTD/svg11.dtd">
<svg xmlns:xlink="http://www.w3.org/1999/xlink" width="712.31pt" height="640.59625pt" viewBox="0 0 712.31 640.59625" xmlns="http://www.w3.org/2000/svg" version="1.1">
 <metadata>
  <rdf:RDF xmlns:dc="http://purl.org/dc/elements/1.1/" xmlns:cc="http://creativecommons.org/ns#" xmlns:rdf="http://www.w3.org/1999/02/22-rdf-syntax-ns#">
   <cc:Work>
    <dc:type rdf:resource="http://purl.org/dc/dcmitype/StillImage"/>
    <dc:date>2026-03-01T10:58:15.901550</dc:date>
    <dc:format>image/svg+xml</dc:format>
    <dc:creator>
     <cc:Agent>
      <dc:title>Matplotlib v3.10.8, https://matplotlib.org/</dc:title>
     </cc:Agent>
    </dc:creator>
   </cc:Work>
  </rdf:RDF>
 </metadata>
 <defs>
  <style type="text/css">*{stroke-linejoin: round; stroke-linecap: butt}</style>
 </defs>
 <g id="figure_1">
  <g id="patch_1">
   <path d="M 0 640.59625 
L 712.31 640.59625 
L 712.31 0 
L 0 0 
z
" style="fill: #274c43"/>
  </g>
  <g id="axes_1">
   <g id="patch_2">
    <path d="M 50.2 198.521348 
L 705.11 198.521348 
L 705.11 24.3025 
L 50.2 24.3025 
z
" style="fill: #274c43"/>
   </g>
   <g id="matplotlib.axis_1">
    <g id="xtick_1">
     <g id="line2d_1">
      <path d="M 83.213174 198.521348 
L 83.213174 24.3025 
" clip-path="url(#pae1adaf364)" style="fill: none; stroke: #e0f0e9; stroke-opacity: 0.2; stroke-width: 0.8; stroke-linecap: square"/>
     </g>
     <g id="line2d_2">
      <defs>
       <path id="m8c734036a8" d="M 0 0 
L 0 3.5 
" style="stroke: #e0f0e9; stroke-width: 0.8"/>
      </defs>
      <g>
       <use xlink:href="#m8c734036a8" x="83.213174" y="198.521348" style="fill: #e0f0e9; stroke: #e0f0e9; stroke-width: 0.8"/>
      </g>
     </g>
    </g>
    <g id="xtick_2">
     <g id="line2d_3">
      <path d="M 178.927046 198.521348 
L 178.927046 24.3025 
" clip-path="url(#pae1adaf364)" style="fill: none; stroke: #e0f0e9; stroke-opacity: 0.2; stroke-width: 0.8; stroke-linecap: square"/>
     </g>
     <g id="line2d_4">
      <g>
       <use xlink:href="#m8c734036a8" x="178.927046" y="198.521348" style="fill: #e0f0e9; stroke: #e0f0e9; stroke-width: 0.8"/>
      </g>
     </g>
    </g>
    <g id="xtick_3">
     <g id="line2d_5">
      <path d="M 277.885456 198.521348 
L 277.885456 24.3025 
" clip-path="url(#pae1adaf364)" style="fill: none; stroke: #e0f0e9; stroke-opacity: 0.2; stroke-width: 0.8; stroke-linecap: square"/>
     </g>
     <g id="line2d_6">
      <g>
       <use xlink:href="#m8c734036a8" x="277.885456" y="198.521348" style="fill: #e0f0e9; stroke: #e0f0e9; stroke-width: 0.8"/>
      </g>
     </g>
    </g>
    <g id="xtick_4">
     <g id="line2d_7">
      <path d="M 376.843865 198.521348 
L 376.843865 24.3025 
" clip-path="url(#pae1adaf364)" style="fill: none; stroke: #e0f0e9; stroke-opacity: 0.2; stroke-width: 0.8; stroke-linecap: square"/>
     </g>
     <g id="line2d_8">
      <g>
       <use xlink:href="#m8c734036a8" x="376.843865" y="198.521348" style="fill: #e0f0e9; stroke: #e0f0e9; stroke-width: 0.8"/>
      </g>
     </g>
    </g>
    <g id="xtick_5">
     <g id="line2d_9">
      <path d="M 477.424544 198.521348 
L 477.424544 24.3025 
" clip-path="url(#pae1adaf364)" style="fill: none; stroke: #e0f0e9; stroke-opacity: 0.2; stroke-width: 0.8; stroke-linecap: square"/>
     </g>
     <g id="line2d_10">
      <g>
       <use xlink:href="#m8c734036a8" x="477.424544" y="198.521348" style="fill: #e0f0e9; stroke: #e0f0e9; stroke-width: 0.8"/>
      </g>
     </g>
    </g>
    <g id="xtick_6">
     <g id="line2d_11">
      <path d="M 576.382954 198.521348 
L 576.382954 24.3025 
" clip-path="url(#pae1adaf364)" style="fill: none; stroke: #e0f0e9; stroke-opacity: 0.2; stroke-width: 0.8; stroke-linecap: square"/>
     </g>
     <g id="line2d_12">
      <g>
       <use xlink:href="#m8c734036a8" x="576.382954" y="198.521348" style="fill: #e0f0e9; stroke: #e0f0e9; stroke-width: 0.8"/>
      </g>
     </g>
    </g>
    <g id="xtick_7">
     <g id="line2d_13">
      <path d="M 675.341364 198.521348 
L 675.341364 24.3025 
" clip-path="url(#pae1adaf364)" style="fill: none; stroke: #e0f0e9; stroke-opacity: 0.2; stroke-width: 0.8; stroke-linecap: square"/>
     </g>
     <g id="line2d_14">
      <g>
       <use xlink:href="#m8c734036a8" x="675.341364" y="198.521348" style="fill: #e0f0e9; stroke: #e0f0e9; stroke-width: 0.8"/>
      </g>
     </g>
    </g>
   </g>
   <g id="matplotlib.axis_2">
    <g id="ytick_1">
     <g id="line2d_15">
      <path d="M 50.2 190.602309 
L 705.11 190.602309 
" clip-path="url(#pae1adaf364)" style="fill: none; stroke: #e0f0e9; stroke-opacity: 0.2; stroke-width: 0.8; stroke-linecap: square"/>
     </g>
     <g id="line2d_16">
      <defs>
       <path id="mdeae4265e6" d="M 0 0 
L -3.5 0 
" style="stroke: #e0f0e9; stroke-width: 0.8"/>
      </defs>
      <g>
       <use xlink:href="#mdeae4265e6" x="50.2" y="190.602309" style="fill: #e0f0e9; stroke: #e0f0e9; stroke-width: 0.8"/>
      </g>
     </g>
     <g id="text_1">
      <!-- 0 -->
      <g style="fill: #e0f0e9" transform="translate(37.2 194.765747) scale(0.12 -0.12)">
       <defs>
        <path id="CMUSerif-Roman-30" d="M 250 2047 
Q 250 2988 488 3500 
Q 819 4263 1600 4263 
Q 1766 4263 1939 4217 
Q 2113 4172 2333 4000 
Q 2553 3828 2688 3547 
Q 2944 3003 2944 2047 
Q 2944 1113 2706 603 
Q 2359 -141 1594 -141 
Q 1306 -141 1014 6 
Q 722 153 538 506 
Q 250 1034 250 2047 
z
M 781 2125 
Q 781 1159 850 775 
Q 928 359 1142 179 
Q 1356 0 1594 0 
Q 1850 0 2064 192 
Q 2278 384 2344 800 
Q 2416 1209 2413 2125 
Q 2413 3016 2350 3372 
Q 2266 3788 2042 3955 
Q 1819 4122 1594 4122 
Q 1509 4122 1420 4097 
Q 1331 4072 1203 4000 
Q 1075 3928 976 3750 
Q 878 3572 831 3303 
Q 781 2956 781 2125 
z
" transform="scale(0.015625)"/>
       </defs>
       <use xlink:href="#CMUSerif-Roman-30"/>
      </g>
     </g>
    </g>
    <g id="ytick_2">
     <g id="line2d_17">
      <path d="M 50.2 158.926155 
L 705.11 158.926155 
" clip-path="url(#pae1adaf364)" style="fill: none; stroke: #e0f0e9; stroke-opacity: 0.2; stroke-width: 0.8; stroke-linecap: square"/>
     </g>
     <g id="line2d_18">
      <g>
       <use xlink:href="#mdeae4265e6" x="50.2" y="158.926155" style="fill: #e0f0e9; stroke: #e0f0e9; stroke-width: 0.8"/>
      </g>
     </g>
     <g id="text_2">
      <!-- 20 -->
      <g style="fill: #e0f0e9" transform="translate(31.2 163.089593) scale(0.12 -0.12)">
       <defs>
        <path id="CMUSerif-Roman-32" d="M 319 0 
Q 319 116 330 150 
Q 341 184 391 238 
L 1619 1606 
Q 2291 2363 2291 3022 
Q 2291 3450 2067 3756 
Q 1844 4063 1434 4063 
Q 1153 4063 915 3891 
Q 678 3719 569 3413 
Q 588 3419 653 3419 
Q 813 3419 902 3319 
Q 991 3219 991 3084 
Q 991 2913 880 2830 
Q 769 2747 659 2747 
Q 616 2747 558 2756 
Q 500 2766 409 2855 
Q 319 2944 319 3103 
Q 319 3550 658 3906 
Q 997 4263 1516 4263 
Q 2103 4263 2489 3914 
Q 2875 3566 2875 3022 
Q 2875 2831 2817 2657 
Q 2759 2484 2682 2350 
Q 2606 2216 2400 2000 
Q 2194 1784 2028 1631 
Q 1863 1478 1491 1153 
L 813 494 
L 1966 494 
Q 2528 494 2572 544 
Q 2634 634 2713 1113 
L 2875 1113 
L 2694 0 
L 319 0 
z
" transform="scale(0.015625)"/>
       </defs>
       <use xlink:href="#CMUSerif-Roman-32"/>
       <use xlink:href="#CMUSerif-Roman-30" transform="translate(50 0)"/>
      </g>
     </g>
    </g>
    <g id="ytick_3">
     <g id="line2d_19">
      <path d="M 50.2 127.250001 
L 705.11 127.250001 
" clip-path="url(#pae1adaf364)" style="fill: none; stroke: #e0f0e9; stroke-opacity: 0.2; stroke-width: 0.8; stroke-linecap: square"/>
     </g>
     <g id="line2d_20">
      <g>
       <use xlink:href="#mdeae4265e6" x="50.2" y="127.250001" style="fill: #e0f0e9; stroke: #e0f0e9; stroke-width: 0.8"/>
      </g>
     </g>
     <g id="text_3">
      <!-- 40 -->
      <g style="fill: #e0f0e9" transform="translate(31.2 131.413438) scale(0.12 -0.12)">
       <defs>
        <path id="CMUSerif-Roman-34" d="M 178 1056 
L 178 1253 
L 2144 4256 
Q 2194 4334 2272 4331 
Q 2344 4331 2359 4303 
Q 2375 4275 2375 4166 
L 2375 1253 
L 3016 1253 
L 3016 1056 
L 2375 1056 
L 2375 500 
Q 2375 316 2451 256 
Q 2528 197 2859 197 
L 2994 197 
L 2994 0 
Q 2731 19 2125 19 
Q 1522 19 1259 0 
L 1259 197 
L 1394 197 
Q 1725 197 1803 255 
Q 1881 313 1881 500 
L 1881 1056 
L 178 1056 
z
M 359 1253 
L 1919 1253 
L 1919 3641 
L 359 1253 
z
" transform="scale(0.015625)"/>
       </defs>
       <use xlink:href="#CMUSerif-Roman-34"/>
       <use xlink:href="#CMUSerif-Roman-30" transform="translate(50 0)"/>
      </g>
     </g>
    </g>
    <g id="ytick_4">
     <g id="line2d_21">
      <path d="M 50.2 95.573847 
L 705.11 95.573847 
" clip-path="url(#pae1adaf364)" style="fill: none; stroke: #e0f0e9; stroke-opacity: 0.2; stroke-width: 0.8; stroke-linecap: square"/>
     </g>
     <g id="line2d_22">
      <g>
       <use xlink:href="#mdeae4265e6" x="50.2" y="95.573847" style="fill: #e0f0e9; stroke: #e0f0e9; stroke-width: 0.8"/>
      </g>
     </g>
     <g id="text_4">
      <!-- 60 -->
      <g style="fill: #e0f0e9" transform="translate(31.2 99.737284) scale(0.12 -0.12)">
       <defs>
        <path id="CMUSerif-Roman-36" d="M 269 2022 
Q 269 3028 781 3645 
Q 1294 4263 1953 4263 
Q 2338 4263 2552 4067 
Q 2766 3872 2766 3572 
Q 2766 3406 2669 3334 
Q 2572 3263 2472 3263 
Q 2356 3263 2265 3341 
Q 2175 3419 2175 3559 
Q 2175 3847 2528 3847 
Q 2363 4103 1966 4103 
Q 1844 4103 1719 4067 
Q 1594 4031 1431 3912 
Q 1269 3794 1144 3606 
Q 1019 3419 931 3066 
Q 844 2713 844 2253 
L 844 2100 
Q 1106 2734 1643 2732 
Q 2181 2731 2553 2322 
Q 2925 1913 2925 1306 
Q 2925 684 2537 271 
Q 2150 -141 1606 -141 
Q 1363 -141 1142 -39 
Q 922 63 717 294 
Q 513 525 391 969 
Q 269 1413 269 2022 
z
M 856 1447 
Q 856 819 972 519 
Q 991 469 1033 400 
Q 1075 331 1148 242 
Q 1222 153 1344 95 
Q 1466 38 1606 38 
Q 2034 38 2241 453 
Q 2350 684 2350 1313 
Q 2350 1953 2234 2188 
Q 2038 2584 1638 2584 
Q 1369 2584 1183 2400 
Q 997 2216 926 1969 
Q 856 1722 856 1447 
z
" transform="scale(0.015625)"/>
       </defs>
       <use xlink:href="#CMUSerif-Roman-36"/>
       <use xlink:href="#CMUSerif-Roman-30" transform="translate(50 0)"/>
      </g>
     </g>
    </g>
    <g id="ytick_5">
     <g id="line2d_23">
      <path d="M 50.2 63.897693 
L 705.11 63.897693 
" clip-path="url(#pae1adaf364)" style="fill: none; stroke: #e0f0e9; stroke-opacity: 0.2; stroke-width: 0.8; stroke-linecap: square"/>
     </g>
     <g id="line2d_24">
      <g>
       <use xlink:href="#mdeae4265e6" x="50.2" y="63.897693" style="fill: #e0f0e9; stroke: #e0f0e9; stroke-width: 0.8"/>
      </g>
     </g>
     <g id="text_5">
      <!-- 80 -->
      <g style="fill: #e0f0e9" transform="translate(31.2 68.06113) scale(0.12 -0.12)">
       <defs>
        <path id="CMUSerif-Roman-38" d="M 269 966 
Q 269 1681 1191 2144 
Q 794 2413 722 2491 
Q 441 2803 441 3194 
Q 441 3641 780 3952 
Q 1119 4263 1600 4263 
Q 2059 4263 2406 3997 
Q 2753 3731 2753 3309 
Q 2753 2716 1978 2316 
Q 2491 1997 2613 1863 
Q 2925 1516 2925 1075 
Q 2925 563 2531 211 
Q 2138 -141 1594 -141 
Q 1063 -141 666 168 
Q 269 478 269 966 
z
M 588 966 
Q 588 569 886 303 
Q 1184 38 1600 38 
Q 2003 38 2304 269 
Q 2606 500 2606 844 
Q 2606 978 2561 1093 
Q 2516 1209 2427 1301 
Q 2338 1394 2283 1436 
Q 2228 1478 2125 1550 
L 1338 2047 
Q 588 1631 588 966 
z
M 722 3444 
Q 722 3138 1044 2925 
L 1838 2413 
Q 2472 2784 2472 3309 
Q 2472 3650 2212 3876 
Q 1953 4103 1594 4103 
Q 1241 4103 981 3917 
Q 722 3731 722 3444 
z
" transform="scale(0.015625)"/>
       </defs>
       <use xlink:href="#CMUSerif-Roman-38"/>
       <use xlink:href="#CMUSerif-Roman-30" transform="translate(50 0)"/>
      </g>
     </g>
    </g>
    <g id="ytick_6">
     <g id="line2d_25">
      <path d="M 50.2 32.221539 
L 705.11 32.221539 
" clip-path="url(#pae1adaf364)" style="fill: none; stroke: #e0f0e9; stroke-opacity: 0.2; stroke-width: 0.8; stroke-linecap: square"/>
     </g>
     <g id="line2d_26">
      <g>
       <use xlink:href="#mdeae4265e6" x="50.2" y="32.221539" style="fill: #e0f0e9; stroke: #e0f0e9; stroke-width: 0.8"/>
      </g>
     </g>
     <g id="text_6">
      <!-- 100 -->
      <g style="fill: #e0f0e9" transform="translate(25.2 36.384976) scale(0.12 -0.12)">
       <defs>
        <path id="CMUSerif-Roman-31" d="M 569 3653 
L 569 3853 
Q 1338 3853 1734 4263 
Q 1844 4263 1862 4238 
Q 1881 4213 1881 4097 
L 1881 506 
Q 1881 316 1975 256 
Q 2069 197 2478 197 
L 2681 197 
L 2681 0 
Q 2456 19 1643 19 
Q 831 19 609 0 
L 609 197 
L 813 197 
Q 1216 197 1312 255 
Q 1409 313 1409 506 
L 1409 3822 
Q 1075 3653 569 3653 
z
" transform="scale(0.015625)"/>
       </defs>
       <use xlink:href="#CMUSerif-Roman-31"/>
       <use xlink:href="#CMUSerif-Roman-30" transform="translate(50 0)"/>
       <use xlink:href="#CMUSerif-Roman-30" transform="translate(100 0)"/>
      </g>
     </g>
    </g>
    <g id="text_7">
     <!-- Price (US¢) -->
     <g style="fill: #e0f0e9" transform="translate(17.7 147.444424) rotate(-90) scale(0.14 -0.14)">
      <defs>
       <path id="CMUSerif-Roman-50" d="M 225 0 
L 225 197 
L 378 197 
Q 725 197 804 255 
Q 884 313 884 500 
L 884 3872 
Q 884 4056 803 4114 
Q 722 4172 378 4172 
L 225 4172 
L 225 4372 
L 2484 4372 
Q 3131 4372 3562 4015 
Q 3994 3659 3994 3181 
Q 3994 2706 3555 2364 
Q 3116 2022 2534 2022 
L 1453 2022 
L 1453 500 
Q 1453 316 1533 256 
Q 1613 197 1959 197 
L 2113 197 
L 2113 0 
Q 1888 19 1166 19 
Q 450 19 225 0 
z
M 1434 2188 
L 2316 2188 
Q 2603 2188 2812 2269 
Q 3022 2350 3117 2448 
Q 3213 2547 3267 2708 
Q 3322 2869 3328 2958 
Q 3334 3047 3334 3181 
Q 3334 3322 3328 3411 
Q 3322 3500 3267 3661 
Q 3213 3822 3117 3920 
Q 3022 4019 2814 4095 
Q 2606 4172 2316 4172 
L 1747 4172 
Q 1528 4172 1481 4128 
Q 1434 4084 1434 3916 
L 1434 2188 
z
" transform="scale(0.015625)"/>
       <path id="CMUSerif-Roman-72" d="M 178 0 
L 178 197 
Q 519 197 598 239 
Q 678 281 678 488 
L 678 2203 
Q 678 2441 595 2500 
Q 513 2559 178 2559 
L 178 2759 
L 1069 2828 
L 1069 2125 
Q 1159 2400 1351 2614 
Q 1544 2828 1856 2828 
Q 2063 2828 2195 2712 
Q 2328 2597 2328 2438 
Q 2328 2297 2242 2226 
Q 2156 2156 2053 2156 
Q 1938 2156 1858 2229 
Q 1778 2303 1778 2431 
Q 1778 2509 1814 2570 
Q 1850 2631 1878 2653 
Q 1906 2675 1925 2681 
Q 1913 2688 1856 2688 
Q 1503 2688 1301 2336 
Q 1100 1984 1100 1484 
L 1100 500 
Q 1100 316 1176 256 
Q 1253 197 1588 197 
L 1722 197 
L 1722 0 
Q 1466 19 909 19 
Q 831 19 709 16 
Q 588 13 428 6 
Q 269 0 178 0 
z
" transform="scale(0.015625)"/>
       <path id="CMUSerif-Roman-69" d="M 213 0 
L 213 197 
Q 553 197 631 239 
Q 709 281 709 488 
L 709 2209 
Q 709 2447 629 2503 
Q 550 2559 238 2559 
L 238 2759 
L 1131 2828 
L 1131 481 
Q 1131 291 1200 244 
Q 1269 197 1581 197 
L 1581 0 
Q 928 19 916 19 
Q 828 19 213 0 
z
M 481 3944 
Q 481 4072 579 4176 
Q 678 4281 818 4281 
Q 959 4281 1059 4186 
Q 1159 4091 1159 3942 
Q 1159 3794 1059 3698 
Q 959 3603 819 3603 
Q 672 3603 576 3706 
Q 481 3809 481 3944 
z
" transform="scale(0.015625)"/>
       <path id="CMUSerif-Roman-63" d="M 625 351 
Q 219 775 219 1383 
Q 219 1991 619 2430 
Q 1019 2869 1606 2869 
Q 1997 2869 2290 2683 
Q 2584 2497 2584 2181 
Q 2584 2041 2501 1961 
Q 2419 1881 2291 1881 
Q 2156 1881 2076 1964 
Q 1997 2047 1997 2175 
Q 1997 2231 2015 2287 
Q 2034 2344 2104 2403 
Q 2175 2463 2297 2472 
Q 2069 2706 1625 2706 
Q 1619 2706 1613 2706 
Q 1288 2706 1019 2400 
Q 750 2094 750 1394 
Q 750 1028 839 761 
Q 928 494 1075 356 
Q 1222 219 1365 155 
Q 1509 91 1650 91 
Q 2278 91 2491 763 
Q 2509 825 2572 825 
Q 2656 825 2656 763 
Q 2656 731 2631 650 
Q 2606 569 2528 441 
Q 2450 313 2339 202 
Q 2228 91 2033 9 
Q 1838 -72 1594 -72 
Q 1031 -72 625 351 
z
" transform="scale(0.015625)"/>
       <path id="CMUSerif-Roman-65" d="M 178 1409 
Q 178 2013 565 2441 
Q 953 2869 1509 2869 
Q 2072 2869 2364 2503 
Q 2656 2138 2656 1613 
Q 2656 1516 2631 1497 
Q 2606 1478 2497 1478 
L 709 1478 
Q 709 825 903 519 
Q 1172 91 1625 91 
Q 1688 91 1763 103 
Q 1838 116 1991 170 
Q 2144 225 2278 372 
Q 2413 519 2491 750 
Q 2509 841 2572 838 
Q 2656 838 2656 763 
Q 2656 706 2595 579 
Q 2534 453 2418 303 
Q 2303 153 2079 40 
Q 1856 -72 1588 -72 
Q 1025 -72 601 354 
Q 178 781 178 1409 
z
M 716 1613 
L 2234 1613 
Q 2234 1747 2211 1897 
Q 2188 2047 2120 2255 
Q 2053 2463 1897 2594 
Q 1741 2725 1509 2725 
Q 1406 2725 1295 2681 
Q 1184 2638 1050 2531 
Q 916 2425 822 2184 
Q 728 1944 716 1613 
z
" transform="scale(0.015625)"/>
       <path id="CMUSerif-Roman-20" transform="scale(0.015625)"/>
       <path id="CMUSerif-Roman-28" d="M 634 1600 
Q 634 2681 1038 3553 
Q 1209 3919 1450 4225 
Q 1691 4531 1850 4665 
Q 2009 4800 2053 4800 
Q 2116 4800 2119 4738 
Q 2119 4706 2034 4628 
Q 1003 3578 1006 1600 
Q 1006 -384 2009 -1394 
Q 2119 -1503 2119 -1538 
Q 2119 -1600 2053 -1600 
Q 2009 -1600 1856 -1472 
Q 1703 -1344 1465 -1050 
Q 1228 -756 1056 -397 
Q 634 475 634 1600 
z
" transform="scale(0.015625)"/>
       <path id="CMUSerif-Roman-55" d="M 213 4172 
L 213 4372 
Q 438 4353 1159 4353 
Q 1875 4353 2100 4372 
L 2100 4172 
L 1947 4172 
Q 1600 4172 1520 4114 
Q 1441 4056 1441 3872 
L 1441 1434 
Q 1441 1006 1559 711 
Q 1678 416 1862 284 
Q 2047 153 2198 104 
Q 2350 56 2497 56 
Q 2984 56 3354 443 
Q 3725 831 3725 1478 
L 3725 3700 
Q 3725 3797 3712 3853 
Q 3700 3909 3645 3996 
Q 3591 4084 3444 4128 
Q 3297 4172 3066 4172 
L 3066 4372 
Q 3756 4353 3828 4353 
Q 3891 4353 4581 4372 
L 4581 4172 
Q 4350 4172 4203 4131 
Q 4056 4091 4003 4000 
Q 3950 3909 3936 3845 
Q 3922 3781 3922 3675 
L 3922 1625 
Q 3922 1313 3903 1184 
Q 3819 628 3423 243 
Q 3028 -141 2484 -141 
Q 1825 -141 1348 323 
Q 872 788 872 1459 
L 872 3872 
Q 872 4056 790 4114 
Q 709 4172 366 4172 
L 213 4172 
z
" transform="scale(0.015625)"/>
       <path id="CMUSerif-Roman-53" d="M 359 13 
L 359 1294 
Q 359 1366 362 1391 
Q 366 1416 384 1434 
Q 403 1453 441 1453 
Q 513 1453 519 1388 
Q 538 753 916 403 
Q 1288 56 1925 56 
Q 2309 56 2546 332 
Q 2784 609 2784 972 
Q 2784 1319 2584 1563 
Q 2500 1672 2395 1742 
Q 2291 1813 2227 1834 
Q 2163 1856 2041 1888 
Q 1247 2078 1197 2100 
Q 819 2228 589 2551 
Q 359 2875 359 3272 
Q 359 3784 720 4148 
Q 1081 4513 1606 4513 
Q 1869 4513 2089 4430 
Q 2309 4347 2400 4272 
Q 2491 4197 2631 4063 
L 2853 4428 
Q 2903 4513 2950 4513 
Q 3000 4513 3011 4483 
Q 3022 4453 3022 4359 
L 3022 3072 
Q 3022 3000 3019 2975 
Q 3016 2950 2995 2934 
Q 2975 2919 2938 2919 
Q 2875 2919 2859 2994 
Q 2681 4331 1613 4331 
Q 1247 4331 1008 4086 
Q 769 3841 769 3494 
Q 769 3213 944 2983 
Q 1119 2753 1416 2681 
L 2234 2484 
Q 2644 2388 2919 2025 
Q 3194 1663 3194 1191 
Q 3194 647 2839 253 
Q 2484 -141 1931 -141 
Q 1534 -141 1228 -9 
Q 922 122 756 306 
Q 628 94 544 -25 
L 525 -56 
Q 475 -141 428 -141 
Q 378 -141 368 -109 
Q 359 -78 359 13 
z
" transform="scale(0.015625)"/>
       <path id="CMUSerif-Roman-a2" d="M 213 1375 
Q 213 1956 625 2382 
Q 1038 2809 1678 2853 
L 1678 3413 
L 1875 3413 
L 1875 2853 
Q 2369 2841 2656 2666 
Q 2944 2491 2944 2188 
Q 2944 2041 2861 1961 
Q 2778 1881 2656 1881 
Q 2528 1881 2445 1967 
Q 2363 2053 2363 2175 
Q 2363 2425 2650 2472 
Q 2375 2678 1875 2694 
L 1875 97 
Q 2144 116 2336 198 
Q 2528 281 2617 384 
Q 2706 488 2761 589 
Q 2816 691 2852 758 
Q 2888 825 2931 825 
Q 3009 825 3009 756 
Q 3009 725 2979 647 
Q 2950 569 2870 450 
Q 2791 331 2672 226 
Q 2553 122 2342 39 
Q 2131 -44 1875 -63 
L 1875 -622 
L 1678 -622 
L 1678 -63 
Q 1044 -19 628 393 
Q 213 806 213 1375 
z
M 750 1381 
Q 750 906 976 548 
Q 1203 191 1678 103 
L 1678 2688 
Q 1250 2631 1000 2290 
Q 750 1950 750 1381 
z
" transform="scale(0.015625)"/>
       <path id="CMUSerif-Roman-29" d="M 366 -1538 
Q 366 -1506 447 -1428 
Q 1478 -378 1478 1600 
Q 1478 3584 488 4588 
Q 366 4703 366 4738 
Q 366 4800 428 4800 
Q 472 4800 626 4672 
Q 781 4544 1017 4250 
Q 1253 3956 1428 3597 
Q 1850 2725 1850 1600 
Q 1850 519 1447 -353 
Q 1275 -719 1034 -1025 
Q 794 -1331 634 -1465 
Q 475 -1600 428 -1600 
Q 366 -1600 366 -1538 
z
" transform="scale(0.015625)"/>
      </defs>
      <use xlink:href="#CMUSerif-Roman-50"/>
      <use xlink:href="#CMUSerif-Roman-72" transform="translate(67.96875 0)"/>
      <use xlink:href="#CMUSerif-Roman-69" transform="translate(107.03125 0)"/>
      <use xlink:href="#CMUSerif-Roman-63" transform="translate(134.716797 0)"/>
      <use xlink:href="#CMUSerif-Roman-65" transform="translate(179.101562 0)"/>
      <use xlink:href="#CMUSerif-Roman-20" transform="translate(223.486328 0)"/>
      <use xlink:href="#CMUSerif-Roman-28" transform="translate(256.738281 0)"/>
      <use xlink:href="#CMUSerif-Roman-55" transform="translate(295.507812 0)"/>
      <use xlink:href="#CMUSerif-Roman-53" transform="translate(370.507812 0)"/>
      <use xlink:href="#CMUSerif-Roman-a2" transform="translate(425.976562 0)"/>
      <use xlink:href="#CMUSerif-Roman-29" transform="translate(475.976562 0)"/>
     </g>
    </g>
   </g>
   <g id="line2d_27">
    <path d="M 79.968636 115.371443 
L 81.590905 121.706674 
L 83.213174 121.706674 
L 84.835443 120.91477 
L 86.457712 121.706674 
L 88.079981 123.290482 
L 89.70225 123.290482 
L 91.324519 124.874289 
L 92.946788 124.874289 
L 94.569057 126.458097 
L 96.191326 129.625713 
L 99.435865 124.874289 
L 102.680403 124.874289 
L 104.302672 126.458097 
L 105.924941 127.250001 
L 109.169479 125.666193 
L 110.791748 124.082386 
L 112.414017 123.290482 
L 114.036286 124.082386 
L 115.658555 121.706674 
L 117.280824 128.041905 
L 118.903093 128.833809 
L 120.525362 128.833809 
L 122.147631 127.250001 
L 123.7699 126.458097 
L 125.392169 127.250001 
L 128.636707 127.250001 
L 130.258976 125.666193 
L 131.881245 128.041905 
L 133.503514 126.458097 
L 135.125783 127.250001 
L 136.748052 125.666193 
L 138.370321 127.250001 
L 139.99259 127.250001 
L 141.614859 124.874289 
L 143.237128 124.082386 
L 144.859397 124.874289 
L 146.481666 124.082386 
L 148.103935 124.874289 
L 149.726204 129.625713 
L 151.348473 129.625713 
L 152.970742 128.833809 
L 154.593011 128.833809 
L 156.21528 127.250001 
L 157.837549 128.833809 
L 159.459818 128.833809 
L 161.082087 127.250001 
L 162.704356 126.458097 
L 164.326625 126.458097 
L 165.948894 124.874289 
L 167.571163 124.082386 
L 169.193432 125.666193 
L 170.815701 123.290482 
L 172.43797 124.082386 
L 174.060239 123.290482 
L 175.682508 123.290482 
L 177.304777 124.874289 
L 180.549315 134.377136 
L 182.171584 133.585232 
L 183.793853 133.585232 
L 185.416122 134.377136 
L 187.038391 133.585232 
L 188.66066 132.001424 
L 190.282929 129.625713 
L 191.905198 129.625713 
L 193.527467 130.417616 
L 195.149736 129.625713 
L 196.772005 130.417616 
L 198.394274 129.625713 
L 200.016543 130.417616 
L 201.638812 129.625713 
L 203.261081 131.20952 
L 204.88335 128.833809 
L 206.505619 127.250001 
L 208.127888 128.833809 
L 209.750157 128.833809 
L 211.372426 130.417616 
L 212.994695 130.417616 
L 214.616964 128.833809 
L 216.239233 132.001424 
L 217.861502 130.417616 
L 219.483771 132.001424 
L 221.10604 132.793328 
L 222.728309 130.417616 
L 224.350578 133.585232 
L 225.972847 132.793328 
L 227.595116 136.752847 
L 230.839654 136.752847 
L 232.461923 134.377136 
L 234.084192 136.752847 
L 235.706461 135.960943 
L 237.32873 136.752847 
L 238.951 139.128559 
L 242.195538 139.128559 
L 243.817807 139.920463 
L 245.440076 144.671886 
L 247.062345 152.590924 
L 248.684614 143.879982 
L 250.306883 143.879982 
L 251.929152 147.047597 
L 255.17369 147.047597 
L 256.795959 148.631405 
L 258.418228 148.631405 
L 260.040497 147.047597 
L 261.662766 147.839501 
L 263.285035 145.46379 
L 269.774111 145.46379 
L 271.39638 142.296174 
L 273.018649 139.920463 
L 274.640918 139.128559 
L 276.263187 143.088078 
L 277.885456 147.839501 
L 279.507725 151.79902 
L 285.996801 148.631405 
L 287.61907 151.79902 
L 289.241339 151.79902 
L 290.863608 146.255693 
L 292.485877 149.423309 
L 294.108146 151.79902 
L 295.730415 150.215213 
L 297.352684 151.79902 
L 298.974953 151.79902 
L 300.597222 152.590924 
L 302.219491 152.590924 
L 303.84176 153.382828 
L 305.464029 153.382828 
L 307.086298 154.174732 
L 308.708567 157.342347 
L 310.330836 157.342347 
L 311.953105 154.966636 
L 313.575374 155.75854 
L 315.197643 155.75854 
L 316.819912 154.966636 
L 318.442181 151.79902 
L 320.06445 151.79902 
L 321.686719 150.215213 
L 323.308988 151.79902 
L 324.931257 154.174732 
L 326.553526 154.966636 
L 328.175795 153.382828 
L 329.798064 154.174732 
L 333.042602 154.174732 
L 334.664871 153.382828 
L 336.28714 153.382828 
L 337.909409 154.966636 
L 339.531678 154.174732 
L 341.153947 156.550444 
L 342.776216 154.966636 
L 344.398485 154.966636 
L 346.020754 152.590924 
L 347.643023 153.382828 
L 349.265292 119.330962 
L 350.887561 116.955251 
L 352.50983 117.747155 
L 354.132099 96.365751 
L 355.754368 92.406231 
L 357.376637 100.32527 
L 358.998906 94.781943 
L 360.621175 100.32527 
L 362.243444 97.157655 
L 363.865713 106.660501 
L 365.487982 131.20952 
L 367.110251 129.625713 
L 368.73252 130.417616 
L 370.354789 132.793328 
L 371.977058 137.544751 
L 373.599327 135.960943 
L 375.221596 135.960943 
L 376.843865 140.712366 
L 378.466135 143.879982 
L 380.088404 142.296174 
L 381.710673 139.128559 
L 383.332942 139.128559 
L 384.955211 144.671886 
L 386.57748 144.671886 
L 388.199749 142.296174 
L 389.822018 143.879982 
L 391.444287 148.631405 
L 393.066556 148.631405 
L 394.688825 150.215213 
L 399.555632 150.215213 
L 401.177901 148.631405 
L 402.80017 148.631405 
L 404.422439 150.215213 
L 412.533784 150.215213 
L 414.156053 151.79902 
L 417.400591 151.79902 
L 419.02286 150.215213 
L 422.267398 151.79902 
L 427.134205 151.79902 
L 430.378743 154.966636 
L 436.867819 154.966636 
L 438.490088 156.550444 
L 440.112357 156.550444 
L 441.734626 158.134251 
L 443.356895 158.134251 
L 446.601433 156.550444 
L 451.46824 156.550444 
L 453.090509 155.75854 
L 454.712778 156.550444 
L 459.579585 156.550444 
L 461.201854 158.134251 
L 462.824123 156.550444 
L 466.068661 158.134251 
L 469.313199 161.301867 
L 477.424544 161.301867 
L 479.046813 162.885674 
L 482.291351 164.469482 
L 485.535889 164.469482 
L 487.158158 163.677578 
L 490.402696 163.677578 
L 492.024965 162.885674 
L 500.13631 162.885674 
L 501.758579 161.301867 
L 503.380848 161.301867 
L 505.003117 162.885674 
L 508.247655 167.637097 
L 509.869924 167.637097 
L 511.492193 166.05329 
L 513.114462 166.845194 
L 514.736731 166.845194 
L 516.359 167.637097 
L 521.225808 167.637097 
L 522.848077 165.261386 
L 524.470346 166.845194 
L 527.714884 168.429001 
L 529.337153 164.469482 
L 530.959422 166.845194 
L 532.581691 166.05329 
L 534.20396 167.637097 
L 537.448498 167.637097 
L 539.070767 166.05329 
L 540.693036 166.05329 
L 542.315305 167.637097 
L 543.937574 167.637097 
L 545.559843 169.220905 
L 553.671188 169.220905 
L 555.293457 170.804713 
L 556.915726 169.220905 
L 558.537995 170.804713 
L 560.160264 169.220905 
L 563.404802 172.388521 
L 565.027071 171.596617 
L 566.64934 172.388521 
L 569.893878 172.388521 
L 571.516147 170.012809 
L 573.138416 170.804713 
L 579.627492 177.139944 
L 582.87203 177.139944 
L 584.494299 180.307559 
L 586.116568 178.723751 
L 587.738837 180.307559 
L 589.361106 180.307559 
L 590.983375 181.891367 
L 597.472451 181.891367 
L 599.09472 181.099463 
L 600.716989 181.891367 
L 602.339258 181.891367 
L 603.961527 180.307559 
L 605.583796 181.891367 
L 608.828334 181.891367 
L 610.450603 180.307559 
L 612.072872 181.891367 
L 615.31741 181.891367 
L 616.939679 183.475175 
L 618.561948 183.475175 
L 620.184217 183.871126 
L 621.806486 184.900601 
L 623.428755 184.187888 
L 625.051024 185.296553 
L 626.673293 185.692505 
L 628.295562 184.900601 
L 629.917831 186.088457 
L 631.5401 186.5636 
L 633.162369 186.088457 
L 634.784638 186.167648 
L 636.406907 186.801171 
L 638.029176 188.068217 
L 639.651445 187.434694 
L 641.273714 187.672265 
L 642.895983 188.62255 
L 646.140521 188.068217 
L 649.385059 188.305788 
L 651.007328 189.335263 
L 652.629597 188.384978 
L 654.251866 188.305788 
L 655.874135 188.543359 
L 657.496405 189.256073 
L 659.118674 189.176882 
L 660.740943 188.860121 
L 662.363212 189.176882 
L 663.985481 189.335263 
L 665.60775 189.335263 
L 670.474557 189.810405 
L 672.096826 189.731215 
L 673.719095 190.047977 
L 675.341364 190.206357 
L 675.341364 190.206357 
" clip-path="url(#pae1adaf364)" style="fill: none; stroke: #e6bb12; stroke-width: 2; stroke-linecap: square"/>
   </g>
   <g id="patch_3">
    <path d="M 50.2 198.521348 
L 50.2 24.3025 
" style="fill: none; stroke: #e0f0e9; stroke-linejoin: miter; stroke-linecap: square"/>
   </g>
   <g id="patch_4">
    <path d="M 705.11 198.521348 
L 705.11 24.3025 
" style="fill: none; stroke: #e0f0e9; stroke-linejoin: miter; stroke-linecap: square"/>
   </g>
   <g id="patch_5">
    <path d="M 50.2 198.521348 
L 705.11 198.521348 
" style="fill: none; stroke: #e0f0e9; stroke-linejoin: miter; stroke-linecap: square"/>
   </g>
   <g id="patch_6">
    <path d="M 50.2 24.3025 
L 705.11 24.3025 
" style="fill: none; stroke: #e0f0e9; stroke-linejoin: miter; stroke-linecap: square"/>
   </g>
   <g id="text_8">
    <!-- Yes-Contract Price -->
    <g style="fill: #e0f0e9" transform="translate(310.665 18.3025) scale(0.16 -0.16)">
     <defs>
      <path id="CMUSerif-Roman-59" d="M 72 4172 
L 72 4372 
Q 475 4353 903 4353 
Q 1619 4353 1850 4372 
L 1850 4172 
Q 1613 4172 1508 4140 
Q 1403 4109 1403 4013 
Q 1403 3969 1447 3903 
L 2606 2016 
L 3659 3731 
Q 3722 3828 3725 3922 
Q 3725 4031 3636 4101 
Q 3547 4172 3359 4172 
L 3359 4372 
Q 3859 4353 4097 4353 
Q 4428 4353 4722 4372 
L 4722 4172 
Q 4153 4172 3903 3756 
L 2669 1747 
L 2669 513 
Q 2669 316 2748 256 
Q 2828 197 3181 197 
L 3328 197 
L 3328 0 
Q 3097 19 2394 19 
Q 1691 19 1459 0 
L 1459 197 
L 1613 197 
Q 1959 197 2039 255 
Q 2119 313 2119 500 
L 2119 1747 
L 775 3938 
Q 719 4034 673 4075 
Q 628 4116 512 4144 
Q 397 4172 184 4172 
L 72 4172 
z
" transform="scale(0.015625)"/>
      <path id="CMUSerif-Roman-73" d="M 213 84 
L 213 928 
Q 213 1000 216 1025 
Q 219 1050 237 1069 
Q 256 1088 294 1088 
Q 338 1088 355 1069 
Q 372 1050 384 978 
Q 481 538 689 305 
Q 897 72 1275 72 
Q 1634 72 1815 231 
Q 1997 391 1997 653 
Q 1997 1122 1331 1241 
Q 947 1319 787 1370 
Q 628 1422 488 1538 
Q 213 1763 213 2081 
Q 213 2400 455 2634 
Q 697 2869 1234 2869 
Q 1594 2869 1838 2688 
Q 1909 2744 1947 2791 
Q 2031 2869 2075 2869 
Q 2125 2869 2134 2836 
Q 2144 2803 2144 2713 
L 2144 2069 
Q 2144 1997 2141 1972 
Q 2138 1947 2119 1930 
Q 2100 1913 2059 1913 
Q 1988 1913 1984 1972 
Q 1934 2747 1234 2747 
Q 856 2747 687 2601 
Q 519 2456 519 2259 
Q 519 2150 570 2067 
Q 622 1984 689 1936 
Q 756 1888 881 1842 
Q 1006 1797 1082 1781 
Q 1159 1766 1306 1734 
Q 1819 1638 2034 1428 
Q 2303 1159 2303 819 
Q 2303 441 2047 184 
Q 1791 -72 1275 -72 
Q 859 -72 569 206 
Q 531 169 503 136 
Q 475 103 464 90 
Q 453 78 450 70 
Q 447 63 441 56 
Q 313 -72 281 -72 
Q 231 -72 222 -39 
Q 213 -6 213 84 
z
" transform="scale(0.015625)"/>
      <path id="CMUSerif-Roman-2d" d="M 63 1191 
L 63 1569 
L 1766 1569 
L 1766 1191 
L 63 1191 
z
" transform="scale(0.015625)"/>
      <path id="CMUSerif-Roman-43" d="M 359 2188 
Q 359 3153 1018 3833 
Q 1678 4513 2584 4513 
Q 2866 4513 3116 4409 
Q 3366 4306 3481 4217 
Q 3597 4128 3763 3963 
L 4084 4434 
Q 4134 4513 4186 4513 
Q 4238 4513 4247 4483 
Q 4256 4453 4256 4359 
L 4256 2841 
Q 4256 2738 4243 2713 
Q 4231 2688 4153 2688 
Q 4091 2688 4077 2706 
Q 4063 2725 4050 2797 
Q 3953 3488 3570 3900 
Q 3188 4313 2656 4313 
Q 2503 4313 2333 4278 
Q 2163 4244 1917 4112 
Q 1672 3981 1483 3764 
Q 1294 3547 1156 3136 
Q 1019 2725 1019 2181 
Q 1019 1644 1156 1231 
Q 1294 819 1483 605 
Q 1672 391 1917 259 
Q 2163 128 2336 92 
Q 2509 56 2663 56 
Q 3213 56 3634 447 
Q 4056 838 4097 1497 
Q 4103 1528 4103 1542 
Q 4103 1556 4109 1572 
Q 4116 1588 4131 1594 
Q 4147 1600 4172 1600 
Q 4256 1600 4256 1491 
Q 4256 881 3789 370 
Q 3322 -141 2584 -141 
Q 1675 -141 1017 534 
Q 359 1209 359 2188 
z
" transform="scale(0.015625)"/>
      <path id="CMUSerif-Roman-6f" d="M 601 345 
Q 178 763 178 1370 
Q 178 1978 592 2423 
Q 1006 2869 1600 2869 
Q 2181 2869 2598 2426 
Q 3016 1984 3016 1369 
Q 3016 766 2595 347 
Q 2175 -72 1594 -72 
Q 1025 -72 601 345 
z
M 709 1422 
Q 709 800 872 519 
Q 1122 91 1600 91 
Q 1838 91 2036 219 
Q 2234 347 2344 563 
Q 2484 844 2484 1422 
Q 2484 2038 2316 2309 
Q 2066 2725 1594 2725 
Q 1388 2725 1186 2617 
Q 984 2509 863 2297 
Q 709 2016 709 1422 
z
" transform="scale(0.015625)"/>
      <path id="CMUSerif-Roman-6e" d="M 206 0 
L 206 197 
Q 547 197 625 239 
Q 703 281 703 488 
L 703 2203 
Q 703 2441 620 2500 
Q 538 2559 206 2559 
L 206 2759 
L 1106 2828 
L 1106 2156 
Q 1406 2828 2053 2828 
Q 2534 2828 2725 2591 
Q 2866 2431 2895 2253 
Q 2925 2075 2925 1613 
L 2925 391 
Q 2931 256 3034 226 
Q 3138 197 3425 197 
L 3425 0 
Q 2772 19 2706 19 
Q 2656 19 1984 0 
L 1984 197 
Q 2325 197 2404 239 
Q 2484 281 2484 488 
L 2484 1978 
Q 2484 2303 2384 2495 
Q 2284 2688 2009 2688 
Q 1678 2688 1412 2409 
Q 1147 2131 1147 1663 
L 1147 488 
Q 1147 281 1226 239 
Q 1306 197 1644 197 
L 1644 0 
Q 991 19 928 19 
Q 878 19 206 0 
z
" transform="scale(0.015625)"/>
      <path id="CMUSerif-Roman-74" d="M 122 2559 
L 122 2700 
Q 416 2713 611 2920 
Q 806 3128 873 3384 
Q 941 3641 947 3938 
L 1106 3938 
L 1106 2759 
L 2022 2759 
L 2022 2559 
L 1106 2559 
L 1106 781 
Q 1106 91 1538 91 
Q 1722 91 1844 280 
Q 1966 469 1966 806 
L 1966 1159 
L 2125 1159 
L 2125 794 
Q 2125 447 1965 187 
Q 1806 -72 1491 -72 
Q 1375 -72 1261 -42 
Q 1147 -13 998 64 
Q 850 141 758 330 
Q 666 519 666 794 
L 666 2559 
L 122 2559 
z
" transform="scale(0.015625)"/>
      <path id="CMUSerif-Roman-61" d="M 269 609 
Q 269 1153 909 1441 
Q 1294 1625 2088 1672 
L 2088 1906 
Q 2088 2303 1880 2514 
Q 1672 2725 1409 2725 
Q 941 2725 716 2431 
Q 906 2425 975 2329 
Q 1044 2234 1044 2138 
Q 1044 2009 964 1926 
Q 884 1844 750 1844 
Q 622 1844 537 1923 
Q 453 2003 453 2144 
Q 453 2456 736 2662 
Q 1019 2869 1422 2869 
Q 1947 2869 2297 2516 
Q 2406 2406 2461 2265 
Q 2516 2125 2522 2033 
Q 2528 1941 2528 1759 
L 2528 481 
Q 2528 444 2540 381 
Q 2553 319 2611 239 
Q 2669 159 2766 159 
Q 2997 159 2994 569 
L 2994 928 
L 3156 928 
L 3156 569 
Q 3156 228 2976 95 
Q 2797 -38 2631 -38 
Q 2419 -38 2284 118 
Q 2150 275 2131 488 
Q 2034 244 1814 86 
Q 1594 -72 1294 -72 
Q 1063 -72 845 -14 
Q 628 44 448 205 
Q 269 366 269 609 
z
M 763 616 
Q 763 378 931 225 
Q 1100 72 1338 72 
Q 1606 72 1847 280 
Q 2088 488 2088 897 
L 2088 1538 
Q 1378 1513 1070 1230 
Q 763 947 763 616 
z
" transform="scale(0.015625)"/>
     </defs>
     <use xlink:href="#CMUSerif-Roman-59"/>
     <use xlink:href="#CMUSerif-Roman-65" transform="translate(75 0)"/>
     <use xlink:href="#CMUSerif-Roman-73" transform="translate(119.384766 0)"/>
     <use xlink:href="#CMUSerif-Roman-2d" transform="translate(158.740234 0)"/>
     <use xlink:href="#CMUSerif-Roman-43" transform="translate(191.992188 0)"/>
     <use xlink:href="#CMUSerif-Roman-6f" transform="translate(264.160156 0)"/>
     <use xlink:href="#CMUSerif-Roman-6e" transform="translate(314.160156 0)"/>
     <use xlink:href="#CMUSerif-Roman-74" transform="translate(369.628906 0)"/>
     <use xlink:href="#CMUSerif-Roman-72" transform="translate(408.398438 0)"/>
     <use xlink:href="#CMUSerif-Roman-61" transform="translate(447.460938 0)"/>
     <use xlink:href="#CMUSerif-Roman-63" transform="translate(497.460938 0)"/>
     <use xlink:href="#CMUSerif-Roman-74" transform="translate(541.845703 0)"/>
     <use xlink:href="#CMUSerif-Roman-20" transform="translate(580.615234 0)"/>
     <use xlink:href="#CMUSerif-Roman-50" transform="translate(613.867188 0)"/>
     <use xlink:href="#CMUSerif-Roman-72" transform="translate(681.835938 0)"/>
     <use xlink:href="#CMUSerif-Roman-69" transform="translate(720.898438 0)"/>
     <use xlink:href="#CMUSerif-Roman-63" transform="translate(748.583984 0)"/>
     <use xlink:href="#CMUSerif-Roman-65" transform="translate(792.96875 0)"/>
    </g>
   </g>
  </g>
  <g id="axes_2">
   <g id="patch_7">
    <path d="M 50.2 407.064424 
L 705.11 407.064424 
L 705.11 232.845576 
L 50.2 232.845576 
z
" style="fill: #274c43"/>
   </g>
   <g id="matplotlib.axis_3">
    <g id="xtick_8">
     <g id="line2d_28">
      <path d="M 83.222039 407.064424 
L 83.222039 232.845576 
" clip-path="url(#p319efcb580)" style="fill: none; stroke: #e0f0e9; stroke-opacity: 0.2; stroke-width: 0.8; stroke-linecap: square"/>
     </g>
     <g id="line2d_29">
      <g>
       <use xlink:href="#m8c734036a8" x="83.222039" y="407.064424" style="fill: #e0f0e9; stroke: #e0f0e9; stroke-width: 0.8"/>
      </g>
     </g>
    </g>
    <g id="xtick_9">
     <g id="line2d_30">
      <path d="M 179.197424 407.064424 
L 179.197424 232.845576 
" clip-path="url(#p319efcb580)" style="fill: none; stroke: #e0f0e9; stroke-opacity: 0.2; stroke-width: 0.8; stroke-linecap: square"/>
     </g>
     <g id="line2d_31">
      <g>
       <use xlink:href="#m8c734036a8" x="179.197424" y="407.064424" style="fill: #e0f0e9; stroke: #e0f0e9; stroke-width: 0.8"/>
      </g>
     </g>
    </g>
    <g id="xtick_10">
     <g id="line2d_32">
      <path d="M 278.426212 407.064424 
L 278.426212 232.845576 
" clip-path="url(#p319efcb580)" style="fill: none; stroke: #e0f0e9; stroke-opacity: 0.2; stroke-width: 0.8; stroke-linecap: square"/>
     </g>
     <g id="line2d_33">
      <g>
       <use xlink:href="#m8c734036a8" x="278.426212" y="407.064424" style="fill: #e0f0e9; stroke: #e0f0e9; stroke-width: 0.8"/>
      </g>
     </g>
    </g>
    <g id="xtick_11">
     <g id="line2d_34">
      <path d="M 377.655 407.064424 
L 377.655 232.845576 
" clip-path="url(#p319efcb580)" style="fill: none; stroke: #e0f0e9; stroke-opacity: 0.2; stroke-width: 0.8; stroke-linecap: square"/>
     </g>
     <g id="line2d_35">
      <g>
       <use xlink:href="#m8c734036a8" x="377.655" y="407.064424" style="fill: #e0f0e9; stroke: #e0f0e9; stroke-width: 0.8"/>
      </g>
     </g>
    </g>
    <g id="xtick_12">
     <g id="line2d_36">
      <path d="M 478.510489 407.064424 
L 478.510489 232.845576 
" clip-path="url(#p319efcb580)" style="fill: none; stroke: #e0f0e9; stroke-opacity: 0.2; stroke-width: 0.8; stroke-linecap: square"/>
     </g>
     <g id="line2d_37">
      <g>
       <use xlink:href="#m8c734036a8" x="478.510489" y="407.064424" style="fill: #e0f0e9; stroke: #e0f0e9; stroke-width: 0.8"/>
      </g>
     </g>
    </g>
    <g id="xtick_13">
     <g id="line2d_38">
      <path d="M 577.739277 407.064424 
L 577.739277 232.845576 
" clip-path="url(#p319efcb580)" style="fill: none; stroke: #e0f0e9; stroke-opacity: 0.2; stroke-width: 0.8; stroke-linecap: square"/>
     </g>
     <g id="line2d_39">
      <g>
       <use xlink:href="#m8c734036a8" x="577.739277" y="407.064424" style="fill: #e0f0e9; stroke: #e0f0e9; stroke-width: 0.8"/>
      </g>
     </g>
    </g>
    <g id="xtick_14">
     <g id="line2d_40">
      <path d="M 676.968065 407.064424 
L 676.968065 232.845576 
" clip-path="url(#p319efcb580)" style="fill: none; stroke: #e0f0e9; stroke-opacity: 0.2; stroke-width: 0.8; stroke-linecap: square"/>
     </g>
     <g id="line2d_41">
      <g>
       <use xlink:href="#m8c734036a8" x="676.968065" y="407.064424" style="fill: #e0f0e9; stroke: #e0f0e9; stroke-width: 0.8"/>
      </g>
     </g>
    </g>
   </g>
   <g id="matplotlib.axis_4">
    <g id="ytick_7">
     <g id="line2d_42">
      <path d="M 50.2 406.873563 
L 705.11 406.873563 
" clip-path="url(#p319efcb580)" style="fill: none; stroke: #e0f0e9; stroke-opacity: 0.2; stroke-width: 0.8; stroke-linecap: square"/>
     </g>
     <g id="line2d_43">
      <g>
       <use xlink:href="#mdeae4265e6" x="50.2" y="406.873563" style="fill: #e0f0e9; stroke: #e0f0e9; stroke-width: 0.8"/>
      </g>
     </g>
     <g id="text_9">
      <!-- 0 -->
      <g style="fill: #e0f0e9" transform="translate(37.2 411.037) scale(0.12 -0.12)">
       <use xlink:href="#CMUSerif-Roman-30"/>
      </g>
     </g>
    </g>
    <g id="ytick_8">
     <g id="line2d_44">
      <path d="M 50.2 358.991365 
L 705.11 358.991365 
" clip-path="url(#p319efcb580)" style="fill: none; stroke: #e0f0e9; stroke-opacity: 0.2; stroke-width: 0.8; stroke-linecap: square"/>
     </g>
     <g id="line2d_45">
      <g>
       <use xlink:href="#mdeae4265e6" x="50.2" y="358.991365" style="fill: #e0f0e9; stroke: #e0f0e9; stroke-width: 0.8"/>
      </g>
     </g>
     <g id="text_10">
      <!-- 1 -->
      <g style="fill: #e0f0e9" transform="translate(37.2 363.154803) scale(0.12 -0.12)">
       <use xlink:href="#CMUSerif-Roman-31"/>
      </g>
     </g>
    </g>
    <g id="ytick_9">
     <g id="line2d_46">
      <path d="M 50.2 311.109168 
L 705.11 311.109168 
" clip-path="url(#p319efcb580)" style="fill: none; stroke: #e0f0e9; stroke-opacity: 0.2; stroke-width: 0.8; stroke-linecap: square"/>
     </g>
     <g id="line2d_47">
      <g>
       <use xlink:href="#mdeae4265e6" x="50.2" y="311.109168" style="fill: #e0f0e9; stroke: #e0f0e9; stroke-width: 0.8"/>
      </g>
     </g>
     <g id="text_11">
      <!-- 2 -->
      <g style="fill: #e0f0e9" transform="translate(37.2 315.272606) scale(0.12 -0.12)">
       <use xlink:href="#CMUSerif-Roman-32"/>
      </g>
     </g>
    </g>
    <g id="ytick_10">
     <g id="line2d_48">
      <path d="M 50.2 263.226971 
L 705.11 263.226971 
" clip-path="url(#p319efcb580)" style="fill: none; stroke: #e0f0e9; stroke-opacity: 0.2; stroke-width: 0.8; stroke-linecap: square"/>
     </g>
     <g id="line2d_49">
      <g>
       <use xlink:href="#mdeae4265e6" x="50.2" y="263.226971" style="fill: #e0f0e9; stroke: #e0f0e9; stroke-width: 0.8"/>
      </g>
     </g>
     <g id="text_12">
      <!-- 3 -->
      <g style="fill: #e0f0e9" transform="translate(37.2 267.390409) scale(0.12 -0.12)">
       <defs>
        <path id="CMUSerif-Roman-33" d="M 269 863 
Q 269 1053 378 1143 
Q 488 1234 628 1234 
Q 775 1234 879 1139 
Q 984 1044 984 878 
Q 984 700 861 600 
Q 738 500 563 525 
Q 716 269 998 153 
Q 1281 38 1544 38 
Q 1819 38 2042 275 
Q 2266 513 2266 1094 
Q 2266 1588 2073 1872 
Q 1881 2156 1503 2156 
L 1222 2156 
Q 1125 2156 1097 2165 
Q 1069 2175 1069 2228 
Q 1069 2291 1166 2303 
Q 1263 2303 1416 2322 
Q 1788 2334 1984 2656 
Q 2163 2956 2163 3384 
Q 2163 3775 1977 3939 
Q 1791 4103 1550 4103 
Q 1325 4103 1078 4009 
Q 831 3916 697 3706 
Q 1094 3706 1094 3384 
Q 1094 3244 1005 3151 
Q 916 3059 769 3059 
Q 628 3059 534 3148 
Q 441 3238 441 3391 
Q 441 3756 767 4009 
Q 1094 4263 1575 4263 
Q 2050 4263 2401 4013 
Q 2753 3763 2753 3378 
Q 2753 3000 2503 2690 
Q 2253 2381 1856 2253 
Q 2344 2156 2634 1826 
Q 2925 1497 2925 1094 
Q 2925 594 2531 226 
Q 2138 -141 1563 -141 
Q 1031 -141 650 146 
Q 269 434 269 863 
z
" transform="scale(0.015625)"/>
       </defs>
       <use xlink:href="#CMUSerif-Roman-33"/>
      </g>
     </g>
    </g>
    <g id="text_13">
     <!-- Intensity -->
     <g style="fill: #e0f0e9" transform="translate(30.327813 347.162031) rotate(-90) scale(0.14 -0.14)">
      <defs>
       <path id="CMUSerif-Roman-49" d="M 178 0 
L 178 197 
L 347 197 
Q 706 197 789 255 
Q 872 313 872 500 
L 872 3872 
Q 872 4056 787 4114 
Q 703 4172 347 4172 
L 178 4172 
L 178 4372 
Q 403 4353 1159 4353 
Q 1909 4353 2131 4372 
L 2131 4172 
L 1966 4172 
Q 1606 4172 1523 4114 
Q 1441 4056 1441 3872 
L 1441 500 
Q 1441 316 1523 256 
Q 1606 197 1966 197 
L 2131 197 
L 2131 0 
Q 1906 19 1153 19 
Q 403 19 178 0 
z
" transform="scale(0.015625)"/>
       <path id="CMUSerif-Roman-79" d="M 122 -794 
Q 122 -659 201 -589 
Q 281 -519 391 -519 
Q 506 -519 582 -592 
Q 659 -666 659 -788 
Q 659 -1025 409 -1056 
Q 531 -1172 709 -1172 
Q 900 -1172 1054 -1031 
Q 1209 -891 1276 -756 
Q 1344 -622 1441 -378 
Q 1531 -188 1600 0 
L 641 2338 
Q 578 2491 481 2525 
Q 384 2559 122 2559 
L 122 2759 
Q 409 2741 744 2741 
Q 941 2741 1441 2759 
L 1441 2559 
Q 1081 2559 1081 2394 
Q 1081 2375 1119 2278 
L 1831 556 
L 2478 2131 
Q 2516 2222 2516 2284 
Q 2516 2547 2216 2559 
L 2216 2759 
Q 2638 2741 2772 2741 
Q 3034 2741 3250 2759 
L 3250 2559 
Q 2822 2559 2656 2150 
L 1528 -581 
Q 1222 -1309 709 -1313 
Q 466 -1313 294 -1163 
Q 122 -1013 122 -794 
z
" transform="scale(0.015625)"/>
      </defs>
      <use xlink:href="#CMUSerif-Roman-49"/>
      <use xlink:href="#CMUSerif-Roman-6e" transform="translate(36.083984 0)"/>
      <use xlink:href="#CMUSerif-Roman-74" transform="translate(91.552734 0)"/>
      <use xlink:href="#CMUSerif-Roman-65" transform="translate(130.322266 0)"/>
      <use xlink:href="#CMUSerif-Roman-6e" transform="translate(174.707031 0)"/>
      <use xlink:href="#CMUSerif-Roman-73" transform="translate(230.175781 0)"/>
      <use xlink:href="#CMUSerif-Roman-69" transform="translate(269.53125 0)"/>
      <use xlink:href="#CMUSerif-Roman-74" transform="translate(297.216797 0)"/>
      <use xlink:href="#CMUSerif-Roman-79" transform="translate(335.986328 0)"/>
     </g>
    </g>
   </g>
   <g id="line2d_50">
    <path d="M 79.968636 348.759388 
L 81.595338 361.609954 
L 83.222039 361.415121 
L 84.848741 359.639534 
L 86.475442 361.024784 
L 88.102144 363.950587 
L 89.728845 363.755749 
L 91.355546 366.629961 
L 92.982248 366.435573 
L 94.608949 369.26001 
L 96.235651 374.956636 
L 99.489054 365.655787 
L 102.742457 365.264505 
L 104.369158 368.093151 
L 105.995859 369.391666 
L 109.249262 365.999242 
L 110.875964 362.748291 
L 112.502665 361.002981 
L 114.129367 362.352512 
L 115.756068 357.467607 
L 117.382769 369.506308 
L 119.009471 370.783232 
L 120.636172 370.587283 
L 122.262874 367.43048 
L 123.889575 365.733578 
L 125.516277 367.035189 
L 128.76968 366.638811 
L 130.396381 363.424342 
L 132.023082 367.731014 
L 133.649784 364.539411 
L 135.276485 365.842683 
L 136.903187 362.622445 
L 138.529888 365.442873 
L 140.15659 365.242517 
L 141.783291 360.486466 
L 143.409993 358.738571 
L 145.036694 360.080503 
L 146.663395 358.330659 
L 148.290097 359.673183 
L 149.916798 368.485891 
L 151.5435 368.285201 
L 153.170201 366.611089 
L 154.796903 366.409121 
L 156.423604 363.221431 
L 158.050306 366.004192 
L 159.677007 365.801219 
L 161.303708 362.608486 
L 162.93041 360.889313 
L 164.557111 360.683206 
L 166.183813 357.40704 
L 167.810514 355.643409 
L 169.437216 358.532786 
L 171.063917 353.653761 
L 172.690618 355.013711 
L 174.31732 353.231136 
L 175.944021 353.019155 
L 177.570723 355.939985 
L 180.824126 373.27837 
L 182.450827 371.65898 
L 184.077529 371.454872 
L 185.70423 372.668269 
L 187.330931 371.04553 
L 188.957633 367.967912 
L 190.584334 363.363111 
L 192.211036 363.153071 
L 193.837737 364.421898 
L 195.464439 362.731649 
L 197.09114 364.00124 
L 198.717842 362.308393 
L 200.344543 363.578763 
L 201.971244 361.883262 
L 203.597946 364.626943 
L 205.224647 359.958727 
L 206.851349 356.709597 
L 208.47805 359.527837 
L 210.104752 359.311614 
L 211.731453 362.085008 
L 213.358154 361.869604 
L 214.984856 358.659735 
L 216.611557 364.385166 
L 218.238259 361.22023 
L 219.86496 363.954495 
L 221.491662 365.197711 
L 223.118363 360.565941 
L 224.745065 366.215659 
L 226.371766 364.549031 
L 227.998467 371.479764 
L 231.25187 371.053518 
L 232.878572 366.574942 
L 234.505273 370.625201 
L 236.131975 368.997494 
L 237.758676 370.194744 
L 239.385378 374.15981 
L 242.63878 373.73238 
L 244.265482 374.894093 
L 245.892183 382.737052 
L 247.518885 395.239263 
L 249.145586 380.999213 
L 250.772288 380.789002 
L 252.398989 385.815612 
L 255.652392 385.401296 
L 257.279093 387.76456 
L 258.905795 387.558383 
L 260.532496 384.776224 
L 262.159198 385.860167 
L 263.785899 381.74117 
L 270.292705 380.887059 
L 271.919406 375.304591 
L 273.546108 370.952176 
L 275.172809 369.32817 
L 276.799511 376.001014 
L 278.426212 383.749309 
L 280.052914 389.936396 
L 286.559719 383.975493 
L 288.186421 388.889076 
L 289.813122 388.677969 
L 291.439824 379.37837 
L 293.066525 384.407828 
L 294.693227 388.041212 
L 296.319928 385.266691 
L 297.946629 387.613742 
L 299.573331 387.399085 
L 301.200032 388.455893 
L 302.826734 388.241425 
L 304.453435 389.292961 
L 306.080137 389.078696 
L 307.706838 390.125127 
L 309.333539 394.881708 
L 310.960241 394.673001 
L 312.586942 390.738763 
L 314.213644 391.775462 
L 315.840345 391.561927 
L 317.467047 390.093487 
L 319.093748 384.771271 
L 320.72045 384.54761 
L 322.347151 381.712595 
L 323.973852 384.097935 
L 325.600554 387.733815 
L 327.227255 388.784459 
L 328.853957 386.007377 
L 330.480658 387.066507 
L 333.734061 386.61769 
L 335.360763 385.102539 
L 336.987464 384.874219 
L 338.614165 387.223147 
L 340.240867 385.710089 
L 341.867568 389.322304 
L 343.49427 386.541689 
L 345.120971 386.312781 
L 346.747673 382.173869 
L 348.374374 383.250648 
L 350.001076 316.813623 
L 351.627777 310.914813 
L 353.254478 312.433743 
L 354.88118 254.082311 
L 356.507881 240.764615 
L 358.134583 265.292232 
L 359.761284 247.651854 
L 361.387986 264.411631 
L 363.014687 254.282381 
L 364.641388 281.631411 
L 366.26809 339.360679 
L 367.894791 335.742521 
L 369.521493 337.070837 
L 371.148194 341.64569 
L 372.774896 350.810328 
L 374.401597 347.38388 
L 376.028299 347.06919 
L 377.655 356.008279 
L 379.281701 361.666767 
L 380.908403 358.411144 
L 382.535104 352.041424 
L 384.161806 351.728035 
L 385.788507 361.964791 
L 387.415209 361.668663 
L 389.04191 356.894816 
L 390.668612 359.585999 
L 392.295313 368.05255 
L 393.922014 367.764002 
L 395.548716 370.330473 
L 400.42882 369.466519 
L 402.055522 366.291924 
L 403.682223 365.991372 
L 405.308924 368.584884 
L 413.442432 367.073279 
L 415.069133 369.664114 
L 418.322536 369.053911 
L 419.949237 365.822865 
L 423.20264 368.121021 
L 428.082745 367.165854 
L 431.336148 372.358183 
L 437.842953 371.094454 
L 439.469655 373.679591 
L 441.096356 373.363229 
L 442.723058 375.933027 
L 444.349759 375.620434 
L 447.603162 372.070459 
L 452.483266 371.070276 
L 454.109968 369.238381 
L 455.736669 370.387894 
L 460.616773 369.339479 
L 462.243475 371.992627 
L 463.870176 368.623011 
L 467.123579 370.93563 
L 470.376982 376.233828 
L 478.510489 374.481866 
L 480.137191 377.149558 
L 483.390594 379.459796 
L 486.643997 378.76221 
L 488.270698 376.882128 
L 491.524101 376.146443 
L 493.150802 374.215494 
L 501.284309 372.234459 
L 502.911011 368.584355 
L 504.537712 368.150083 
L 506.164414 370.98304 
L 509.417817 379.813348 
L 511.044518 379.427636 
L 512.67122 375.807279 
L 514.297921 377.021055 
L 515.924622 376.609647 
L 517.551324 377.831273 
L 522.431428 376.573266 
L 524.05813 371.070359 
L 525.684831 374.011432 
L 528.938234 376.509135 
L 530.564935 367.379936 
L 532.191637 372.139883 
L 533.818338 369.891678 
L 535.44504 372.919464 
L 538.698443 371.927484 
L 540.325144 367.80174 
L 541.951846 367.255031 
L 543.578547 370.371258 
L 545.205248 369.832943 
L 546.83195 372.97397 
L 554.965457 370.222214 
L 556.592158 373.479763 
L 558.21886 369.039634 
L 559.845561 372.34407 
L 561.472263 367.804475 
L 564.725666 374.530826 
L 566.352367 371.935952 
L 567.979069 373.343363 
L 571.232471 372.098421 
L 572.859173 365.127595 
L 574.485874 366.537874 
L 580.99268 381.047665 
L 584.246083 379.849384 
L 585.872784 388.049825 
L 587.499486 383.079752 
L 589.126187 386.991992 
L 590.752889 386.440661 
L 592.37959 390.466145 
L 598.886396 388.310798 
L 600.513097 385.251978 
L 602.139799 387.128301 
L 603.7665 386.506757 
L 605.393202 380.628907 
L 607.019903 385.196152 
L 610.273306 383.784587 
L 611.900007 377.383037 
L 613.526709 382.256643 
L 616.780112 380.593412 
L 618.406813 385.805737 
L 620.033515 385.018845 
L 621.660216 385.783752 
L 623.286918 389.177035 
L 624.913619 385.425212 
L 626.54032 389.327191 
L 628.167022 390.283268 
L 629.793723 385.895837 
L 631.420425 390.51914 
L 633.047126 391.982972 
L 634.673828 388.824908 
L 636.300529 388.301486 
L 637.927231 390.695695 
L 639.553932 396.740787 
L 641.180633 392.410176 
L 642.807335 392.906379 
L 644.434036 397.871493 
L 646.060738 395.080431 
L 647.687439 392.55371 
L 649.314141 392.613904 
L 650.940842 392.085719 
L 652.567543 399.145385 
L 654.194245 390.165912 
L 655.820946 387.919028 
L 657.447648 388.479396 
L 659.074349 394.248455 
L 660.701051 391.796926 
L 662.327752 385.752529 
L 663.954454 387.509863 
L 665.581155 387.134432 
L 667.207856 383.615609 
L 668.834558 382.380313 
L 670.461259 382.811128 
L 672.087961 377.56041 
L 673.714662 358.260117 
L 675.341364 345.119728 
L 675.341364 345.119728 
" clip-path="url(#p319efcb580)" style="fill: none; stroke: #e6bb12; stroke-width: 2; stroke-linecap: square"/>
   </g>
   <g id="patch_8">
    <path d="M 50.2 407.064424 
L 50.2 232.845576 
" style="fill: none; stroke: #e0f0e9; stroke-linejoin: miter; stroke-linecap: square"/>
   </g>
   <g id="patch_9">
    <path d="M 705.11 407.064424 
L 705.11 232.845576 
" style="fill: none; stroke: #e0f0e9; stroke-linejoin: miter; stroke-linecap: square"/>
   </g>
   <g id="patch_10">
    <path d="M 50.2 407.064424 
L 705.11 407.064424 
" style="fill: none; stroke: #e0f0e9; stroke-linejoin: miter; stroke-linecap: square"/>
   </g>
   <g id="patch_11">
    <path d="M 50.2 232.845576 
L 705.11 232.845576 
" style="fill: none; stroke: #e0f0e9; stroke-linejoin: miter; stroke-linecap: square"/>
   </g>
   <g id="text_14">
    <!-- Intensity Reconstruction -->
    <g style="fill: #e0f0e9" transform="translate(291.3575 226.845576) scale(0.16 -0.16)">
     <defs>
      <path id="CMUSerif-Roman-52" d="M 225 0 
L 225 197 
L 378 197 
Q 725 197 804 255 
Q 884 313 884 500 
L 884 3872 
Q 884 4056 803 4114 
Q 722 4172 378 4172 
L 225 4172 
L 225 4372 
L 2234 4372 
Q 2931 4372 3417 4030 
Q 3903 3688 3903 3219 
Q 3903 2859 3587 2578 
Q 3272 2297 2784 2175 
Q 3419 1956 3566 1434 
L 3647 922 
Q 3672 738 3689 644 
Q 3706 550 3734 422 
Q 3763 294 3792 233 
Q 3822 172 3865 108 
Q 3909 44 3967 22 
Q 4025 0 4103 0 
Q 4250 0 4375 131 
Q 4500 263 4525 569 
Q 4538 672 4603 672 
Q 4684 672 4684 569 
Q 4684 478 4659 373 
Q 4634 269 4573 147 
Q 4513 25 4381 -58 
Q 4250 -141 4078 -141 
Q 3578 -141 3272 128 
Q 3144 244 3086 394 
Q 3028 544 3018 662 
Q 3009 781 3009 1044 
Q 3009 1416 2970 1578 
Q 2931 1741 2766 1900 
Q 2541 2119 2169 2119 
L 1434 2119 
L 1434 500 
Q 1434 316 1514 256 
Q 1594 197 1941 197 
L 2094 197 
L 2094 0 
Q 1863 19 1159 19 
Q 456 19 225 0 
z
M 1434 2259 
L 2144 2259 
Q 2484 2259 2714 2342 
Q 2944 2425 3053 2575 
Q 3163 2725 3203 2876 
Q 3244 3028 3244 3219 
Q 3244 3444 3194 3612 
Q 3144 3781 3034 3881 
Q 2925 3981 2815 4045 
Q 2706 4109 2537 4134 
Q 2369 4159 2253 4165 
Q 2138 4172 1953 4172 
Q 1641 4172 1575 4159 
Q 1503 4153 1475 4118 
Q 1447 4084 1440 4045 
Q 1434 4006 1434 3916 
L 1434 2259 
z
" transform="scale(0.015625)"/>
      <path id="CMUSerif-Roman-75" d="M 206 2559 
L 206 2759 
L 1147 2828 
L 1147 703 
Q 1147 550 1159 461 
Q 1172 372 1223 269 
Q 1275 166 1395 119 
Q 1516 72 1709 72 
Q 2056 72 2270 356 
Q 2484 641 2484 1063 
L 2484 2203 
Q 2484 2441 2400 2500 
Q 2316 2559 1984 2559 
L 1984 2759 
L 2925 2828 
L 2925 556 
Q 2925 319 3008 258 
Q 3091 197 3425 197 
L 3425 0 
L 2503 -72 
L 2503 506 
Q 2234 -69 1678 -72 
Q 1397 -72 1205 0 
Q 1013 72 916 161 
Q 819 250 767 422 
Q 716 594 709 700 
Q 703 806 703 1013 
L 703 1972 
Q 703 2406 640 2482 
Q 578 2559 206 2559 
z
" transform="scale(0.015625)"/>
     </defs>
     <use xlink:href="#CMUSerif-Roman-49"/>
     <use xlink:href="#CMUSerif-Roman-6e" transform="translate(36.083984 0)"/>
     <use xlink:href="#CMUSerif-Roman-74" transform="translate(91.552734 0)"/>
     <use xlink:href="#CMUSerif-Roman-65" transform="translate(130.322266 0)"/>
     <use xlink:href="#CMUSerif-Roman-6e" transform="translate(174.707031 0)"/>
     <use xlink:href="#CMUSerif-Roman-73" transform="translate(230.175781 0)"/>
     <use xlink:href="#CMUSerif-Roman-69" transform="translate(269.53125 0)"/>
     <use xlink:href="#CMUSerif-Roman-74" transform="translate(297.216797 0)"/>
     <use xlink:href="#CMUSerif-Roman-79" transform="translate(335.986328 0)"/>
     <use xlink:href="#CMUSerif-Roman-20" transform="translate(388.671875 0)"/>
     <use xlink:href="#CMUSerif-Roman-52" transform="translate(421.923828 0)"/>
     <use xlink:href="#CMUSerif-Roman-65" transform="translate(495.507812 0)"/>
     <use xlink:href="#CMUSerif-Roman-63" transform="translate(539.892578 0)"/>
     <use xlink:href="#CMUSerif-Roman-6f" transform="translate(584.277344 0)"/>
     <use xlink:href="#CMUSerif-Roman-6e" transform="translate(634.277344 0)"/>
     <use xlink:href="#CMUSerif-Roman-73" transform="translate(689.746094 0)"/>
     <use xlink:href="#CMUSerif-Roman-74" transform="translate(729.101562 0)"/>
     <use xlink:href="#CMUSerif-Roman-72" transform="translate(767.871094 0)"/>
     <use xlink:href="#CMUSerif-Roman-75" transform="translate(806.933594 0)"/>
     <use xlink:href="#CMUSerif-Roman-63" transform="translate(862.402344 0)"/>
     <use xlink:href="#CMUSerif-Roman-74" transform="translate(906.787109 0)"/>
     <use xlink:href="#CMUSerif-Roman-69" transform="translate(945.556641 0)"/>
     <use xlink:href="#CMUSerif-Roman-6f" transform="translate(973.242188 0)"/>
     <use xlink:href="#CMUSerif-Roman-6e" transform="translate(1023.242188 0)"/>
    </g>
   </g>
  </g>
  <g id="axes_3">
   <g id="patch_12">
    <path d="M 50.2 615.6075 
L 705.11 615.6075 
L 705.11 441.388652 
L 50.2 441.388652 
z
" style="fill: #274c43"/>
   </g>
   <g id="matplotlib.axis_5">
    <g id="xtick_15">
     <g id="line2d_51">
      <path d="M 83.213174 615.6075 
L 83.213174 441.388652 
" clip-path="url(#p71ebe69e01)" style="fill: none; stroke: #e0f0e9; stroke-opacity: 0.2; stroke-width: 0.8; stroke-linecap: square"/>
     </g>
     <g id="line2d_52">
      <g>
       <use xlink:href="#m8c734036a8" x="83.213174" y="615.6075" style="fill: #e0f0e9; stroke: #e0f0e9; stroke-width: 0.8"/>
      </g>
     </g>
     <g id="text_15">
      <!-- Jan -->
      <g style="fill: #e0f0e9" transform="translate(73.809112 630.934375) scale(0.12 -0.12)">
       <defs>
        <path id="CMUSerif-Roman-4a" d="M 263 716 
Q 263 906 375 997 
Q 488 1088 622 1088 
Q 763 1088 870 992 
Q 978 897 978 728 
Q 978 372 575 372 
Q 572 372 569 372 
Q 800 0 1275 0 
Q 1544 0 1737 262 
Q 1931 525 1931 947 
L 1931 3866 
Q 1931 4000 1906 4051 
Q 1881 4103 1747 4137 
Q 1613 4172 1306 4172 
L 1075 4172 
L 1075 4372 
Q 1319 4353 2150 4353 
Q 2553 4353 2975 4372 
L 2975 4172 
Q 2650 4172 2567 4134 
Q 2484 4097 2484 3909 
L 2484 1069 
Q 2484 838 2478 788 
Q 2422 409 2090 134 
Q 1759 -141 1288 -141 
Q 859 -141 561 107 
Q 263 356 263 716 
z
" transform="scale(0.015625)"/>
       </defs>
       <use xlink:href="#CMUSerif-Roman-4a"/>
       <use xlink:href="#CMUSerif-Roman-61" transform="translate(51.269531 0)"/>
       <use xlink:href="#CMUSerif-Roman-6e" transform="translate(101.269531 0)"/>
      </g>
     </g>
    </g>
    <g id="xtick_16">
     <g id="line2d_53">
      <path d="M 178.927046 615.6075 
L 178.927046 441.388652 
" clip-path="url(#p71ebe69e01)" style="fill: none; stroke: #e0f0e9; stroke-opacity: 0.2; stroke-width: 0.8; stroke-linecap: square"/>
     </g>
     <g id="line2d_54">
      <g>
       <use xlink:href="#m8c734036a8" x="178.927046" y="615.6075" style="fill: #e0f0e9; stroke: #e0f0e9; stroke-width: 0.8"/>
      </g>
     </g>
     <g id="text_16">
      <!-- Mar -->
      <g style="fill: #e0f0e9" transform="translate(168.090484 630.934375) scale(0.12 -0.12)">
       <defs>
        <path id="CMUSerif-Roman-4d" d="M 238 0 
L 238 197 
Q 469 197 616 242 
Q 763 288 817 373 
Q 872 459 884 517 
Q 897 575 897 672 
L 897 3872 
Q 897 4056 817 4114 
Q 738 4172 391 4172 
L 238 4172 
L 238 4372 
L 1319 4372 
Q 1434 4372 1465 4351 
Q 1497 4331 1544 4231 
L 2931 647 
L 4331 4250 
Q 4363 4341 4392 4356 
Q 4422 4372 4544 4372 
L 5625 4372 
L 5625 4172 
L 5472 4172 
Q 5125 4172 5045 4114 
Q 4966 4056 4966 3872 
L 4966 500 
Q 4966 316 5045 256 
Q 5125 197 5472 197 
L 5625 197 
L 5625 0 
Q 5388 19 4709 19 
Q 4025 19 3788 0 
L 3788 197 
L 3944 197 
Q 4291 197 4369 255 
Q 4447 313 4447 500 
L 4447 4172 
L 4441 4172 
L 2869 122 
Q 2825 0 2753 0 
Q 2675 0 2625 141 
L 1081 4122 
L 1075 4122 
L 1075 672 
Q 1075 575 1087 517 
Q 1100 459 1154 373 
Q 1209 288 1356 242 
Q 1503 197 1734 197 
L 1734 0 
Q 1063 19 986 19 
Q 909 19 238 0 
z
" transform="scale(0.015625)"/>
       </defs>
       <use xlink:href="#CMUSerif-Roman-4d"/>
       <use xlink:href="#CMUSerif-Roman-61" transform="translate(91.552734 0)"/>
       <use xlink:href="#CMUSerif-Roman-72" transform="translate(141.552734 0)"/>
      </g>
     </g>
    </g>
    <g id="xtick_17">
     <g id="line2d_55">
      <path d="M 277.885456 615.6075 
L 277.885456 441.388652 
" clip-path="url(#p71ebe69e01)" style="fill: none; stroke: #e0f0e9; stroke-opacity: 0.2; stroke-width: 0.8; stroke-linecap: square"/>
     </g>
     <g id="line2d_56">
      <g>
       <use xlink:href="#m8c734036a8" x="277.885456" y="615.6075" style="fill: #e0f0e9; stroke: #e0f0e9; stroke-width: 0.8"/>
      </g>
     </g>
     <g id="text_17">
      <!-- May -->
      <g style="fill: #e0f0e9" transform="translate(266.231393 630.805) scale(0.12 -0.12)">
       <use xlink:href="#CMUSerif-Roman-4d"/>
       <use xlink:href="#CMUSerif-Roman-61" transform="translate(91.552734 0)"/>
       <use xlink:href="#CMUSerif-Roman-79" transform="translate(141.552734 0)"/>
      </g>
     </g>
    </g>
    <g id="xtick_18">
     <g id="line2d_57">
      <path d="M 376.843865 615.6075 
L 376.843865 441.388652 
" clip-path="url(#p71ebe69e01)" style="fill: none; stroke: #e0f0e9; stroke-opacity: 0.2; stroke-width: 0.8; stroke-linecap: square"/>
     </g>
     <g id="line2d_58">
      <g>
       <use xlink:href="#m8c734036a8" x="376.843865" y="615.6075" style="fill: #e0f0e9; stroke: #e0f0e9; stroke-width: 0.8"/>
      </g>
     </g>
     <g id="text_18">
      <!-- Jul -->
      <g style="fill: #e0f0e9" transform="translate(368.778553 630.934375) scale(0.12 -0.12)">
       <defs>
        <path id="CMUSerif-Roman-6c" d="M 213 0 
L 213 197 
Q 553 197 631 239 
Q 709 281 709 488 
L 709 3816 
Q 709 4053 626 4112 
Q 544 4172 213 4172 
L 213 4372 
L 1131 4441 
L 1131 488 
Q 1131 281 1212 239 
Q 1294 197 1631 197 
L 1631 0 
Q 1553 0 1390 6 
Q 1228 13 1109 16 
Q 991 19 922 19 
Q 847 19 213 0 
z
" transform="scale(0.015625)"/>
       </defs>
       <use xlink:href="#CMUSerif-Roman-4a"/>
       <use xlink:href="#CMUSerif-Roman-75" transform="translate(51.269531 0)"/>
       <use xlink:href="#CMUSerif-Roman-6c" transform="translate(106.738281 0)"/>
      </g>
     </g>
    </g>
    <g id="xtick_19">
     <g id="line2d_59">
      <path d="M 477.424544 615.6075 
L 477.424544 441.388652 
" clip-path="url(#p71ebe69e01)" style="fill: none; stroke: #e0f0e9; stroke-opacity: 0.2; stroke-width: 0.8; stroke-linecap: square"/>
     </g>
     <g id="line2d_60">
      <g>
       <use xlink:href="#m8c734036a8" x="477.424544" y="615.6075" style="fill: #e0f0e9; stroke: #e0f0e9; stroke-width: 0.8"/>
      </g>
     </g>
     <g id="text_19">
      <!-- Sep -->
      <g style="fill: #e0f0e9" transform="translate(468.104857 631.069375) scale(0.12 -0.12)">
       <defs>
        <path id="CMUSerif-Roman-70" d="M 178 -1044 
Q 519 -1044 598 -1001 
Q 678 -959 678 -756 
L 678 2241 
Q 678 2453 598 2506 
Q 519 2559 178 2559 
L 178 2759 
L 1100 2828 
L 1100 2406 
Q 1484 2828 1997 2828 
Q 2541 2828 2937 2406 
Q 3334 1984 3334 1381 
Q 3334 772 2912 350 
Q 2491 -72 1906 -72 
Q 1588 -72 1373 92 
Q 1159 256 1119 378 
L 1119 319 
L 1119 -756 
Q 1119 -963 1200 -1003 
Q 1281 -1044 1619 -1044 
L 1619 -1241 
Q 947 -1222 897 -1222 
Q 834 -1222 178 -1241 
L 178 -1044 
z
M 1119 728 
Q 1119 631 1133 597 
Q 1147 563 1209 459 
Q 1463 72 1875 72 
Q 1878 72 1881 72 
Q 2247 72 2525 445 
Q 2803 819 2803 1381 
Q 2803 1919 2550 2294 
Q 2297 2669 1947 2669 
Q 1697 2669 1478 2534 
Q 1259 2400 1119 2156 
L 1119 728 
z
" transform="scale(0.015625)"/>
       </defs>
       <use xlink:href="#CMUSerif-Roman-53"/>
       <use xlink:href="#CMUSerif-Roman-65" transform="translate(55.46875 0)"/>
       <use xlink:href="#CMUSerif-Roman-70" transform="translate(99.853516 0)"/>
      </g>
     </g>
    </g>
    <g id="xtick_20">
     <g id="line2d_61">
      <path d="M 576.382954 615.6075 
L 576.382954 441.388652 
" clip-path="url(#p71ebe69e01)" style="fill: none; stroke: #e0f0e9; stroke-opacity: 0.2; stroke-width: 0.8; stroke-linecap: square"/>
     </g>
     <g id="line2d_62">
      <g>
       <use xlink:href="#m8c734036a8" x="576.382954" y="615.6075" style="fill: #e0f0e9; stroke: #e0f0e9; stroke-width: 0.8"/>
      </g>
     </g>
     <g id="text_20">
      <!-- Nov -->
      <g style="fill: #e0f0e9" transform="translate(565.721704 630.934375) scale(0.12 -0.12)">
       <defs>
        <path id="CMUSerif-Roman-4e" d="M 213 0 
L 213 197 
Q 444 197 591 242 
Q 738 288 791 373 
Q 844 459 858 517 
Q 872 575 872 672 
L 872 4013 
Q 872 4103 848 4125 
Q 825 4147 716 4159 
Q 525 4172 397 4172 
L 213 4172 
L 213 4372 
L 1300 4372 
Q 1391 4372 1416 4359 
Q 1441 4347 1484 4288 
L 3744 966 
L 3744 3700 
Q 3744 3797 3731 3853 
Q 3719 3909 3664 3996 
Q 3609 4084 3462 4128 
Q 3316 4172 3084 4172 
L 3084 4372 
Q 3756 4353 3832 4353 
Q 3909 4353 4581 4372 
L 4581 4172 
Q 4350 4172 4203 4128 
Q 4056 4084 4003 3996 
Q 3950 3909 3936 3851 
Q 3922 3794 3922 3700 
L 3922 166 
Q 3922 63 3909 31 
Q 3897 0 3834 0 
Q 3791 0 3725 84 
L 1113 3922 
Q 1088 3959 1050 4000 
L 1050 672 
Q 1050 575 1062 517 
Q 1075 459 1129 373 
Q 1184 288 1331 242 
Q 1478 197 1709 197 
L 1709 0 
Q 1038 19 961 19 
Q 884 19 213 0 
z
" transform="scale(0.015625)"/>
        <path id="CMUSerif-Roman-76" d="M 122 2559 
L 122 2759 
Q 409 2741 744 2741 
Q 866 2741 1441 2759 
L 1441 2559 
Q 1075 2559 1075 2394 
Q 1075 2369 1113 2284 
L 1831 500 
L 2484 2131 
Q 2522 2241 2522 2284 
Q 2522 2394 2448 2473 
Q 2375 2553 2216 2559 
L 2216 2759 
Q 2541 2741 2772 2741 
Q 3034 2741 3250 2759 
L 3250 2559 
Q 3059 2559 2925 2473 
Q 2791 2388 2748 2314 
Q 2706 2241 2663 2131 
L 1825 50 
Q 1775 -72 1691 -72 
Q 1634 -72 1611 -48 
Q 1588 -25 1556 50 
L 634 2322 
Q 572 2481 490 2520 
Q 409 2559 122 2559 
z
" transform="scale(0.015625)"/>
       </defs>
       <use xlink:href="#CMUSerif-Roman-4e"/>
       <use xlink:href="#CMUSerif-Roman-6f" transform="translate(75 0)"/>
       <use xlink:href="#CMUSerif-Roman-76" transform="translate(125 0)"/>
      </g>
     </g>
    </g>
    <g id="xtick_21">
     <g id="line2d_63">
      <path d="M 675.341364 615.6075 
L 675.341364 441.388652 
" clip-path="url(#p71ebe69e01)" style="fill: none; stroke: #e0f0e9; stroke-opacity: 0.2; stroke-width: 0.8; stroke-linecap: square"/>
     </g>
     <g id="line2d_64">
      <g>
       <use xlink:href="#m8c734036a8" x="675.341364" y="615.6075" style="fill: #e0f0e9; stroke: #e0f0e9; stroke-width: 0.8"/>
      </g>
     </g>
     <g id="text_21">
      <!-- Jan -->
      <g style="fill: #e0f0e9" transform="translate(665.937301 630.934375) scale(0.12 -0.12)">
       <use xlink:href="#CMUSerif-Roman-4a"/>
       <use xlink:href="#CMUSerif-Roman-61" transform="translate(51.269531 0)"/>
       <use xlink:href="#CMUSerif-Roman-6e" transform="translate(101.269531 0)"/>
      </g>
     </g>
    </g>
   </g>
   <g id="matplotlib.axis_6">
    <g id="ytick_11">
     <g id="line2d_65">
      <path d="M 50.2 607.688461 
L 705.11 607.688461 
" clip-path="url(#p71ebe69e01)" style="fill: none; stroke: #e0f0e9; stroke-opacity: 0.2; stroke-width: 0.8; stroke-linecap: square"/>
     </g>
     <g id="line2d_66">
      <g>
       <use xlink:href="#mdeae4265e6" x="50.2" y="607.688461" style="fill: #e0f0e9; stroke: #e0f0e9; stroke-width: 0.8"/>
      </g>
     </g>
     <g id="text_22">
      <!-- 0 -->
      <g style="fill: #e0f0e9" transform="translate(37.2 611.851899) scale(0.12 -0.12)">
       <use xlink:href="#CMUSerif-Roman-30"/>
      </g>
     </g>
    </g>
    <g id="ytick_12">
     <g id="line2d_67">
      <path d="M 50.2 577.006204 
L 705.11 577.006204 
" clip-path="url(#p71ebe69e01)" style="fill: none; stroke: #e0f0e9; stroke-opacity: 0.2; stroke-width: 0.8; stroke-linecap: square"/>
     </g>
     <g id="line2d_68">
      <g>
       <use xlink:href="#mdeae4265e6" x="50.2" y="577.006204" style="fill: #e0f0e9; stroke: #e0f0e9; stroke-width: 0.8"/>
      </g>
     </g>
     <g id="text_23">
      <!-- 1 -->
      <g style="fill: #e0f0e9" transform="translate(37.2 581.169642) scale(0.12 -0.12)">
       <use xlink:href="#CMUSerif-Roman-31"/>
      </g>
     </g>
    </g>
    <g id="ytick_13">
     <g id="line2d_69">
      <path d="M 50.2 546.323947 
L 705.11 546.323947 
" clip-path="url(#p71ebe69e01)" style="fill: none; stroke: #e0f0e9; stroke-opacity: 0.2; stroke-width: 0.8; stroke-linecap: square"/>
     </g>
     <g id="line2d_70">
      <g>
       <use xlink:href="#mdeae4265e6" x="50.2" y="546.323947" style="fill: #e0f0e9; stroke: #e0f0e9; stroke-width: 0.8"/>
      </g>
     </g>
     <g id="text_24">
      <!-- 2 -->
      <g style="fill: #e0f0e9" transform="translate(37.2 550.487384) scale(0.12 -0.12)">
       <use xlink:href="#CMUSerif-Roman-32"/>
      </g>
     </g>
    </g>
    <g id="ytick_14">
     <g id="line2d_71">
      <path d="M 50.2 515.64169 
L 705.11 515.64169 
" clip-path="url(#p71ebe69e01)" style="fill: none; stroke: #e0f0e9; stroke-opacity: 0.2; stroke-width: 0.8; stroke-linecap: square"/>
     </g>
     <g id="line2d_72">
      <g>
       <use xlink:href="#mdeae4265e6" x="50.2" y="515.64169" style="fill: #e0f0e9; stroke: #e0f0e9; stroke-width: 0.8"/>
      </g>
     </g>
     <g id="text_25">
      <!-- 3 -->
      <g style="fill: #e0f0e9" transform="translate(37.2 519.805127) scale(0.12 -0.12)">
       <use xlink:href="#CMUSerif-Roman-33"/>
      </g>
     </g>
    </g>
    <g id="ytick_15">
     <g id="line2d_73">
      <path d="M 50.2 484.959432 
L 705.11 484.959432 
" clip-path="url(#p71ebe69e01)" style="fill: none; stroke: #e0f0e9; stroke-opacity: 0.2; stroke-width: 0.8; stroke-linecap: square"/>
     </g>
     <g id="line2d_74">
      <g>
       <use xlink:href="#mdeae4265e6" x="50.2" y="484.959432" style="fill: #e0f0e9; stroke: #e0f0e9; stroke-width: 0.8"/>
      </g>
     </g>
     <g id="text_26">
      <!-- 4 -->
      <g style="fill: #e0f0e9" transform="translate(37.2 489.12287) scale(0.12 -0.12)">
       <use xlink:href="#CMUSerif-Roman-34"/>
      </g>
     </g>
    </g>
    <g id="ytick_16">
     <g id="line2d_75">
      <path d="M 50.2 454.277175 
L 705.11 454.277175 
" clip-path="url(#p71ebe69e01)" style="fill: none; stroke: #e0f0e9; stroke-opacity: 0.2; stroke-width: 0.8; stroke-linecap: square"/>
     </g>
     <g id="line2d_76">
      <g>
       <use xlink:href="#mdeae4265e6" x="50.2" y="454.277175" style="fill: #e0f0e9; stroke: #e0f0e9; stroke-width: 0.8"/>
      </g>
     </g>
     <g id="text_27">
      <!-- 5 -->
      <g style="fill: #e0f0e9" transform="translate(37.2 458.440613) scale(0.12 -0.12)">
       <defs>
        <path id="CMUSerif-Roman-35" d="M 319 1031 
Q 319 1222 422 1295 
Q 525 1369 634 1369 
Q 781 1369 867 1276 
Q 953 1184 953 1056 
Q 953 928 867 836 
Q 781 744 634 744 
Q 563 744 525 756 
Q 609 463 867 250 
Q 1125 38 1466 38 
Q 1894 38 2150 453 
Q 2303 722 2303 1331 
Q 2303 1869 2188 2138 
Q 2009 2547 1644 2547 
Q 1125 2547 819 2100 
Q 781 2044 738 2041 
Q 675 2041 661 2077 
Q 647 2113 647 2209 
L 647 4103 
Q 647 4256 709 4256 
Q 734 4256 788 4238 
Q 1191 4059 1638 4056 
Q 2097 4056 2509 4244 
Q 2541 4263 2559 4263 
Q 2622 4263 2625 4191 
Q 2625 4166 2573 4092 
Q 2522 4019 2412 3923 
Q 2303 3828 2162 3737 
Q 2022 3647 1817 3586 
Q 1613 3525 1388 3525 
Q 1119 3525 844 3609 
L 844 2363 
Q 1175 2688 1656 2688 
Q 2169 2688 2522 2275 
Q 2875 1863 2875 1288 
Q 2875 684 2458 271 
Q 2041 -141 1478 -141 
Q 966 -141 642 225 
Q 319 591 319 1031 
z
" transform="scale(0.015625)"/>
       </defs>
       <use xlink:href="#CMUSerif-Roman-35"/>
      </g>
     </g>
    </g>
    <g id="text_28">
     <!-- Volatility -->
     <g style="fill: #e0f0e9" transform="translate(30.327813 557.615889) rotate(-90) scale(0.14 -0.14)">
      <defs>
       <path id="CMUSerif-Roman-56" d="M 122 4172 
L 122 4372 
Q 813 4353 934 4353 
Q 1619 4353 1850 4372 
L 1850 4172 
Q 1325 4172 1325 3988 
Q 1325 3963 1363 3872 
L 2584 641 
L 3756 3725 
Q 3788 3822 3788 3853 
Q 3788 3981 3670 4073 
Q 3553 4166 3322 4172 
L 3322 4372 
Q 3822 4353 4050 4353 
Q 4375 4353 4672 4372 
L 4672 4172 
Q 4134 4166 3975 3744 
L 2547 -19 
Q 2522 -97 2497 -119 
Q 2472 -141 2394 -141 
Q 2331 -141 2298 -116 
Q 2266 -91 2234 0 
L 750 3928 
Q 688 4100 575 4136 
Q 463 4172 122 4172 
z
" transform="scale(0.015625)"/>
      </defs>
      <use xlink:href="#CMUSerif-Roman-56"/>
      <use xlink:href="#CMUSerif-Roman-6f" transform="translate(75 0)"/>
      <use xlink:href="#CMUSerif-Roman-6c" transform="translate(125 0)"/>
      <use xlink:href="#CMUSerif-Roman-61" transform="translate(152.685547 0)"/>
      <use xlink:href="#CMUSerif-Roman-74" transform="translate(202.685547 0)"/>
      <use xlink:href="#CMUSerif-Roman-69" transform="translate(241.455078 0)"/>
      <use xlink:href="#CMUSerif-Roman-6c" transform="translate(269.140625 0)"/>
      <use xlink:href="#CMUSerif-Roman-69" transform="translate(296.826172 0)"/>
      <use xlink:href="#CMUSerif-Roman-74" transform="translate(324.511719 0)"/>
      <use xlink:href="#CMUSerif-Roman-79" transform="translate(363.28125 0)"/>
     </g>
    </g>
   </g>
   <g id="line2d_77">
    <path d="M 79.968636 578.222272 
L 81.590905 607.688461 
L 83.213174 604.005188 
L 84.835443 604.005188 
L 86.457712 600.321914 
L 88.079981 607.688461 
L 89.70225 600.321914 
L 91.324519 607.688461 
L 94.569057 592.955367 
L 96.191326 596.63864 
L 97.813595 596.63864 
L 99.435865 607.688461 
L 101.058134 607.688461 
L 102.680403 600.321914 
L 104.302672 604.005188 
L 107.54721 604.005188 
L 109.169479 600.321914 
L 110.791748 604.005188 
L 112.414017 604.005188 
L 114.036286 596.63864 
L 115.658555 578.222272 
L 117.280824 604.005188 
L 118.903093 607.688461 
L 120.525362 600.321914 
L 122.147631 604.005188 
L 123.7699 604.005188 
L 125.392169 607.688461 
L 127.014438 607.688461 
L 128.636707 600.321914 
L 130.258976 596.63864 
L 133.503514 604.005188 
L 135.125783 600.321914 
L 136.748052 600.321914 
L 138.370321 607.688461 
L 139.99259 596.63864 
L 141.614859 604.005188 
L 146.481666 604.005188 
L 148.103935 585.588819 
L 149.726204 607.688461 
L 151.348473 604.005188 
L 152.970742 607.688461 
L 154.593011 600.321914 
L 156.21528 600.321914 
L 157.837549 607.688461 
L 159.459818 600.321914 
L 162.704356 607.688461 
L 164.326625 600.321914 
L 165.948894 604.005188 
L 169.193432 596.63864 
L 170.815701 604.005188 
L 172.43797 604.005188 
L 174.060239 607.688461 
L 175.682508 600.321914 
L 177.304777 585.588819 
L 178.927046 585.588819 
L 180.549315 604.005188 
L 182.171584 607.688461 
L 183.793853 604.005188 
L 185.416122 604.005188 
L 188.66066 596.63864 
L 190.282929 607.688461 
L 191.905198 604.005188 
L 200.016543 604.005188 
L 203.261081 596.63864 
L 204.88335 600.321914 
L 206.505619 600.321914 
L 208.127888 607.688461 
L 209.750157 600.321914 
L 211.372426 607.688461 
L 214.616964 592.955367 
L 216.239233 600.321914 
L 217.861502 600.321914 
L 219.483771 604.005188 
L 221.10604 596.63864 
L 222.728309 592.955367 
L 224.350578 604.005188 
L 225.972847 589.272093 
L 227.595116 607.688461 
L 229.217385 607.688461 
L 230.839654 596.63864 
L 232.461923 596.63864 
L 234.084192 604.005188 
L 235.706461 604.005188 
L 237.32873 596.63864 
L 238.951 607.688461 
L 240.573269 607.688461 
L 242.195538 604.005188 
L 243.817807 585.588819 
L 245.440076 570.855724 
L 247.062345 567.17245 
L 248.684614 607.688461 
L 250.306883 592.955367 
L 251.929152 607.688461 
L 253.551421 607.688461 
L 255.17369 600.321914 
L 256.795959 607.688461 
L 258.418228 600.321914 
L 260.040497 604.005188 
L 261.662766 596.63864 
L 263.285035 607.688461 
L 268.151842 607.688461 
L 269.774111 592.955367 
L 271.39638 596.63864 
L 273.018649 604.005188 
L 274.640918 589.272093 
L 276.263187 585.588819 
L 277.885456 589.272093 
L 279.507725 604.005188 
L 284.374532 604.005188 
L 285.996801 592.955367 
L 287.61907 607.688461 
L 289.241339 581.905545 
L 290.863608 592.955367 
L 294.108146 600.321914 
L 295.730415 600.321914 
L 297.352684 607.688461 
L 298.974953 604.005188 
L 300.597222 607.688461 
L 302.219491 604.005188 
L 303.84176 607.688461 
L 305.464029 604.005188 
L 307.086298 592.955367 
L 308.708567 607.688461 
L 310.330836 596.63864 
L 311.953105 604.005188 
L 313.575374 607.688461 
L 315.197643 604.005188 
L 316.819912 592.955367 
L 318.442181 607.688461 
L 320.06445 600.321914 
L 321.686719 600.321914 
L 323.308988 596.63864 
L 324.931257 604.005188 
L 326.553526 600.321914 
L 329.798064 607.688461 
L 331.420333 607.688461 
L 333.042602 604.005188 
L 334.664871 607.688461 
L 336.28714 600.321914 
L 337.909409 604.005188 
L 339.531678 596.63864 
L 341.153947 600.321914 
L 342.776216 607.688461 
L 344.398485 596.63864 
L 346.020754 604.005188 
L 347.643023 449.307691 
L 349.265292 596.63864 
L 350.887561 604.005188 
L 352.50983 508.240071 
L 354.132099 589.272093 
L 355.754368 570.855724 
L 357.376637 581.905545 
L 358.998906 581.905545 
L 360.621175 592.955367 
L 362.243444 563.489177 
L 363.865713 493.506976 
L 365.487982 600.321914 
L 367.110251 604.005188 
L 368.73252 596.63864 
L 370.354789 585.588819 
L 371.977058 600.321914 
L 373.599327 607.688461 
L 375.221596 585.588819 
L 378.466135 600.321914 
L 380.088404 592.955367 
L 381.710673 607.688461 
L 383.332942 581.905545 
L 384.955211 607.688461 
L 386.57748 596.63864 
L 388.199749 600.321914 
L 389.822018 585.588819 
L 391.444287 607.688461 
L 393.066556 600.321914 
L 394.688825 607.688461 
L 397.933363 607.688461 
L 399.555632 600.321914 
L 401.177901 607.688461 
L 402.80017 600.321914 
L 404.422439 607.688461 
L 410.911515 607.688461 
L 412.533784 600.321914 
L 414.156053 607.688461 
L 415.778322 607.688461 
L 417.400591 600.321914 
L 419.02286 604.005188 
L 420.645129 604.005188 
L 422.267398 607.688461 
L 425.511936 607.688461 
L 427.134205 600.321914 
L 428.756474 600.321914 
L 430.378743 607.688461 
L 435.24555 607.688461 
L 436.867819 600.321914 
L 438.490088 607.688461 
L 440.112357 600.321914 
L 441.734626 607.688461 
L 443.356895 604.005188 
L 444.979164 604.005188 
L 446.601433 607.688461 
L 449.845971 607.688461 
L 451.46824 604.005188 
L 453.090509 604.005188 
L 454.712778 607.688461 
L 457.957316 607.688461 
L 459.579585 600.321914 
L 461.201854 600.321914 
L 462.824123 604.005188 
L 464.446392 604.005188 
L 466.068661 600.321914 
L 467.69093 600.321914 
L 469.313199 607.688461 
L 475.802275 607.688461 
L 477.424544 600.321914 
L 479.046813 604.005188 
L 480.669082 604.005188 
L 482.291351 607.688461 
L 483.91362 607.688461 
L 485.535889 604.005188 
L 487.158158 607.688461 
L 488.780427 607.688461 
L 490.402696 604.005188 
L 492.024965 607.688461 
L 498.514041 607.688461 
L 500.13631 600.321914 
L 501.758579 607.688461 
L 503.380848 600.321914 
L 505.003117 596.63864 
L 506.625386 596.63864 
L 508.247655 607.688461 
L 509.869924 600.321914 
L 513.114462 607.688461 
L 514.736731 604.005188 
L 516.359 607.688461 
L 519.603539 607.688461 
L 521.225808 596.63864 
L 524.470346 604.005188 
L 526.092615 604.005188 
L 527.714884 589.272093 
L 530.959422 604.005188 
L 532.581691 600.321914 
L 534.20396 607.688461 
L 535.826229 607.688461 
L 537.448498 600.321914 
L 539.070767 607.688461 
L 540.693036 600.321914 
L 542.315305 607.688461 
L 543.937574 600.321914 
L 545.559843 607.688461 
L 552.048919 607.688461 
L 553.671188 600.321914 
L 561.782533 600.321914 
L 563.404802 604.005188 
L 565.027071 604.005188 
L 566.64934 607.688461 
L 568.271609 607.688461 
L 569.893878 596.63864 
L 571.516147 604.005188 
L 573.138416 600.321914 
L 578.005223 600.321914 
L 579.627492 607.688461 
L 581.249761 607.688461 
L 582.87203 592.955367 
L 584.494299 600.321914 
L 586.116568 600.321914 
L 587.738837 607.688461 
L 589.361106 600.321914 
L 590.983375 607.688461 
L 595.850182 607.688461 
L 597.472451 604.005188 
L 599.09472 604.005188 
L 600.716989 607.688461 
L 602.339258 600.321914 
L 603.961527 600.321914 
L 605.583796 607.688461 
L 607.206065 607.688461 
L 608.828334 600.321914 
L 610.450603 600.321914 
L 612.072872 607.688461 
L 613.695141 607.688461 
L 615.31741 600.321914 
L 616.939679 607.688461 
L 618.561948 605.846825 
L 620.184217 602.900206 
L 621.806486 604.373515 
L 623.428755 602.531878 
L 625.051024 605.846825 
L 628.295562 602.163551 
L 629.917831 605.478497 
L 631.5401 605.478497 
L 633.162369 607.320134 
L 634.784638 604.741842 
L 636.406907 601.795223 
L 638.029176 604.741842 
L 639.651445 606.583479 
L 641.273714 603.268533 
L 642.895983 606.215152 
L 647.76279 607.320134 
L 649.385059 602.900206 
L 651.007328 603.268533 
L 652.629597 607.320134 
L 654.251866 606.583479 
L 655.874135 604.373515 
L 657.496405 607.320134 
L 659.118674 606.215152 
L 660.740943 606.215152 
L 663.985481 607.688461 
L 665.60775 606.951807 
L 667.230019 606.583479 
L 668.852288 607.320134 
L 670.474557 607.320134 
L 672.096826 606.215152 
L 673.719095 606.951807 
L 673.719095 606.951807 
" clip-path="url(#p71ebe69e01)" style="fill: none; stroke: #ff7f50; stroke-opacity: 0.5; stroke-width: 2; stroke-linecap: square"/>
   </g>
   <g id="line2d_78">
    <path d="M 79.968636 595.315491 
L 81.590905 594.376449 
L 83.213174 594.380144 
L 84.835443 594.501617 
L 86.457712 594.387646 
L 88.079981 594.156108 
L 89.70225 594.16002 
L 91.324519 593.928762 
L 92.946788 593.932822 
L 94.569057 593.701852 
L 96.191326 593.236066 
L 99.435865 593.949464 
L 102.680403 593.958035 
L 104.302672 593.727749 
L 105.924941 593.614937 
L 109.169479 593.858486 
L 110.791748 594.097377 
L 112.414017 594.219031 
L 114.036286 594.10648 
L 115.658555 594.462237 
L 117.280824 593.530733 
L 118.903093 593.418681 
L 120.525362 593.423685 
L 122.147631 593.662503 
L 123.7699 593.784364 
L 125.392169 593.672591 
L 128.636707 593.682879 
L 130.258976 593.921439 
L 131.881245 593.576746 
L 133.503514 593.815277 
L 135.125783 593.704073 
L 136.748052 593.942485 
L 138.370321 593.714986 
L 139.99259 593.720524 
L 141.614859 594.075176 
L 143.237128 594.196988 
L 144.859397 594.086243 
L 146.481666 594.20807 
L 148.103935 594.097531 
L 149.726204 593.406582 
L 151.348473 593.412663 
L 152.970742 593.534817 
L 154.593011 593.540968 
L 156.21528 593.779005 
L 157.837549 593.553454 
L 159.459818 593.55979 
L 161.082087 593.7977 
L 162.704356 593.919759 
L 164.326625 593.926124 
L 165.948894 594.163744 
L 167.571163 594.285667 
L 169.193432 594.061085 
L 170.815701 594.413941 
L 172.43797 594.305028 
L 174.060239 594.426927 
L 175.682508 594.433516 
L 177.304777 594.209766 
L 180.549315 592.842487 
L 182.171584 592.9652 
L 183.793853 592.972904 
L 185.416122 592.86578 
L 187.038391 592.988541 
L 188.66066 593.226038 
L 190.282929 593.578082 
L 191.905198 593.585858 
L 193.527467 593.47912 
L 195.149736 593.601642 
L 196.772005 593.495189 
L 198.394274 593.617739 
L 200.016543 593.511578 
L 201.638812 593.634156 
L 203.261081 593.414097 
L 204.88335 593.765026 
L 206.505619 594.001568 
L 208.127888 593.781963 
L 209.750157 593.790558 
L 211.372426 593.571545 
L 212.994695 593.580454 
L 214.616964 593.816854 
L 216.239233 593.37128 
L 217.861502 593.607712 
L 219.483771 593.390019 
L 221.10604 593.286124 
L 222.728309 593.635787 
L 224.350578 593.192326 
L 225.972847 593.315449 
L 227.595116 592.759944 
L 230.839654 592.780975 
L 232.461923 593.13021 
L 234.084192 592.802424 
L 235.706461 592.925998 
L 237.32873 592.824299 
L 238.951 592.497829 
L 242.195538 592.520872 
L 243.817807 592.420298 
L 245.440076 591.759122 
L 247.062345 590.650764 
L 248.684614 591.896333 
L 250.306883 591.909035 
L 251.929152 591.474583 
L 255.17369 591.501359 
L 256.795959 591.291862 
L 258.418228 591.305772 
L 260.040497 591.542523 
L 261.662766 591.445261 
L 263.285035 591.792962 
L 269.774111 591.850101 
L 273.018649 592.653389 
L 274.640918 592.778036 
L 279.507725 591.059112 
L 285.996801 591.564433 
L 287.61907 591.14274 
L 289.241339 591.159965 
L 290.863608 591.942776 
L 294.108146 591.212668 
L 295.730415 591.448569 
L 297.352684 591.248677 
L 302.219491 591.195531 
L 307.086298 591.03667 
L 308.708567 590.624437 
L 310.330836 590.644919 
L 311.953105 590.988822 
L 315.197643 590.922536 
L 316.819912 591.050909 
L 318.442181 591.500826 
L 320.06445 591.521591 
L 321.686719 591.756414 
L 326.553526 591.180716 
L 328.175795 591.415819 
L 331.420333 591.354613 
L 339.531678 591.471455 
L 341.153947 591.180074 
L 342.776216 591.414834 
L 344.398485 591.439537 
L 346.020754 591.778497 
L 347.643023 591.698696 
L 349.265292 596.210608 
L 350.887561 596.541378 
L 352.50983 596.45528 
L 354.132099 599.27727 
L 355.754368 599.809455 
L 357.376637 598.787572 
L 358.998906 599.52582 
L 360.621175 598.817671 
L 362.243444 599.244828 
L 363.865713 598.026033 
L 365.487982 594.862127 
L 367.110251 595.089846 
L 368.73252 595.010323 
L 370.354789 594.727284 
L 371.977058 594.140001 
L 373.599327 594.36866 
L 375.221596 594.393828 
L 376.843865 593.811496 
L 378.466135 593.433957 
L 380.088404 593.663655 
L 381.710673 594.094224 
L 383.332942 594.121469 
L 384.955211 593.446936 
L 386.57748 593.476163 
L 388.199749 593.805316 
L 389.822018 593.635156 
L 391.444287 593.068305 
L 393.066556 593.099776 
L 394.688825 592.933504 
L 399.555632 593.032068 
L 401.177901 593.261855 
L 402.80017 593.295239 
L 404.422439 593.133585 
L 412.533784 593.309581 
L 414.156053 593.153312 
L 417.400591 593.227878 
L 419.02286 593.456744 
L 423.889667 593.381483 
L 427.134205 593.460582 
L 430.378743 593.166491 
L 436.867819 593.337072 
L 438.490088 593.196161 
L 440.112357 593.240871 
L 441.734626 593.102547 
L 444.979164 593.286505 
L 448.223702 593.471117 
L 459.579585 593.813099 
L 461.201854 593.687795 
L 462.824123 593.915215 
L 467.69093 593.72528 
L 469.313199 593.607235 
L 477.424544 593.892582 
L 480.669082 593.758971 
L 483.91362 593.798494 
L 490.402696 594.134419 
L 493.647234 594.345437 
L 500.13631 594.611934 
L 501.758579 594.8379 
L 503.380848 594.906006 
L 506.625386 594.656409 
L 508.247655 594.497301 
L 509.869924 594.571621 
L 511.492193 594.799225 
L 516.359 594.876362 
L 521.225808 595.112913 
L 522.848077 595.412539 
L 526.092615 595.356551 
L 527.714884 595.367737 
L 529.337153 595.807585 
L 530.959422 595.67813 
L 532.581691 595.833087 
L 534.20396 595.77893 
L 537.448498 595.953793 
L 539.070767 596.178726 
L 540.693036 596.26729 
L 542.315305 596.222618 
L 543.937574 596.314005 
L 545.559843 596.274327 
L 561.782533 597.139735 
L 563.404802 597.125625 
L 565.027071 597.292188 
L 568.271609 597.451304 
L 569.893878 597.562021 
L 571.516147 597.843567 
L 576.382954 597.906629 
L 579.627492 597.929701 
L 582.87203 598.176165 
L 584.494299 598.096034 
L 586.116568 598.326312 
L 590.983375 598.522985 
L 602.339258 599.501337 
L 603.961527 599.731776 
L 607.206065 599.941689 
L 638.029176 602.86248 
L 649.385059 604.212176 
L 655.874135 605.026599 
L 665.60775 606.311318 
L 675.341364 607.688461 
L 675.341364 607.688461 
" clip-path="url(#p71ebe69e01)" style="fill: none; stroke: #e6bb12; stroke-width: 2; stroke-linecap: square"/>
   </g>
   <g id="patch_13">
    <path d="M 50.2 615.6075 
L 50.2 441.388652 
" style="fill: none; stroke: #e0f0e9; stroke-linejoin: miter; stroke-linecap: square"/>
   </g>
   <g id="patch_14">
    <path d="M 705.11 615.6075 
L 705.11 441.388652 
" style="fill: none; stroke: #e0f0e9; stroke-linejoin: miter; stroke-linecap: square"/>
   </g>
   <g id="patch_15">
    <path d="M 50.2 615.6075 
L 705.11 615.6075 
" style="fill: none; stroke: #e0f0e9; stroke-linejoin: miter; stroke-linecap: square"/>
   </g>
   <g id="patch_16">
    <path d="M 50.2 441.388652 
L 705.11 441.388652 
" style="fill: none; stroke: #e0f0e9; stroke-linejoin: miter; stroke-linecap: square"/>
   </g>
   <g id="text_29">
    <!-- Volatility Reconstruction -->
    <g style="fill: #e0f0e9" transform="translate(289.17375 435.388652) scale(0.16 -0.16)">
     <use xlink:href="#CMUSerif-Roman-56"/>
     <use xlink:href="#CMUSerif-Roman-6f" transform="translate(75 0)"/>
     <use xlink:href="#CMUSerif-Roman-6c" transform="translate(125 0)"/>
     <use xlink:href="#CMUSerif-Roman-61" transform="translate(152.685547 0)"/>
     <use xlink:href="#CMUSerif-Roman-74" transform="translate(202.685547 0)"/>
     <use xlink:href="#CMUSerif-Roman-69" transform="translate(241.455078 0)"/>
     <use xlink:href="#CMUSerif-Roman-6c" transform="translate(269.140625 0)"/>
     <use xlink:href="#CMUSerif-Roman-69" transform="translate(296.826172 0)"/>
     <use xlink:href="#CMUSerif-Roman-74" transform="translate(324.511719 0)"/>
     <use xlink:href="#CMUSerif-Roman-79" transform="translate(363.28125 0)"/>
     <use xlink:href="#CMUSerif-Roman-20" transform="translate(415.966797 0)"/>
     <use xlink:href="#CMUSerif-Roman-52" transform="translate(449.21875 0)"/>
     <use xlink:href="#CMUSerif-Roman-65" transform="translate(522.802734 0)"/>
     <use xlink:href="#CMUSerif-Roman-63" transform="translate(567.1875 0)"/>
     <use xlink:href="#CMUSerif-Roman-6f" transform="translate(611.572266 0)"/>
     <use xlink:href="#CMUSerif-Roman-6e" transform="translate(661.572266 0)"/>
     <use xlink:href="#CMUSerif-Roman-73" transform="translate(717.041016 0)"/>
     <use xlink:href="#CMUSerif-Roman-74" transform="translate(756.396484 0)"/>
     <use xlink:href="#CMUSerif-Roman-72" transform="translate(795.166016 0)"/>
     <use xlink:href="#CMUSerif-Roman-75" transform="translate(834.228516 0)"/>
     <use xlink:href="#CMUSerif-Roman-63" transform="translate(889.697266 0)"/>
     <use xlink:href="#CMUSerif-Roman-74" transform="translate(934.082031 0)"/>
     <use xlink:href="#CMUSerif-Roman-69" transform="translate(972.851562 0)"/>
     <use xlink:href="#CMUSerif-Roman-6f" transform="translate(1000.537109 0)"/>
     <use xlink:href="#CMUSerif-Roman-6e" transform="translate(1050.537109 0)"/>
    </g>
   </g>
   <g id="legend_1">
    <g id="patch_17">
     <path d="M 593.625 480.85459 
L 697.41 480.85459 
Q 699.61 480.85459 699.61 478.65459 
L 699.61 449.088652 
Q 699.61 446.888652 697.41 446.888652 
L 593.625 446.888652 
Q 591.425 446.888652 591.425 449.088652 
L 591.425 478.65459 
Q 591.425 480.85459 593.625 480.85459 
z
" style="fill: #274c43; opacity: 0.95; stroke: #e0f0e9; stroke-linejoin: miter"/>
    </g>
    <g id="line2d_79">
     <path d="M 595.825 455.138652 
L 606.825 455.138652 
L 617.825 455.138652 
" style="fill: none; stroke: #ff7f50; stroke-opacity: 0.5; stroke-width: 2; stroke-linecap: square"/>
    </g>
    <g id="text_30">
     <!-- Realized -->
     <g style="fill: #e0f0e9" transform="translate(626.625 458.988652) scale(0.11 -0.11)">
      <defs>
       <path id="CMUSerif-Roman-7a" d="M 178 91 
Q 178 134 238 206 
L 2022 2619 
L 1294 2619 
Q 788 2619 623 2433 
Q 459 2247 428 1728 
L 269 1728 
L 341 2759 
L 2388 2759 
Q 2459 2759 2487 2756 
Q 2516 2753 2534 2733 
Q 2553 2713 2553 2675 
Q 2553 2638 2497 2566 
L 716 159 
L 1472 159 
Q 2003 159 2183 381 
Q 2363 603 2406 1197 
L 2566 1197 
L 2456 0 
L 347 0 
Q 244 0 211 14 
Q 178 28 178 91 
z
" transform="scale(0.015625)"/>
       <path id="CMUSerif-Roman-64" d="M 219 1375 
Q 219 1984 644 2406 
Q 1069 2828 1644 2828 
Q 2131 2828 2450 2431 
L 2450 3816 
Q 2450 4053 2367 4112 
Q 2284 4172 1953 4172 
L 1953 4372 
L 2875 4441 
L 2875 556 
Q 2875 319 2958 258 
Q 3041 197 3372 197 
L 3372 0 
L 2431 -72 
L 2431 353 
Q 2100 -69 1575 -72 
Q 1025 -72 622 350 
Q 219 772 219 1375 
z
M 750 1369 
Q 750 775 934 481 
Q 1191 72 1606 72 
Q 2081 72 2363 519 
Q 2434 628 2431 756 
L 2431 2069 
Q 2431 2197 2363 2303 
Q 2100 2688 1672 2688 
Q 1225 2688 947 2278 
Q 750 1972 750 1369 
z
" transform="scale(0.015625)"/>
      </defs>
      <use xlink:href="#CMUSerif-Roman-52"/>
      <use xlink:href="#CMUSerif-Roman-65" transform="translate(73.583984 0)"/>
      <use xlink:href="#CMUSerif-Roman-61" transform="translate(117.96875 0)"/>
      <use xlink:href="#CMUSerif-Roman-6c" transform="translate(167.96875 0)"/>
      <use xlink:href="#CMUSerif-Roman-69" transform="translate(195.654297 0)"/>
      <use xlink:href="#CMUSerif-Roman-7a" transform="translate(223.339844 0)"/>
      <use xlink:href="#CMUSerif-Roman-65" transform="translate(267.724609 0)"/>
      <use xlink:href="#CMUSerif-Roman-64" transform="translate(312.109375 0)"/>
     </g>
    </g>
    <g id="line2d_80">
     <path d="M 595.825 470.471621 
L 606.825 470.471621 
L 617.825 470.471621 
" style="fill: none; stroke: #e6bb12; stroke-width: 2; stroke-linecap: square"/>
    </g>
    <g id="text_31">
     <!-- Reconstructed -->
     <g style="fill: #e0f0e9" transform="translate(626.625 474.321621) scale(0.11 -0.11)">
      <use xlink:href="#CMUSerif-Roman-52"/>
      <use xlink:href="#CMUSerif-Roman-65" transform="translate(73.583984 0)"/>
      <use xlink:href="#CMUSerif-Roman-63" transform="translate(117.96875 0)"/>
      <use xlink:href="#CMUSerif-Roman-6f" transform="translate(162.353516 0)"/>
      <use xlink:href="#CMUSerif-Roman-6e" transform="translate(212.353516 0)"/>
      <use xlink:href="#CMUSerif-Roman-73" transform="translate(267.822266 0)"/>
      <use xlink:href="#CMUSerif-Roman-74" transform="translate(307.177734 0)"/>
      <use xlink:href="#CMUSerif-Roman-72" transform="translate(345.947266 0)"/>
      <use xlink:href="#CMUSerif-Roman-75" transform="translate(385.009766 0)"/>
      <use xlink:href="#CMUSerif-Roman-63" transform="translate(440.478516 0)"/>
      <use xlink:href="#CMUSerif-Roman-74" transform="translate(484.863281 0)"/>
      <use xlink:href="#CMUSerif-Roman-65" transform="translate(523.632812 0)"/>
      <use xlink:href="#CMUSerif-Roman-64" transform="translate(568.017578 0)"/>
     </g>
    </g>
   </g>
  </g>
 </g>
 <defs>
  <clipPath id="pae1adaf364">
   <rect x="50.2" y="24.3025" width="654.91" height="174.218848"/>
  </clipPath>
  <clipPath id="p319efcb580">
   <rect x="50.2" y="232.845576" width="654.91" height="174.218848"/>
  </clipPath>
  <clipPath id="p71ebe69e01">
   <rect x="50.2" y="441.388652" width="654.91" height="174.218848"/>
  </clipPath>
 </defs>
</svg>
