<?xml version="1.0" encoding="utf-8" standalone="no"?>
<!DOCTYPE svg PUBLIC "-//W3C//DTD SVG 1.1//EN"
  "http://www.w3.org/Graphics/SVG/1.1/DTD/svg11.dtd">
<svg xmlns:xlink="http://www.w3.org/1999/xlink" width="576pt" height="324pt" viewBox="0 0 576 324" xmlns="http://www.w3.org/2000/svg" version="1.1">
 <metadata>
  <rdf:RDF xmlns:dc="http://purl.org/dc/elements/1.1/" xmlns:cc="http://creativecommons.org/ns#" xmlns:rdf="http://www.w3.org/1999/02/22-rdf-syntax-ns#">
   <cc:Work>
    <dc:type rdf:resource="http://purl.org/dc/dcmitype/StillImage"/>
    <dc:date>2025-10-01T08:44:13.581739</dc:date>
    <dc:format>image/svg+xml</dc:format>
    <dc:creator>
     <cc:Agent>
      <dc:title>Matplotlib v3.10.5, https://matplotlib.org/</dc:title>
     </cc:Agent>
    </dc:creator>
   </cc:Work>
  </rdf:RDF>
 </metadata>
 <defs>
  <style type="text/css">*{stroke-linejoin: round; stroke-linecap: butt}</style>
 </defs>
 <g id="figure_1">
  <g id="patch_1">
   <path d="M 0 324 
L 576 324 
L 576 0 
L 0 0 
z
" style="fill: #274c43"/>
  </g>
  <g id="axes_1">
   <g id="patch_2">
    <path d="M 165.885 277.6525 
L 410.115 277.6525 
L 410.115 33.4225 
L 165.885 33.4225 
z
" style="fill: #274c43"/>
   </g>
   <g id="matplotlib.axis_1">
    <g id="xtick_1">
     <g id="line2d_1">
      <path d="M 165.885 277.6525 
L 165.885 33.4225 
" clip-path="url(#pd0c8f6e7cc)" style="fill: none; stroke-dasharray: 2.96,1.28; stroke-dashoffset: 0; stroke: #e0f0e9; stroke-opacity: 0.12; stroke-width: 0.8"/>
     </g>
     <g id="line2d_2">
      <defs>
       <path id="md2707596e4" d="M 0 0 
L 0 3.5 
" style="stroke: #e0f0e9; stroke-width: 0.8"/>
      </defs>
      <g>
       <use xlink:href="#md2707596e4" x="165.885" y="277.6525" style="fill: #e0f0e9; stroke: #e0f0e9; stroke-width: 0.8"/>
      </g>
     </g>
     <g id="text_1">
      <!-- 0.0 -->
      <g style="fill: #e0f0e9" transform="translate(159.495937 291.591563) scale(0.1 -0.1)">
       <defs>
        <path id="CMUSerif-Roman-30" d="M 250 2047 
Q 250 2988 488 3500 
Q 819 4263 1600 4263 
Q 1766 4263 1939 4217 
Q 2113 4172 2333 4000 
Q 2553 3828 2688 3547 
Q 2944 3003 2944 2047 
Q 2944 1113 2706 603 
Q 2359 -141 1594 -141 
Q 1306 -141 1014 6 
Q 722 153 538 506 
Q 250 1034 250 2047 
z
M 781 2125 
Q 781 1159 850 775 
Q 928 359 1142 179 
Q 1356 0 1594 0 
Q 1850 0 2064 192 
Q 2278 384 2344 800 
Q 2416 1209 2413 2125 
Q 2413 3016 2350 3372 
Q 2266 3788 2042 3955 
Q 1819 4122 1594 4122 
Q 1509 4122 1420 4097 
Q 1331 4072 1203 4000 
Q 1075 3928 976 3750 
Q 878 3572 831 3303 
Q 781 2956 781 2125 
z
" transform="scale(0.015625)"/>
        <path id="CMUSerif-Roman-2e" d="M 641 103 
Q 544 206 544 340 
Q 544 475 641 573 
Q 738 672 884 672 
Q 1025 672 1120 580 
Q 1216 488 1216 339 
Q 1216 191 1114 95 
Q 1013 0 884 0 
Q 738 0 641 103 
z
" transform="scale(0.015625)"/>
       </defs>
       <use xlink:href="#CMUSerif-Roman-30"/>
       <use xlink:href="#CMUSerif-Roman-2e" transform="translate(50 0)"/>
       <use xlink:href="#CMUSerif-Roman-30" transform="translate(77.783203 0)"/>
      </g>
     </g>
    </g>
    <g id="xtick_2">
     <g id="line2d_3">
      <path d="M 214.731 277.6525 
L 214.731 33.4225 
" clip-path="url(#pd0c8f6e7cc)" style="fill: none; stroke-dasharray: 2.96,1.28; stroke-dashoffset: 0; stroke: #e0f0e9; stroke-opacity: 0.12; stroke-width: 0.8"/>
     </g>
     <g id="line2d_4">
      <g>
       <use xlink:href="#md2707596e4" x="214.731" y="277.6525" style="fill: #e0f0e9; stroke: #e0f0e9; stroke-width: 0.8"/>
      </g>
     </g>
     <g id="text_2">
      <!-- 0.2 -->
      <g style="fill: #e0f0e9" transform="translate(208.341937 291.591563) scale(0.1 -0.1)">
       <defs>
        <path id="CMUSerif-Roman-32" d="M 319 0 
Q 319 116 330 150 
Q 341 184 391 238 
L 1619 1606 
Q 2291 2363 2291 3022 
Q 2291 3450 2067 3756 
Q 1844 4063 1434 4063 
Q 1153 4063 915 3891 
Q 678 3719 569 3413 
Q 588 3419 653 3419 
Q 813 3419 902 3319 
Q 991 3219 991 3084 
Q 991 2913 880 2830 
Q 769 2747 659 2747 
Q 616 2747 558 2756 
Q 500 2766 409 2855 
Q 319 2944 319 3103 
Q 319 3550 658 3906 
Q 997 4263 1516 4263 
Q 2103 4263 2489 3914 
Q 2875 3566 2875 3022 
Q 2875 2831 2817 2657 
Q 2759 2484 2682 2350 
Q 2606 2216 2400 2000 
Q 2194 1784 2028 1631 
Q 1863 1478 1491 1153 
L 813 494 
L 1966 494 
Q 2528 494 2572 544 
Q 2634 634 2713 1113 
L 2875 1113 
L 2694 0 
L 319 0 
z
" transform="scale(0.015625)"/>
       </defs>
       <use xlink:href="#CMUSerif-Roman-30"/>
       <use xlink:href="#CMUSerif-Roman-2e" transform="translate(50 0)"/>
       <use xlink:href="#CMUSerif-Roman-32" transform="translate(77.783203 0)"/>
      </g>
     </g>
    </g>
    <g id="xtick_3">
     <g id="line2d_5">
      <path d="M 263.577 277.6525 
L 263.577 33.4225 
" clip-path="url(#pd0c8f6e7cc)" style="fill: none; stroke-dasharray: 2.96,1.28; stroke-dashoffset: 0; stroke: #e0f0e9; stroke-opacity: 0.12; stroke-width: 0.8"/>
     </g>
     <g id="line2d_6">
      <g>
       <use xlink:href="#md2707596e4" x="263.577" y="277.6525" style="fill: #e0f0e9; stroke: #e0f0e9; stroke-width: 0.8"/>
      </g>
     </g>
     <g id="text_3">
      <!-- 0.4 -->
      <g style="fill: #e0f0e9" transform="translate(257.187937 291.591563) scale(0.1 -0.1)">
       <defs>
        <path id="CMUSerif-Roman-34" d="M 178 1056 
L 178 1253 
L 2144 4256 
Q 2194 4334 2272 4331 
Q 2344 4331 2359 4303 
Q 2375 4275 2375 4166 
L 2375 1253 
L 3016 1253 
L 3016 1056 
L 2375 1056 
L 2375 500 
Q 2375 316 2451 256 
Q 2528 197 2859 197 
L 2994 197 
L 2994 0 
Q 2731 19 2125 19 
Q 1522 19 1259 0 
L 1259 197 
L 1394 197 
Q 1725 197 1803 255 
Q 1881 313 1881 500 
L 1881 1056 
L 178 1056 
z
M 359 1253 
L 1919 1253 
L 1919 3641 
L 359 1253 
z
" transform="scale(0.015625)"/>
       </defs>
       <use xlink:href="#CMUSerif-Roman-30"/>
       <use xlink:href="#CMUSerif-Roman-2e" transform="translate(50 0)"/>
       <use xlink:href="#CMUSerif-Roman-34" transform="translate(77.783203 0)"/>
      </g>
     </g>
    </g>
    <g id="xtick_4">
     <g id="line2d_7">
      <path d="M 312.423 277.6525 
L 312.423 33.4225 
" clip-path="url(#pd0c8f6e7cc)" style="fill: none; stroke-dasharray: 2.96,1.28; stroke-dashoffset: 0; stroke: #e0f0e9; stroke-opacity: 0.12; stroke-width: 0.8"/>
     </g>
     <g id="line2d_8">
      <g>
       <use xlink:href="#md2707596e4" x="312.423" y="277.6525" style="fill: #e0f0e9; stroke: #e0f0e9; stroke-width: 0.8"/>
      </g>
     </g>
     <g id="text_4">
      <!-- 0.6 -->
      <g style="fill: #e0f0e9" transform="translate(306.033937 291.591563) scale(0.1 -0.1)">
       <defs>
        <path id="CMUSerif-Roman-36" d="M 269 2022 
Q 269 3028 781 3645 
Q 1294 4263 1953 4263 
Q 2338 4263 2552 4067 
Q 2766 3872 2766 3572 
Q 2766 3406 2669 3334 
Q 2572 3263 2472 3263 
Q 2356 3263 2265 3341 
Q 2175 3419 2175 3559 
Q 2175 3847 2528 3847 
Q 2363 4103 1966 4103 
Q 1844 4103 1719 4067 
Q 1594 4031 1431 3912 
Q 1269 3794 1144 3606 
Q 1019 3419 931 3066 
Q 844 2713 844 2253 
L 844 2100 
Q 1106 2734 1643 2732 
Q 2181 2731 2553 2322 
Q 2925 1913 2925 1306 
Q 2925 684 2537 271 
Q 2150 -141 1606 -141 
Q 1363 -141 1142 -39 
Q 922 63 717 294 
Q 513 525 391 969 
Q 269 1413 269 2022 
z
M 856 1447 
Q 856 819 972 519 
Q 991 469 1033 400 
Q 1075 331 1148 242 
Q 1222 153 1344 95 
Q 1466 38 1606 38 
Q 2034 38 2241 453 
Q 2350 684 2350 1313 
Q 2350 1953 2234 2188 
Q 2038 2584 1638 2584 
Q 1369 2584 1183 2400 
Q 997 2216 926 1969 
Q 856 1722 856 1447 
z
" transform="scale(0.015625)"/>
       </defs>
       <use xlink:href="#CMUSerif-Roman-30"/>
       <use xlink:href="#CMUSerif-Roman-2e" transform="translate(50 0)"/>
       <use xlink:href="#CMUSerif-Roman-36" transform="translate(77.783203 0)"/>
      </g>
     </g>
    </g>
    <g id="xtick_5">
     <g id="line2d_9">
      <path d="M 361.269 277.6525 
L 361.269 33.4225 
" clip-path="url(#pd0c8f6e7cc)" style="fill: none; stroke-dasharray: 2.96,1.28; stroke-dashoffset: 0; stroke: #e0f0e9; stroke-opacity: 0.12; stroke-width: 0.8"/>
     </g>
     <g id="line2d_10">
      <g>
       <use xlink:href="#md2707596e4" x="361.269" y="277.6525" style="fill: #e0f0e9; stroke: #e0f0e9; stroke-width: 0.8"/>
      </g>
     </g>
     <g id="text_5">
      <!-- 0.8 -->
      <g style="fill: #e0f0e9" transform="translate(354.879937 291.591563) scale(0.1 -0.1)">
       <defs>
        <path id="CMUSerif-Roman-38" d="M 269 966 
Q 269 1681 1191 2144 
Q 794 2413 722 2491 
Q 441 2803 441 3194 
Q 441 3641 780 3952 
Q 1119 4263 1600 4263 
Q 2059 4263 2406 3997 
Q 2753 3731 2753 3309 
Q 2753 2716 1978 2316 
Q 2491 1997 2613 1863 
Q 2925 1516 2925 1075 
Q 2925 563 2531 211 
Q 2138 -141 1594 -141 
Q 1063 -141 666 168 
Q 269 478 269 966 
z
M 588 966 
Q 588 569 886 303 
Q 1184 38 1600 38 
Q 2003 38 2304 269 
Q 2606 500 2606 844 
Q 2606 978 2561 1093 
Q 2516 1209 2427 1301 
Q 2338 1394 2283 1436 
Q 2228 1478 2125 1550 
L 1338 2047 
Q 588 1631 588 966 
z
M 722 3444 
Q 722 3138 1044 2925 
L 1838 2413 
Q 2472 2784 2472 3309 
Q 2472 3650 2212 3876 
Q 1953 4103 1594 4103 
Q 1241 4103 981 3917 
Q 722 3731 722 3444 
z
" transform="scale(0.015625)"/>
       </defs>
       <use xlink:href="#CMUSerif-Roman-30"/>
       <use xlink:href="#CMUSerif-Roman-2e" transform="translate(50 0)"/>
       <use xlink:href="#CMUSerif-Roman-38" transform="translate(77.783203 0)"/>
      </g>
     </g>
    </g>
    <g id="xtick_6">
     <g id="line2d_11">
      <path d="M 410.115 277.6525 
L 410.115 33.4225 
" clip-path="url(#pd0c8f6e7cc)" style="fill: none; stroke-dasharray: 2.96,1.28; stroke-dashoffset: 0; stroke: #e0f0e9; stroke-opacity: 0.12; stroke-width: 0.8"/>
     </g>
     <g id="line2d_12">
      <g>
       <use xlink:href="#md2707596e4" x="410.115" y="277.6525" style="fill: #e0f0e9; stroke: #e0f0e9; stroke-width: 0.8"/>
      </g>
     </g>
     <g id="text_6">
      <!-- 1.0 -->
      <g style="fill: #e0f0e9" transform="translate(403.725937 291.591563) scale(0.1 -0.1)">
       <defs>
        <path id="CMUSerif-Roman-31" d="M 569 3653 
L 569 3853 
Q 1338 3853 1734 4263 
Q 1844 4263 1862 4238 
Q 1881 4213 1881 4097 
L 1881 506 
Q 1881 316 1975 256 
Q 2069 197 2478 197 
L 2681 197 
L 2681 0 
Q 2456 19 1643 19 
Q 831 19 609 0 
L 609 197 
L 813 197 
Q 1216 197 1312 255 
Q 1409 313 1409 506 
L 1409 3822 
Q 1075 3653 569 3653 
z
" transform="scale(0.015625)"/>
       </defs>
       <use xlink:href="#CMUSerif-Roman-31"/>
       <use xlink:href="#CMUSerif-Roman-2e" transform="translate(50 0)"/>
       <use xlink:href="#CMUSerif-Roman-30" transform="translate(77.783203 0)"/>
      </g>
     </g>
    </g>
    <g id="text_7">
     <!-- Nominal Confidence Level -->
     <g style="fill: #e0f0e9" transform="translate(184.755937 310.020938) scale(0.18 -0.18)">
      <defs>
       <path id="CMUSerif-Roman-4e" d="M 213 0 
L 213 197 
Q 444 197 591 242 
Q 738 288 791 373 
Q 844 459 858 517 
Q 872 575 872 672 
L 872 4013 
Q 872 4103 848 4125 
Q 825 4147 716 4159 
Q 525 4172 397 4172 
L 213 4172 
L 213 4372 
L 1300 4372 
Q 1391 4372 1416 4359 
Q 1441 4347 1484 4288 
L 3744 966 
L 3744 3700 
Q 3744 3797 3731 3853 
Q 3719 3909 3664 3996 
Q 3609 4084 3462 4128 
Q 3316 4172 3084 4172 
L 3084 4372 
Q 3756 4353 3832 4353 
Q 3909 4353 4581 4372 
L 4581 4172 
Q 4350 4172 4203 4128 
Q 4056 4084 4003 3996 
Q 3950 3909 3936 3851 
Q 3922 3794 3922 3700 
L 3922 166 
Q 3922 63 3909 31 
Q 3897 0 3834 0 
Q 3791 0 3725 84 
L 1113 3922 
Q 1088 3959 1050 4000 
L 1050 672 
Q 1050 575 1062 517 
Q 1075 459 1129 373 
Q 1184 288 1331 242 
Q 1478 197 1709 197 
L 1709 0 
Q 1038 19 961 19 
Q 884 19 213 0 
z
" transform="scale(0.015625)"/>
       <path id="CMUSerif-Roman-6f" d="M 601 345 
Q 178 763 178 1370 
Q 178 1978 592 2423 
Q 1006 2869 1600 2869 
Q 2181 2869 2598 2426 
Q 3016 1984 3016 1369 
Q 3016 766 2595 347 
Q 2175 -72 1594 -72 
Q 1025 -72 601 345 
z
M 709 1422 
Q 709 800 872 519 
Q 1122 91 1600 91 
Q 1838 91 2036 219 
Q 2234 347 2344 563 
Q 2484 844 2484 1422 
Q 2484 2038 2316 2309 
Q 2066 2725 1594 2725 
Q 1388 2725 1186 2617 
Q 984 2509 863 2297 
Q 709 2016 709 1422 
z
" transform="scale(0.015625)"/>
       <path id="CMUSerif-Roman-6d" d="M 206 0 
L 206 197 
Q 547 197 625 239 
Q 703 281 703 488 
L 703 2203 
Q 703 2441 620 2500 
Q 538 2559 206 2559 
L 206 2759 
L 1106 2828 
L 1106 2156 
Q 1406 2828 2053 2828 
Q 2803 2828 2906 2203 
Q 3016 2447 3245 2637 
Q 3475 2828 3834 2828 
Q 4316 2828 4506 2591 
Q 4647 2431 4675 2253 
Q 4703 2075 4703 1613 
L 4703 391 
Q 4709 256 4812 226 
Q 4916 197 5203 197 
L 5203 0 
Q 4550 19 4488 19 
Q 4438 19 3763 0 
L 3763 197 
Q 4103 197 4183 239 
Q 4263 281 4263 488 
L 4263 1978 
Q 4263 2303 4163 2495 
Q 4063 2688 3788 2688 
Q 3456 2688 3190 2409 
Q 2925 2131 2925 1663 
L 2925 488 
Q 2925 281 3004 239 
Q 3084 197 3425 197 
L 3425 0 
Q 2772 19 2706 19 
Q 2656 19 1984 0 
L 1984 197 
Q 2325 197 2404 239 
Q 2484 281 2484 488 
L 2484 1978 
Q 2484 2303 2384 2495 
Q 2284 2688 2009 2688 
Q 1678 2688 1412 2409 
Q 1147 2131 1147 1663 
L 1147 488 
Q 1147 281 1226 239 
Q 1306 197 1644 197 
L 1644 0 
Q 991 19 928 19 
Q 878 19 206 0 
z
" transform="scale(0.015625)"/>
       <path id="CMUSerif-Roman-69" d="M 213 0 
L 213 197 
Q 553 197 631 239 
Q 709 281 709 488 
L 709 2209 
Q 709 2447 629 2503 
Q 550 2559 238 2559 
L 238 2759 
L 1131 2828 
L 1131 481 
Q 1131 291 1200 244 
Q 1269 197 1581 197 
L 1581 0 
Q 928 19 916 19 
Q 828 19 213 0 
z
M 481 3944 
Q 481 4072 579 4176 
Q 678 4281 818 4281 
Q 959 4281 1059 4186 
Q 1159 4091 1159 3942 
Q 1159 3794 1059 3698 
Q 959 3603 819 3603 
Q 672 3603 576 3706 
Q 481 3809 481 3944 
z
" transform="scale(0.015625)"/>
       <path id="CMUSerif-Roman-6e" d="M 206 0 
L 206 197 
Q 547 197 625 239 
Q 703 281 703 488 
L 703 2203 
Q 703 2441 620 2500 
Q 538 2559 206 2559 
L 206 2759 
L 1106 2828 
L 1106 2156 
Q 1406 2828 2053 2828 
Q 2534 2828 2725 2591 
Q 2866 2431 2895 2253 
Q 2925 2075 2925 1613 
L 2925 391 
Q 2931 256 3034 226 
Q 3138 197 3425 197 
L 3425 0 
Q 2772 19 2706 19 
Q 2656 19 1984 0 
L 1984 197 
Q 2325 197 2404 239 
Q 2484 281 2484 488 
L 2484 1978 
Q 2484 2303 2384 2495 
Q 2284 2688 2009 2688 
Q 1678 2688 1412 2409 
Q 1147 2131 1147 1663 
L 1147 488 
Q 1147 281 1226 239 
Q 1306 197 1644 197 
L 1644 0 
Q 991 19 928 19 
Q 878 19 206 0 
z
" transform="scale(0.015625)"/>
       <path id="CMUSerif-Roman-61" d="M 269 609 
Q 269 1153 909 1441 
Q 1294 1625 2088 1672 
L 2088 1906 
Q 2088 2303 1880 2514 
Q 1672 2725 1409 2725 
Q 941 2725 716 2431 
Q 906 2425 975 2329 
Q 1044 2234 1044 2138 
Q 1044 2009 964 1926 
Q 884 1844 750 1844 
Q 622 1844 537 1923 
Q 453 2003 453 2144 
Q 453 2456 736 2662 
Q 1019 2869 1422 2869 
Q 1947 2869 2297 2516 
Q 2406 2406 2461 2265 
Q 2516 2125 2522 2033 
Q 2528 1941 2528 1759 
L 2528 481 
Q 2528 444 2540 381 
Q 2553 319 2611 239 
Q 2669 159 2766 159 
Q 2997 159 2994 569 
L 2994 928 
L 3156 928 
L 3156 569 
Q 3156 228 2976 95 
Q 2797 -38 2631 -38 
Q 2419 -38 2284 118 
Q 2150 275 2131 488 
Q 2034 244 1814 86 
Q 1594 -72 1294 -72 
Q 1063 -72 845 -14 
Q 628 44 448 205 
Q 269 366 269 609 
z
M 763 616 
Q 763 378 931 225 
Q 1100 72 1338 72 
Q 1606 72 1847 280 
Q 2088 488 2088 897 
L 2088 1538 
Q 1378 1513 1070 1230 
Q 763 947 763 616 
z
" transform="scale(0.015625)"/>
       <path id="CMUSerif-Roman-6c" d="M 213 0 
L 213 197 
Q 553 197 631 239 
Q 709 281 709 488 
L 709 3816 
Q 709 4053 626 4112 
Q 544 4172 213 4172 
L 213 4372 
L 1131 4441 
L 1131 488 
Q 1131 281 1212 239 
Q 1294 197 1631 197 
L 1631 0 
Q 1553 0 1390 6 
Q 1228 13 1109 16 
Q 991 19 922 19 
Q 847 19 213 0 
z
" transform="scale(0.015625)"/>
       <path id="CMUSerif-Roman-20" transform="scale(0.015625)"/>
       <path id="CMUSerif-Roman-43" d="M 359 2188 
Q 359 3153 1018 3833 
Q 1678 4513 2584 4513 
Q 2866 4513 3116 4409 
Q 3366 4306 3481 4217 
Q 3597 4128 3763 3963 
L 4084 4434 
Q 4134 4513 4186 4513 
Q 4238 4513 4247 4483 
Q 4256 4453 4256 4359 
L 4256 2841 
Q 4256 2738 4243 2713 
Q 4231 2688 4153 2688 
Q 4091 2688 4077 2706 
Q 4063 2725 4050 2797 
Q 3953 3488 3570 3900 
Q 3188 4313 2656 4313 
Q 2503 4313 2333 4278 
Q 2163 4244 1917 4112 
Q 1672 3981 1483 3764 
Q 1294 3547 1156 3136 
Q 1019 2725 1019 2181 
Q 1019 1644 1156 1231 
Q 1294 819 1483 605 
Q 1672 391 1917 259 
Q 2163 128 2336 92 
Q 2509 56 2663 56 
Q 3213 56 3634 447 
Q 4056 838 4097 1497 
Q 4103 1528 4103 1542 
Q 4103 1556 4109 1572 
Q 4116 1588 4131 1594 
Q 4147 1600 4172 1600 
Q 4256 1600 4256 1491 
Q 4256 881 3789 370 
Q 3322 -141 2584 -141 
Q 1675 -141 1017 534 
Q 359 1209 359 2188 
z
" transform="scale(0.015625)"/>
       <path id="CMUSerif-Roman-66" d="M 213 2559 
L 213 2759 
L 716 2759 
L 716 3494 
Q 716 3969 1023 4241 
Q 1331 4513 1709 4513 
Q 1959 4513 2121 4378 
Q 2284 4244 2284 4063 
Q 2284 3941 2211 3861 
Q 2138 3781 2003 3781 
Q 1875 3781 1801 3862 
Q 1728 3944 1728 4056 
Q 1728 4263 1919 4325 
Q 1822 4369 1709 4372 
Q 1478 4372 1298 4134 
Q 1119 3897 1119 3500 
L 1119 2759 
L 1869 2759 
L 1869 2559 
L 1141 2559 
L 1141 500 
Q 1141 316 1217 256 
Q 1294 197 1625 197 
L 1759 197 
L 1759 0 
Q 1503 19 947 19 
Q 869 19 748 16 
Q 628 13 467 6 
Q 306 0 219 0 
L 219 197 
Q 559 197 637 239 
Q 716 281 716 488 
L 716 2559 
L 213 2559 
z
" transform="scale(0.015625)"/>
       <path id="CMUSerif-Roman-64" d="M 219 1375 
Q 219 1984 644 2406 
Q 1069 2828 1644 2828 
Q 2131 2828 2450 2431 
L 2450 3816 
Q 2450 4053 2367 4112 
Q 2284 4172 1953 4172 
L 1953 4372 
L 2875 4441 
L 2875 556 
Q 2875 319 2958 258 
Q 3041 197 3372 197 
L 3372 0 
L 2431 -72 
L 2431 353 
Q 2100 -69 1575 -72 
Q 1025 -72 622 350 
Q 219 772 219 1375 
z
M 750 1369 
Q 750 775 934 481 
Q 1191 72 1606 72 
Q 2081 72 2363 519 
Q 2434 628 2431 756 
L 2431 2069 
Q 2431 2197 2363 2303 
Q 2100 2688 1672 2688 
Q 1225 2688 947 2278 
Q 750 1972 750 1369 
z
" transform="scale(0.015625)"/>
       <path id="CMUSerif-Roman-65" d="M 178 1409 
Q 178 2013 565 2441 
Q 953 2869 1509 2869 
Q 2072 2869 2364 2503 
Q 2656 2138 2656 1613 
Q 2656 1516 2631 1497 
Q 2606 1478 2497 1478 
L 709 1478 
Q 709 825 903 519 
Q 1172 91 1625 91 
Q 1688 91 1763 103 
Q 1838 116 1991 170 
Q 2144 225 2278 372 
Q 2413 519 2491 750 
Q 2509 841 2572 838 
Q 2656 838 2656 763 
Q 2656 706 2595 579 
Q 2534 453 2418 303 
Q 2303 153 2079 40 
Q 1856 -72 1588 -72 
Q 1025 -72 601 354 
Q 178 781 178 1409 
z
M 716 1613 
L 2234 1613 
Q 2234 1747 2211 1897 
Q 2188 2047 2120 2255 
Q 2053 2463 1897 2594 
Q 1741 2725 1509 2725 
Q 1406 2725 1295 2681 
Q 1184 2638 1050 2531 
Q 916 2425 822 2184 
Q 728 1944 716 1613 
z
" transform="scale(0.015625)"/>
       <path id="CMUSerif-Roman-63" d="M 625 351 
Q 219 775 219 1383 
Q 219 1991 619 2430 
Q 1019 2869 1606 2869 
Q 1997 2869 2290 2683 
Q 2584 2497 2584 2181 
Q 2584 2041 2501 1961 
Q 2419 1881 2291 1881 
Q 2156 1881 2076 1964 
Q 1997 2047 1997 2175 
Q 1997 2231 2015 2287 
Q 2034 2344 2104 2403 
Q 2175 2463 2297 2472 
Q 2069 2706 1625 2706 
Q 1619 2706 1613 2706 
Q 1288 2706 1019 2400 
Q 750 2094 750 1394 
Q 750 1028 839 761 
Q 928 494 1075 356 
Q 1222 219 1365 155 
Q 1509 91 1650 91 
Q 2278 91 2491 763 
Q 2509 825 2572 825 
Q 2656 825 2656 763 
Q 2656 731 2631 650 
Q 2606 569 2528 441 
Q 2450 313 2339 202 
Q 2228 91 2033 9 
Q 1838 -72 1594 -72 
Q 1031 -72 625 351 
z
" transform="scale(0.015625)"/>
       <path id="CMUSerif-Roman-4c" d="M 213 0 
L 213 197 
L 366 197 
Q 713 197 792 255 
Q 872 313 872 500 
L 872 3872 
Q 872 4056 790 4114 
Q 709 4172 366 4172 
L 213 4172 
L 213 4372 
Q 438 4353 1184 4353 
Q 2028 4353 2259 4372 
L 2259 4172 
L 2047 4172 
Q 1753 4172 1618 4134 
Q 1484 4097 1462 4045 
Q 1441 3994 1441 3866 
L 1441 453 
Q 1441 288 1489 242 
Q 1538 197 1753 197 
L 2278 197 
Q 2603 197 2837 294 
Q 3072 391 3197 512 
Q 3322 634 3405 864 
Q 3488 1094 3514 1241 
Q 3541 1388 3566 1650 
L 3725 1650 
L 3547 0 
L 213 0 
z
" transform="scale(0.015625)"/>
       <path id="CMUSerif-Roman-76" d="M 122 2559 
L 122 2759 
Q 409 2741 744 2741 
Q 866 2741 1441 2759 
L 1441 2559 
Q 1075 2559 1075 2394 
Q 1075 2369 1113 2284 
L 1831 500 
L 2484 2131 
Q 2522 2241 2522 2284 
Q 2522 2394 2448 2473 
Q 2375 2553 2216 2559 
L 2216 2759 
Q 2541 2741 2772 2741 
Q 3034 2741 3250 2759 
L 3250 2559 
Q 3059 2559 2925 2473 
Q 2791 2388 2748 2314 
Q 2706 2241 2663 2131 
L 1825 50 
Q 1775 -72 1691 -72 
Q 1634 -72 1611 -48 
Q 1588 -25 1556 50 
L 634 2322 
Q 572 2481 490 2520 
Q 409 2559 122 2559 
z
" transform="scale(0.015625)"/>
      </defs>
      <use xlink:href="#CMUSerif-Roman-4e"/>
      <use xlink:href="#CMUSerif-Roman-6f" transform="translate(75 0)"/>
      <use xlink:href="#CMUSerif-Roman-6d" transform="translate(125 0)"/>
      <use xlink:href="#CMUSerif-Roman-69" transform="translate(208.251953 0)"/>
      <use xlink:href="#CMUSerif-Roman-6e" transform="translate(235.9375 0)"/>
      <use xlink:href="#CMUSerif-Roman-61" transform="translate(291.40625 0)"/>
      <use xlink:href="#CMUSerif-Roman-6c" transform="translate(341.40625 0)"/>
      <use xlink:href="#CMUSerif-Roman-20" transform="translate(369.091797 0)"/>
      <use xlink:href="#CMUSerif-Roman-43" transform="translate(402.34375 0)"/>
      <use xlink:href="#CMUSerif-Roman-6f" transform="translate(474.511719 0)"/>
      <use xlink:href="#CMUSerif-Roman-6e" transform="translate(524.511719 0)"/>
      <use xlink:href="#CMUSerif-Roman-66" transform="translate(579.980469 0)"/>
      <use xlink:href="#CMUSerif-Roman-69" transform="translate(610.449219 0)"/>
      <use xlink:href="#CMUSerif-Roman-64" transform="translate(638.134766 0)"/>
      <use xlink:href="#CMUSerif-Roman-65" transform="translate(693.603516 0)"/>
      <use xlink:href="#CMUSerif-Roman-6e" transform="translate(737.988281 0)"/>
      <use xlink:href="#CMUSerif-Roman-63" transform="translate(793.457031 0)"/>
      <use xlink:href="#CMUSerif-Roman-65" transform="translate(837.841797 0)"/>
      <use xlink:href="#CMUSerif-Roman-20" transform="translate(882.226562 0)"/>
      <use xlink:href="#CMUSerif-Roman-4c" transform="translate(915.478516 0)"/>
      <use xlink:href="#CMUSerif-Roman-65" transform="translate(977.978516 0)"/>
      <use xlink:href="#CMUSerif-Roman-76" transform="translate(1022.363281 0)"/>
      <use xlink:href="#CMUSerif-Roman-65" transform="translate(1075.048828 0)"/>
      <use xlink:href="#CMUSerif-Roman-6c" transform="translate(1119.433594 0)"/>
     </g>
    </g>
   </g>
   <g id="matplotlib.axis_2">
    <g id="ytick_1">
     <g id="line2d_13">
      <path d="M 165.885 277.6525 
L 410.115 277.6525 
" clip-path="url(#pd0c8f6e7cc)" style="fill: none; stroke-dasharray: 2.96,1.28; stroke-dashoffset: 0; stroke: #e0f0e9; stroke-opacity: 0.12; stroke-width: 0.8"/>
     </g>
     <g id="line2d_14">
      <defs>
       <path id="mfe6ede2455" d="M 0 0 
L -3.5 0 
" style="stroke: #e0f0e9; stroke-width: 0.8"/>
      </defs>
      <g>
       <use xlink:href="#mfe6ede2455" x="165.885" y="277.6525" style="fill: #e0f0e9; stroke: #e0f0e9; stroke-width: 0.8"/>
      </g>
     </g>
     <g id="text_8">
      <!-- 0.0 -->
      <g style="fill: #e0f0e9" transform="translate(146.106875 281.122031) scale(0.1 -0.1)">
       <use xlink:href="#CMUSerif-Roman-30"/>
       <use xlink:href="#CMUSerif-Roman-2e" transform="translate(50 0)"/>
       <use xlink:href="#CMUSerif-Roman-30" transform="translate(77.783203 0)"/>
      </g>
     </g>
    </g>
    <g id="ytick_2">
     <g id="line2d_15">
      <path d="M 165.885 228.8065 
L 410.115 228.8065 
" clip-path="url(#pd0c8f6e7cc)" style="fill: none; stroke-dasharray: 2.96,1.28; stroke-dashoffset: 0; stroke: #e0f0e9; stroke-opacity: 0.12; stroke-width: 0.8"/>
     </g>
     <g id="line2d_16">
      <g>
       <use xlink:href="#mfe6ede2455" x="165.885" y="228.8065" style="fill: #e0f0e9; stroke: #e0f0e9; stroke-width: 0.8"/>
      </g>
     </g>
     <g id="text_9">
      <!-- 0.2 -->
      <g style="fill: #e0f0e9" transform="translate(146.106875 232.276031) scale(0.1 -0.1)">
       <use xlink:href="#CMUSerif-Roman-30"/>
       <use xlink:href="#CMUSerif-Roman-2e" transform="translate(50 0)"/>
       <use xlink:href="#CMUSerif-Roman-32" transform="translate(77.783203 0)"/>
      </g>
     </g>
    </g>
    <g id="ytick_3">
     <g id="line2d_17">
      <path d="M 165.885 179.9605 
L 410.115 179.9605 
" clip-path="url(#pd0c8f6e7cc)" style="fill: none; stroke-dasharray: 2.96,1.28; stroke-dashoffset: 0; stroke: #e0f0e9; stroke-opacity: 0.12; stroke-width: 0.8"/>
     </g>
     <g id="line2d_18">
      <g>
       <use xlink:href="#mfe6ede2455" x="165.885" y="179.9605" style="fill: #e0f0e9; stroke: #e0f0e9; stroke-width: 0.8"/>
      </g>
     </g>
     <g id="text_10">
      <!-- 0.4 -->
      <g style="fill: #e0f0e9" transform="translate(146.106875 183.430031) scale(0.1 -0.1)">
       <use xlink:href="#CMUSerif-Roman-30"/>
       <use xlink:href="#CMUSerif-Roman-2e" transform="translate(50 0)"/>
       <use xlink:href="#CMUSerif-Roman-34" transform="translate(77.783203 0)"/>
      </g>
     </g>
    </g>
    <g id="ytick_4">
     <g id="line2d_19">
      <path d="M 165.885 131.1145 
L 410.115 131.1145 
" clip-path="url(#pd0c8f6e7cc)" style="fill: none; stroke-dasharray: 2.96,1.28; stroke-dashoffset: 0; stroke: #e0f0e9; stroke-opacity: 0.12; stroke-width: 0.8"/>
     </g>
     <g id="line2d_20">
      <g>
       <use xlink:href="#mfe6ede2455" x="165.885" y="131.1145" style="fill: #e0f0e9; stroke: #e0f0e9; stroke-width: 0.8"/>
      </g>
     </g>
     <g id="text_11">
      <!-- 0.6 -->
      <g style="fill: #e0f0e9" transform="translate(146.106875 134.584031) scale(0.1 -0.1)">
       <use xlink:href="#CMUSerif-Roman-30"/>
       <use xlink:href="#CMUSerif-Roman-2e" transform="translate(50 0)"/>
       <use xlink:href="#CMUSerif-Roman-36" transform="translate(77.783203 0)"/>
      </g>
     </g>
    </g>
    <g id="ytick_5">
     <g id="line2d_21">
      <path d="M 165.885 82.2685 
L 410.115 82.2685 
" clip-path="url(#pd0c8f6e7cc)" style="fill: none; stroke-dasharray: 2.96,1.28; stroke-dashoffset: 0; stroke: #e0f0e9; stroke-opacity: 0.12; stroke-width: 0.8"/>
     </g>
     <g id="line2d_22">
      <g>
       <use xlink:href="#mfe6ede2455" x="165.885" y="82.2685" style="fill: #e0f0e9; stroke: #e0f0e9; stroke-width: 0.8"/>
      </g>
     </g>
     <g id="text_12">
      <!-- 0.8 -->
      <g style="fill: #e0f0e9" transform="translate(146.106875 85.738031) scale(0.1 -0.1)">
       <use xlink:href="#CMUSerif-Roman-30"/>
       <use xlink:href="#CMUSerif-Roman-2e" transform="translate(50 0)"/>
       <use xlink:href="#CMUSerif-Roman-38" transform="translate(77.783203 0)"/>
      </g>
     </g>
    </g>
    <g id="ytick_6">
     <g id="line2d_23">
      <path d="M 165.885 33.4225 
L 410.115 33.4225 
" clip-path="url(#pd0c8f6e7cc)" style="fill: none; stroke-dasharray: 2.96,1.28; stroke-dashoffset: 0; stroke: #e0f0e9; stroke-opacity: 0.12; stroke-width: 0.8"/>
     </g>
     <g id="line2d_24">
      <g>
       <use xlink:href="#mfe6ede2455" x="165.885" y="33.4225" style="fill: #e0f0e9; stroke: #e0f0e9; stroke-width: 0.8"/>
      </g>
     </g>
     <g id="text_13">
      <!-- 1.0 -->
      <g style="fill: #e0f0e9" transform="translate(146.106875 36.892031) scale(0.1 -0.1)">
       <use xlink:href="#CMUSerif-Roman-31"/>
       <use xlink:href="#CMUSerif-Roman-2e" transform="translate(50 0)"/>
       <use xlink:href="#CMUSerif-Roman-30" transform="translate(77.783203 0)"/>
      </g>
     </g>
    </g>
    <g id="text_14">
     <!-- Actual Coverage Rate -->
     <g style="fill: #e0f0e9" transform="translate(138.397187 242.59) rotate(-90) scale(0.18 -0.18)">
      <defs>
       <path id="CMUSerif-Roman-41" d="M 206 0 
L 206 197 
Q 775 209 922 628 
L 2247 4453 
Q 2272 4531 2300 4556 
Q 2328 4581 2400 4581 
Q 2438 4581 2461 4575 
Q 2484 4569 2500 4547 
Q 2516 4525 2522 4512 
Q 2528 4500 2547 4453 
L 3928 453 
Q 3978 294 4081 245 
Q 4184 197 4475 197 
L 4588 197 
L 4588 0 
Q 4184 19 3750 19 
Q 3059 19 2828 0 
L 2828 197 
Q 3359 197 3359 391 
Q 3359 403 3341 481 
L 3003 1459 
L 1422 1459 
L 1125 622 
Q 1113 597 1113 525 
Q 1113 391 1238 294 
Q 1363 197 1594 197 
L 1594 0 
Q 978 19 856 19 
Q 647 19 206 0 
z
M 1491 1656 
L 2931 1656 
L 2209 3738 
L 1491 1656 
z
" transform="scale(0.015625)"/>
       <path id="CMUSerif-Roman-74" d="M 122 2559 
L 122 2700 
Q 416 2713 611 2920 
Q 806 3128 873 3384 
Q 941 3641 947 3938 
L 1106 3938 
L 1106 2759 
L 2022 2759 
L 2022 2559 
L 1106 2559 
L 1106 781 
Q 1106 91 1538 91 
Q 1722 91 1844 280 
Q 1966 469 1966 806 
L 1966 1159 
L 2125 1159 
L 2125 794 
Q 2125 447 1965 187 
Q 1806 -72 1491 -72 
Q 1375 -72 1261 -42 
Q 1147 -13 998 64 
Q 850 141 758 330 
Q 666 519 666 794 
L 666 2559 
L 122 2559 
z
" transform="scale(0.015625)"/>
       <path id="CMUSerif-Roman-75" d="M 206 2559 
L 206 2759 
L 1147 2828 
L 1147 703 
Q 1147 550 1159 461 
Q 1172 372 1223 269 
Q 1275 166 1395 119 
Q 1516 72 1709 72 
Q 2056 72 2270 356 
Q 2484 641 2484 1063 
L 2484 2203 
Q 2484 2441 2400 2500 
Q 2316 2559 1984 2559 
L 1984 2759 
L 2925 2828 
L 2925 556 
Q 2925 319 3008 258 
Q 3091 197 3425 197 
L 3425 0 
L 2503 -72 
L 2503 506 
Q 2234 -69 1678 -72 
Q 1397 -72 1205 0 
Q 1013 72 916 161 
Q 819 250 767 422 
Q 716 594 709 700 
Q 703 806 703 1013 
L 703 1972 
Q 703 2406 640 2482 
Q 578 2559 206 2559 
z
" transform="scale(0.015625)"/>
       <path id="CMUSerif-Roman-72" d="M 178 0 
L 178 197 
Q 519 197 598 239 
Q 678 281 678 488 
L 678 2203 
Q 678 2441 595 2500 
Q 513 2559 178 2559 
L 178 2759 
L 1069 2828 
L 1069 2125 
Q 1159 2400 1351 2614 
Q 1544 2828 1856 2828 
Q 2063 2828 2195 2712 
Q 2328 2597 2328 2438 
Q 2328 2297 2242 2226 
Q 2156 2156 2053 2156 
Q 1938 2156 1858 2229 
Q 1778 2303 1778 2431 
Q 1778 2509 1814 2570 
Q 1850 2631 1878 2653 
Q 1906 2675 1925 2681 
Q 1913 2688 1856 2688 
Q 1503 2688 1301 2336 
Q 1100 1984 1100 1484 
L 1100 500 
Q 1100 316 1176 256 
Q 1253 197 1588 197 
L 1722 197 
L 1722 0 
Q 1466 19 909 19 
Q 831 19 709 16 
Q 588 13 428 6 
Q 269 0 178 0 
z
" transform="scale(0.015625)"/>
       <path id="CMUSerif-Roman-67" d="M 178 -506 
Q 178 -300 336 -122 
Q 494 56 769 134 
Q 488 313 488 703 
Q 488 1003 684 1234 
Q 384 1484 384 1894 
Q 384 2272 684 2550 
Q 984 2828 1422 2828 
Q 1806 2828 2100 2597 
Q 2406 2897 2778 2900 
Q 2944 2900 3023 2797 
Q 3103 2694 3103 2584 
Q 3103 2488 3042 2441 
Q 2981 2394 2919 2394 
Q 2841 2394 2786 2445 
Q 2731 2497 2731 2578 
Q 2731 2713 2834 2753 
Q 2816 2759 2772 2759 
Q 2459 2759 2194 2509 
Q 2456 2266 2456 1887 
Q 2456 1509 2156 1231 
Q 1856 953 1422 953 
Q 1063 953 788 1153 
Q 678 1025 678 850 
Q 678 691 775 566 
Q 872 441 1019 422 
Q 1063 416 1497 416 
Q 1753 416 1893 409 
Q 2034 403 2236 361 
Q 2438 319 2597 238 
Q 3013 6 3016 -494 
Q 3016 -859 2595 -1089 
Q 2175 -1319 1594 -1319 
Q 1006 -1319 592 -1086 
Q 178 -853 178 -506 
z
M 513 -506 
Q 513 -769 822 -970 
Q 1131 -1172 1600 -1172 
Q 2059 -1172 2370 -973 
Q 2681 -775 2681 -506 
Q 2681 -316 2572 -194 
Q 2463 -72 2239 -23 
Q 2016 25 1859 34 
Q 1703 44 1416 44 
L 1038 44 
Q 819 31 666 -128 
Q 513 -288 513 -506 
z
M 863 1888 
Q 863 1100 1422 1100 
Q 1703 1100 1875 1356 
Q 1978 1528 1978 1894 
Q 1978 2681 1422 2681 
Q 1141 2681 966 2425 
Q 863 2253 863 1888 
z
" transform="scale(0.015625)"/>
       <path id="CMUSerif-Roman-52" d="M 225 0 
L 225 197 
L 378 197 
Q 725 197 804 255 
Q 884 313 884 500 
L 884 3872 
Q 884 4056 803 4114 
Q 722 4172 378 4172 
L 225 4172 
L 225 4372 
L 2234 4372 
Q 2931 4372 3417 4030 
Q 3903 3688 3903 3219 
Q 3903 2859 3587 2578 
Q 3272 2297 2784 2175 
Q 3419 1956 3566 1434 
L 3647 922 
Q 3672 738 3689 644 
Q 3706 550 3734 422 
Q 3763 294 3792 233 
Q 3822 172 3865 108 
Q 3909 44 3967 22 
Q 4025 0 4103 0 
Q 4250 0 4375 131 
Q 4500 263 4525 569 
Q 4538 672 4603 672 
Q 4684 672 4684 569 
Q 4684 478 4659 373 
Q 4634 269 4573 147 
Q 4513 25 4381 -58 
Q 4250 -141 4078 -141 
Q 3578 -141 3272 128 
Q 3144 244 3086 394 
Q 3028 544 3018 662 
Q 3009 781 3009 1044 
Q 3009 1416 2970 1578 
Q 2931 1741 2766 1900 
Q 2541 2119 2169 2119 
L 1434 2119 
L 1434 500 
Q 1434 316 1514 256 
Q 1594 197 1941 197 
L 2094 197 
L 2094 0 
Q 1863 19 1159 19 
Q 456 19 225 0 
z
M 1434 2259 
L 2144 2259 
Q 2484 2259 2714 2342 
Q 2944 2425 3053 2575 
Q 3163 2725 3203 2876 
Q 3244 3028 3244 3219 
Q 3244 3444 3194 3612 
Q 3144 3781 3034 3881 
Q 2925 3981 2815 4045 
Q 2706 4109 2537 4134 
Q 2369 4159 2253 4165 
Q 2138 4172 1953 4172 
Q 1641 4172 1575 4159 
Q 1503 4153 1475 4118 
Q 1447 4084 1440 4045 
Q 1434 4006 1434 3916 
L 1434 2259 
z
" transform="scale(0.015625)"/>
      </defs>
      <use xlink:href="#CMUSerif-Roman-41"/>
      <use xlink:href="#CMUSerif-Roman-63" transform="translate(75 0)"/>
      <use xlink:href="#CMUSerif-Roman-74" transform="translate(119.384766 0)"/>
      <use xlink:href="#CMUSerif-Roman-75" transform="translate(158.154297 0)"/>
      <use xlink:href="#CMUSerif-Roman-61" transform="translate(213.623047 0)"/>
      <use xlink:href="#CMUSerif-Roman-6c" transform="translate(263.623047 0)"/>
      <use xlink:href="#CMUSerif-Roman-20" transform="translate(291.308594 0)"/>
      <use xlink:href="#CMUSerif-Roman-43" transform="translate(324.560547 0)"/>
      <use xlink:href="#CMUSerif-Roman-6f" transform="translate(396.728516 0)"/>
      <use xlink:href="#CMUSerif-Roman-76" transform="translate(446.728516 0)"/>
      <use xlink:href="#CMUSerif-Roman-65" transform="translate(499.414062 0)"/>
      <use xlink:href="#CMUSerif-Roman-72" transform="translate(543.798828 0)"/>
      <use xlink:href="#CMUSerif-Roman-61" transform="translate(582.861328 0)"/>
      <use xlink:href="#CMUSerif-Roman-67" transform="translate(632.861328 0)"/>
      <use xlink:href="#CMUSerif-Roman-65" transform="translate(682.861328 0)"/>
      <use xlink:href="#CMUSerif-Roman-20" transform="translate(727.246094 0)"/>
      <use xlink:href="#CMUSerif-Roman-52" transform="translate(760.498047 0)"/>
      <use xlink:href="#CMUSerif-Roman-61" transform="translate(834.082031 0)"/>
      <use xlink:href="#CMUSerif-Roman-74" transform="translate(884.082031 0)"/>
      <use xlink:href="#CMUSerif-Roman-65" transform="translate(922.851562 0)"/>
     </g>
    </g>
   </g>
   <g id="line2d_25">
    <path d="M 165.885 93.874156 
L 168.3273 93.774565 
L 170.7696 93.143823 
L 173.2119 91.74955 
L 175.6542 87.135174 
L 178.0965 80.595373 
L 180.5388 77.773632 
L 182.9811 74.055573 
L 185.4234 70.038742 
L 187.8657 66.752243 
L 190.308 64.295668 
L 192.7503 62.669018 
L 195.1926 61.673109 
L 197.6349 59.91367 
L 200.0772 57.921853 
L 202.5195 57.091929 
L 204.9618 56.295202 
L 207.4041 55.33249 
L 209.8464 54.668551 
L 212.2887 53.971415 
L 214.731 53.772234 
L 217.1733 53.207885 
L 219.6156 52.875916 
L 222.0579 52.311568 
L 224.5002 51.979598 
L 226.9425 51.548038 
L 229.3848 51.149674 
L 231.8271 50.718114 
L 234.2694 50.352947 
L 236.7117 50.120569 
L 239.154 49.921387 
L 241.5963 49.689008 
L 244.0386 49.423432 
L 246.4809 49.191054 
L 248.9232 48.925478 
L 251.3655 48.626706 
L 253.8078 48.460721 
L 256.2501 48.327933 
L 258.6924 48.228342 
L 261.1347 48.095554 
L 263.577 47.896373 
L 266.0193 47.763585 
L 268.4616 47.697191 
L 270.9039 47.564403 
L 273.3462 47.431615 
L 275.7885 47.166039 
L 278.2308 46.966858 
L 280.6731 46.867267 
L 283.1154 46.601691 
L 285.5577 46.535297 
L 288 46.369313 
L 290.4423 46.037343 
L 292.8846 45.63898 
L 295.3269 45.472995 
L 297.7692 45.30701 
L 300.2115 44.842253 
L 302.6538 44.477086 
L 305.0961 44.344298 
L 307.5384 43.813147 
L 309.9807 43.713556 
L 312.423 43.680359 
L 314.8653 43.613965 
L 317.3076 43.547571 
L 319.7499 43.514374 
L 322.1922 43.514374 
L 324.6345 43.514374 
L 327.0768 43.481177 
L 329.5191 43.34839 
L 331.9614 43.315193 
L 334.4037 42.850435 
L 336.846 42.750844 
L 339.2883 42.717647 
L 341.7306 42.58486 
L 344.1729 42.551663 
L 346.6152 42.485269 
L 349.0575 42.452072 
L 351.4998 42.25289 
L 353.9421 41.987314 
L 356.3844 41.655345 
L 358.8267 41.356572 
L 361.269 41.090997 
L 363.7113 40.925012 
L 366.1536 40.72583 
L 368.5959 39.862709 
L 371.0382 39.464346 
L 373.4805 39.032785 
L 375.9228 38.269255 
L 378.3651 37.572119 
L 380.8074 37.173756 
L 383.2497 36.808589 
L 385.692 36.410226 
L 388.1343 36.310635 
L 390.5766 36.177847 
L 393.0189 36.078256 
L 395.4612 36.011863 
L 397.9035 35.879075 
L 400.3458 35.513908 
L 402.7881 34.916363 
L 405.2304 34.683984 
L 407.6727 34.518 
" clip-path="url(#pd0c8f6e7cc)" style="fill: none; stroke: #e6bb12; stroke-width: 2; stroke-linecap: square"/>
   </g>
   <g id="line2d_26">
    <path d="M 165.885 277.6525 
L 168.3273 275.2102 
L 170.7696 272.7679 
L 173.2119 270.3256 
L 175.6542 267.8833 
L 178.0965 265.441 
L 180.5388 262.9987 
L 182.9811 260.5564 
L 185.4234 258.1141 
L 187.8657 255.6718 
L 190.308 253.2295 
L 192.7503 250.7872 
L 195.1926 248.3449 
L 197.6349 245.9026 
L 200.0772 243.4603 
L 202.5195 241.018 
L 204.9618 238.5757 
L 207.4041 236.1334 
L 209.8464 233.6911 
L 212.2887 231.2488 
L 214.731 228.8065 
L 217.1733 226.3642 
L 219.6156 223.9219 
L 222.0579 221.4796 
L 224.5002 219.0373 
L 226.9425 216.595 
L 229.3848 214.1527 
L 231.8271 211.7104 
L 234.2694 209.2681 
L 236.7117 206.8258 
L 239.154 204.3835 
L 241.5963 201.9412 
L 244.0386 199.4989 
L 246.4809 197.0566 
L 248.9232 194.6143 
L 251.3655 192.172 
L 253.8078 189.7297 
L 256.2501 187.2874 
L 258.6924 184.8451 
L 261.1347 182.4028 
L 263.577 179.9605 
L 266.0193 177.5182 
L 268.4616 175.0759 
L 270.9039 172.6336 
L 273.3462 170.1913 
L 275.7885 167.749 
L 278.2308 165.3067 
L 280.6731 162.8644 
L 283.1154 160.4221 
L 285.5577 157.9798 
L 288 155.5375 
L 290.4423 153.0952 
L 292.8846 150.6529 
L 295.3269 148.2106 
L 297.7692 145.7683 
L 300.2115 143.326 
L 302.6538 140.8837 
L 305.0961 138.4414 
L 307.5384 135.9991 
L 309.9807 133.5568 
L 312.423 131.1145 
L 314.8653 128.6722 
L 317.3076 126.2299 
L 319.7499 123.7876 
L 322.1922 121.3453 
L 324.6345 118.903 
L 327.0768 116.4607 
L 329.5191 114.0184 
L 331.9614 111.5761 
L 334.4037 109.1338 
L 336.846 106.6915 
L 339.2883 104.2492 
L 341.7306 101.8069 
L 344.1729 99.3646 
L 346.6152 96.9223 
L 349.0575 94.48 
L 351.4998 92.0377 
L 353.9421 89.5954 
L 356.3844 87.1531 
L 358.8267 84.7108 
L 361.269 82.2685 
L 363.7113 79.8262 
L 366.1536 77.3839 
L 368.5959 74.9416 
L 371.0382 72.4993 
L 373.4805 70.057 
L 375.9228 67.6147 
L 378.3651 65.1724 
L 380.8074 62.7301 
L 383.2497 60.2878 
L 385.692 57.8455 
L 388.1343 55.4032 
L 390.5766 52.9609 
L 393.0189 50.5186 
L 395.4612 48.0763 
L 397.9035 45.634 
L 400.3458 43.1917 
L 402.7881 40.7494 
L 405.2304 38.3071 
L 407.6727 35.8648 
" clip-path="url(#pd0c8f6e7cc)" style="fill: none; stroke-dasharray: 7.4,3.2; stroke-dashoffset: 0; stroke: #e0f0e9; stroke-width: 2"/>
   </g>
   <g id="patch_3">
    <path d="M 165.885 277.6525 
L 165.885 33.4225 
" style="fill: none; stroke: #e0f0e9; stroke-width: 0.8; stroke-linejoin: miter; stroke-linecap: square"/>
   </g>
   <g id="patch_4">
    <path d="M 410.115 277.6525 
L 410.115 33.4225 
" style="fill: none; stroke: #e0f0e9; stroke-width: 0.8; stroke-linejoin: miter; stroke-linecap: square"/>
   </g>
   <g id="patch_5">
    <path d="M 165.885 277.6525 
L 410.115 277.6525 
" style="fill: none; stroke: #e0f0e9; stroke-width: 0.8; stroke-linejoin: miter; stroke-linecap: square"/>
   </g>
   <g id="patch_6">
    <path d="M 165.885 33.4225 
L 410.115 33.4225 
" style="fill: none; stroke: #e0f0e9; stroke-width: 0.8; stroke-linejoin: miter; stroke-linecap: square"/>
   </g>
   <g id="text_15">
    <!-- Coverage of Confidence Intervals -->
    <g style="fill: #e0f0e9" transform="translate(157.830469 23.4225) scale(0.18 -0.18)">
     <defs>
      <path id="CMUSerif-Roman-49" d="M 178 0 
L 178 197 
L 347 197 
Q 706 197 789 255 
Q 872 313 872 500 
L 872 3872 
Q 872 4056 787 4114 
Q 703 4172 347 4172 
L 178 4172 
L 178 4372 
Q 403 4353 1159 4353 
Q 1909 4353 2131 4372 
L 2131 4172 
L 1966 4172 
Q 1606 4172 1523 4114 
Q 1441 4056 1441 3872 
L 1441 500 
Q 1441 316 1523 256 
Q 1606 197 1966 197 
L 2131 197 
L 2131 0 
Q 1906 19 1153 19 
Q 403 19 178 0 
z
" transform="scale(0.015625)"/>
      <path id="CMUSerif-Roman-73" d="M 213 84 
L 213 928 
Q 213 1000 216 1025 
Q 219 1050 237 1069 
Q 256 1088 294 1088 
Q 338 1088 355 1069 
Q 372 1050 384 978 
Q 481 538 689 305 
Q 897 72 1275 72 
Q 1634 72 1815 231 
Q 1997 391 1997 653 
Q 1997 1122 1331 1241 
Q 947 1319 787 1370 
Q 628 1422 488 1538 
Q 213 1763 213 2081 
Q 213 2400 455 2634 
Q 697 2869 1234 2869 
Q 1594 2869 1838 2688 
Q 1909 2744 1947 2791 
Q 2031 2869 2075 2869 
Q 2125 2869 2134 2836 
Q 2144 2803 2144 2713 
L 2144 2069 
Q 2144 1997 2141 1972 
Q 2138 1947 2119 1930 
Q 2100 1913 2059 1913 
Q 1988 1913 1984 1972 
Q 1934 2747 1234 2747 
Q 856 2747 687 2601 
Q 519 2456 519 2259 
Q 519 2150 570 2067 
Q 622 1984 689 1936 
Q 756 1888 881 1842 
Q 1006 1797 1082 1781 
Q 1159 1766 1306 1734 
Q 1819 1638 2034 1428 
Q 2303 1159 2303 819 
Q 2303 441 2047 184 
Q 1791 -72 1275 -72 
Q 859 -72 569 206 
Q 531 169 503 136 
Q 475 103 464 90 
Q 453 78 450 70 
Q 447 63 441 56 
Q 313 -72 281 -72 
Q 231 -72 222 -39 
Q 213 -6 213 84 
z
" transform="scale(0.015625)"/>
     </defs>
     <use xlink:href="#CMUSerif-Roman-43"/>
     <use xlink:href="#CMUSerif-Roman-6f" transform="translate(72.167969 0)"/>
     <use xlink:href="#CMUSerif-Roman-76" transform="translate(122.167969 0)"/>
     <use xlink:href="#CMUSerif-Roman-65" transform="translate(174.853516 0)"/>
     <use xlink:href="#CMUSerif-Roman-72" transform="translate(219.238281 0)"/>
     <use xlink:href="#CMUSerif-Roman-61" transform="translate(258.300781 0)"/>
     <use xlink:href="#CMUSerif-Roman-67" transform="translate(308.300781 0)"/>
     <use xlink:href="#CMUSerif-Roman-65" transform="translate(358.300781 0)"/>
     <use xlink:href="#CMUSerif-Roman-20" transform="translate(402.685547 0)"/>
     <use xlink:href="#CMUSerif-Roman-6f" transform="translate(435.9375 0)"/>
     <use xlink:href="#CMUSerif-Roman-66" transform="translate(485.9375 0)"/>
     <use xlink:href="#CMUSerif-Roman-20" transform="translate(516.40625 0)"/>
     <use xlink:href="#CMUSerif-Roman-43" transform="translate(549.658203 0)"/>
     <use xlink:href="#CMUSerif-Roman-6f" transform="translate(621.826172 0)"/>
     <use xlink:href="#CMUSerif-Roman-6e" transform="translate(671.826172 0)"/>
     <use xlink:href="#CMUSerif-Roman-66" transform="translate(727.294922 0)"/>
     <use xlink:href="#CMUSerif-Roman-69" transform="translate(757.763672 0)"/>
     <use xlink:href="#CMUSerif-Roman-64" transform="translate(785.449219 0)"/>
     <use xlink:href="#CMUSerif-Roman-65" transform="translate(840.917969 0)"/>
     <use xlink:href="#CMUSerif-Roman-6e" transform="translate(885.302734 0)"/>
     <use xlink:href="#CMUSerif-Roman-63" transform="translate(940.771484 0)"/>
     <use xlink:href="#CMUSerif-Roman-65" transform="translate(985.15625 0)"/>
     <use xlink:href="#CMUSerif-Roman-20" transform="translate(1029.541016 0)"/>
     <use xlink:href="#CMUSerif-Roman-49" transform="translate(1062.792969 0)"/>
     <use xlink:href="#CMUSerif-Roman-6e" transform="translate(1098.876953 0)"/>
     <use xlink:href="#CMUSerif-Roman-74" transform="translate(1154.345703 0)"/>
     <use xlink:href="#CMUSerif-Roman-65" transform="translate(1193.115234 0)"/>
     <use xlink:href="#CMUSerif-Roman-72" transform="translate(1237.5 0)"/>
     <use xlink:href="#CMUSerif-Roman-76" transform="translate(1276.5625 0)"/>
     <use xlink:href="#CMUSerif-Roman-61" transform="translate(1329.248047 0)"/>
     <use xlink:href="#CMUSerif-Roman-6c" transform="translate(1379.248047 0)"/>
     <use xlink:href="#CMUSerif-Roman-73" transform="translate(1406.933594 0)"/>
    </g>
   </g>
   <g id="legend_1">
    <g id="patch_7">
     <path d="M 341.98375 272.6525 
L 403.115 272.6525 
Q 405.115 272.6525 405.115 270.6525 
L 405.115 243.774375 
Q 405.115 241.774375 403.115 241.774375 
L 341.98375 241.774375 
Q 339.98375 241.774375 339.98375 243.774375 
L 339.98375 270.6525 
Q 339.98375 272.6525 341.98375 272.6525 
z
" style="fill: #274c43; opacity: 0.8; stroke: #e0f0e9; stroke-linejoin: miter"/>
    </g>
    <g id="line2d_27">
     <path d="M 343.98375 249.274375 
L 353.98375 249.274375 
L 363.98375 249.274375 
" style="fill: none; stroke: #e6bb12; stroke-width: 2; stroke-linecap: square"/>
    </g>
    <g id="text_16">
     <!-- Actual -->
     <g style="fill: #e0f0e9" transform="translate(371.98375 252.774375) scale(0.1 -0.1)">
      <use xlink:href="#CMUSerif-Roman-41"/>
      <use xlink:href="#CMUSerif-Roman-63" transform="translate(75 0)"/>
      <use xlink:href="#CMUSerif-Roman-74" transform="translate(119.384766 0)"/>
      <use xlink:href="#CMUSerif-Roman-75" transform="translate(158.154297 0)"/>
      <use xlink:href="#CMUSerif-Roman-61" transform="translate(213.623047 0)"/>
      <use xlink:href="#CMUSerif-Roman-6c" transform="translate(263.623047 0)"/>
     </g>
    </g>
    <g id="line2d_28">
     <path d="M 343.98375 263.213437 
L 353.98375 263.213437 
L 363.98375 263.213437 
" style="fill: none; stroke-dasharray: 7.4,3.2; stroke-dashoffset: 0; stroke: #e0f0e9; stroke-width: 2"/>
    </g>
    <g id="text_17">
     <!-- Ideal -->
     <g style="fill: #e0f0e9" transform="translate(371.98375 266.713437) scale(0.1 -0.1)">
      <use xlink:href="#CMUSerif-Roman-49"/>
      <use xlink:href="#CMUSerif-Roman-64" transform="translate(36.083984 0)"/>
      <use xlink:href="#CMUSerif-Roman-65" transform="translate(91.552734 0)"/>
      <use xlink:href="#CMUSerif-Roman-61" transform="translate(135.9375 0)"/>
      <use xlink:href="#CMUSerif-Roman-6c" transform="translate(185.9375 0)"/>
     </g>
    </g>
   </g>
  </g>
 </g>
 <defs>
  <clipPath id="pd0c8f6e7cc">
   <rect x="165.885" y="33.4225" width="244.23" height="244.23"/>
  </clipPath>
 </defs>
</svg>
