<?xml version="1.0" encoding="utf-8" standalone="no"?>
<!DOCTYPE svg PUBLIC "-//W3C//DTD SVG 1.1//EN"
  "http://www.w3.org/Graphics/SVG/1.1/DTD/svg11.dtd">
<svg xmlns:xlink="http://www.w3.org/1999/xlink" width="576pt" height="324pt" viewBox="0 0 576 324" xmlns="http://www.w3.org/2000/svg" version="1.1">
 <metadata>
  <rdf:RDF xmlns:dc="http://purl.org/dc/elements/1.1/" xmlns:cc="http://creativecommons.org/ns#" xmlns:rdf="http://www.w3.org/1999/02/22-rdf-syntax-ns#">
   <cc:Work>
    <dc:type rdf:resource="http://purl.org/dc/dcmitype/StillImage"/>
    <dc:date>2025-09-30T23:31:56.469274</dc:date>
    <dc:format>image/svg+xml</dc:format>
    <dc:creator>
     <cc:Agent>
      <dc:title>Matplotlib v3.10.5, https://matplotlib.org/</dc:title>
     </cc:Agent>
    </dc:creator>
   </cc:Work>
  </rdf:RDF>
 </metadata>
 <defs>
  <style type="text/css">*{stroke-linejoin: round; stroke-linecap: butt}</style>
 </defs>
 <g id="figure_1">
  <g id="patch_1">
   <path d="M 0 324 
L 576 324 
L 576 0 
L 0 0 
z
" style="fill: #274c43"/>
  </g>
  <g id="axes_1">
   <g id="patch_2">
    <path d="M 57.8 295.1375 
L 565.2 295.1375 
L 565.2 29.58 
L 57.8 29.58 
z
" style="fill: #274c43"/>
   </g>
   <g id="matplotlib.axis_1">
    <g id="xtick_1">
     <g id="line2d_1">
      <path d="M 74.783484 295.1375 
L 74.783484 29.58 
" clip-path="url(#pf65ae1042c)" style="fill: none; stroke-dasharray: 2.96,1.28; stroke-dashoffset: 0; stroke: #e0f0e9; stroke-opacity: 0.12; stroke-width: 0.8"/>
     </g>
     <g id="line2d_2">
      <defs>
       <path id="mb2655e4447" d="M 0 0 
L 0 3.5 
" style="stroke: #e0f0e9; stroke-width: 0.8"/>
      </defs>
      <g>
       <use xlink:href="#mb2655e4447" x="74.783484" y="295.1375" style="fill: #e0f0e9; stroke: #e0f0e9; stroke-width: 0.8"/>
      </g>
     </g>
     <g id="text_1">
      <!-- Jan -->
      <g style="fill: #e0f0e9" transform="translate(65.379422 310.464375) scale(0.12 -0.12)">
       <defs>
        <path id="CMUSerif-Roman-4a" d="M 263 716 
Q 263 906 375 997 
Q 488 1088 622 1088 
Q 763 1088 870 992 
Q 978 897 978 728 
Q 978 372 575 372 
Q 572 372 569 372 
Q 800 0 1275 0 
Q 1544 0 1737 262 
Q 1931 525 1931 947 
L 1931 3866 
Q 1931 4000 1906 4051 
Q 1881 4103 1747 4137 
Q 1613 4172 1306 4172 
L 1075 4172 
L 1075 4372 
Q 1319 4353 2150 4353 
Q 2553 4353 2975 4372 
L 2975 4172 
Q 2650 4172 2567 4134 
Q 2484 4097 2484 3909 
L 2484 1069 
Q 2484 838 2478 788 
Q 2422 409 2090 134 
Q 1759 -141 1288 -141 
Q 859 -141 561 107 
Q 263 356 263 716 
z
" transform="scale(0.015625)"/>
        <path id="CMUSerif-Roman-61" d="M 269 609 
Q 269 1153 909 1441 
Q 1294 1625 2088 1672 
L 2088 1906 
Q 2088 2303 1880 2514 
Q 1672 2725 1409 2725 
Q 941 2725 716 2431 
Q 906 2425 975 2329 
Q 1044 2234 1044 2138 
Q 1044 2009 964 1926 
Q 884 1844 750 1844 
Q 622 1844 537 1923 
Q 453 2003 453 2144 
Q 453 2456 736 2662 
Q 1019 2869 1422 2869 
Q 1947 2869 2297 2516 
Q 2406 2406 2461 2265 
Q 2516 2125 2522 2033 
Q 2528 1941 2528 1759 
L 2528 481 
Q 2528 444 2540 381 
Q 2553 319 2611 239 
Q 2669 159 2766 159 
Q 2997 159 2994 569 
L 2994 928 
L 3156 928 
L 3156 569 
Q 3156 228 2976 95 
Q 2797 -38 2631 -38 
Q 2419 -38 2284 118 
Q 2150 275 2131 488 
Q 2034 244 1814 86 
Q 1594 -72 1294 -72 
Q 1063 -72 845 -14 
Q 628 44 448 205 
Q 269 366 269 609 
z
M 763 616 
Q 763 378 931 225 
Q 1100 72 1338 72 
Q 1606 72 1847 280 
Q 2088 488 2088 897 
L 2088 1538 
Q 1378 1513 1070 1230 
Q 763 947 763 616 
z
" transform="scale(0.015625)"/>
        <path id="CMUSerif-Roman-6e" d="M 206 0 
L 206 197 
Q 547 197 625 239 
Q 703 281 703 488 
L 703 2203 
Q 703 2441 620 2500 
Q 538 2559 206 2559 
L 206 2759 
L 1106 2828 
L 1106 2156 
Q 1406 2828 2053 2828 
Q 2534 2828 2725 2591 
Q 2866 2431 2895 2253 
Q 2925 2075 2925 1613 
L 2925 391 
Q 2931 256 3034 226 
Q 3138 197 3425 197 
L 3425 0 
Q 2772 19 2706 19 
Q 2656 19 1984 0 
L 1984 197 
Q 2325 197 2404 239 
Q 2484 281 2484 488 
L 2484 1978 
Q 2484 2303 2384 2495 
Q 2284 2688 2009 2688 
Q 1678 2688 1412 2409 
Q 1147 2131 1147 1663 
L 1147 488 
Q 1147 281 1226 239 
Q 1306 197 1644 197 
L 1644 0 
Q 991 19 928 19 
Q 878 19 206 0 
z
" transform="scale(0.015625)"/>
       </defs>
       <use xlink:href="#CMUSerif-Roman-4a"/>
       <use xlink:href="#CMUSerif-Roman-61" transform="translate(51.269531 0)"/>
       <use xlink:href="#CMUSerif-Roman-6e" transform="translate(101.269531 0)"/>
      </g>
     </g>
    </g>
    <g id="xtick_2">
     <g id="line2d_3">
      <path d="M 121.418478 295.1375 
L 121.418478 29.58 
" clip-path="url(#pf65ae1042c)" style="fill: none; stroke-dasharray: 2.96,1.28; stroke-dashoffset: 0; stroke: #e0f0e9; stroke-opacity: 0.12; stroke-width: 0.8"/>
     </g>
     <g id="line2d_4">
      <g>
       <use xlink:href="#mb2655e4447" x="121.418478" y="295.1375" style="fill: #e0f0e9; stroke: #e0f0e9; stroke-width: 0.8"/>
      </g>
     </g>
     <g id="text_2">
      <!-- Feb -->
      <g style="fill: #e0f0e9" transform="translate(111.515666 310.464375) scale(0.12 -0.12)">
       <defs>
        <path id="CMUSerif-Roman-46" d="M 213 0 
L 213 197 
L 366 197 
Q 713 197 792 255 
Q 872 313 872 500 
L 872 3853 
Q 872 4038 790 4095 
Q 709 4153 366 4153 
L 213 4153 
L 213 4353 
L 3725 4353 
L 3903 2913 
L 3744 2913 
Q 3700 3278 3642 3486 
Q 3584 3694 3453 3859 
Q 3322 4025 3101 4089 
Q 2881 4153 2522 4153 
L 1753 4153 
Q 1534 4153 1487 4108 
Q 1441 4063 1441 3897 
L 1441 2278 
L 1991 2278 
Q 2425 2278 2547 2434 
Q 2669 2591 2669 3028 
L 2828 3028 
L 2828 1331 
L 2669 1331 
Q 2669 1772 2547 1926 
Q 2425 2081 1991 2081 
L 1441 2081 
L 1441 506 
Q 1441 372 1462 320 
Q 1484 269 1618 233 
Q 1753 197 2047 197 
L 2259 197 
L 2259 0 
Q 2028 19 1184 19 
Q 438 19 213 0 
z
" transform="scale(0.015625)"/>
        <path id="CMUSerif-Roman-65" d="M 178 1409 
Q 178 2013 565 2441 
Q 953 2869 1509 2869 
Q 2072 2869 2364 2503 
Q 2656 2138 2656 1613 
Q 2656 1516 2631 1497 
Q 2606 1478 2497 1478 
L 709 1478 
Q 709 825 903 519 
Q 1172 91 1625 91 
Q 1688 91 1763 103 
Q 1838 116 1991 170 
Q 2144 225 2278 372 
Q 2413 519 2491 750 
Q 2509 841 2572 838 
Q 2656 838 2656 763 
Q 2656 706 2595 579 
Q 2534 453 2418 303 
Q 2303 153 2079 40 
Q 1856 -72 1588 -72 
Q 1025 -72 601 354 
Q 178 781 178 1409 
z
M 716 1613 
L 2234 1613 
Q 2234 1747 2211 1897 
Q 2188 2047 2120 2255 
Q 2053 2463 1897 2594 
Q 1741 2725 1509 2725 
Q 1406 2725 1295 2681 
Q 1184 2638 1050 2531 
Q 916 2425 822 2184 
Q 728 1944 716 1613 
z
" transform="scale(0.015625)"/>
        <path id="CMUSerif-Roman-62" d="M 178 4172 
L 178 4372 
L 1100 4441 
L 1100 2413 
Q 1472 2828 1978 2828 
Q 2528 2828 2931 2406 
Q 3334 1984 3334 1381 
Q 3334 772 2912 350 
Q 2491 -72 1906 -72 
Q 1375 -72 1069 397 
Q 844 6 838 0 
L 678 0 
L 678 3816 
Q 678 4053 593 4112 
Q 509 4172 178 4172 
z
M 1119 728 
Q 1119 594 1209 459 
Q 1463 72 1875 72 
Q 1878 72 1881 72 
Q 2328 72 2606 481 
Q 2803 788 2803 1388 
Q 2803 1981 2619 2278 
Q 2363 2688 1947 2688 
Q 1478 2688 1191 2278 
Q 1119 2175 1119 2047 
L 1119 728 
z
" transform="scale(0.015625)"/>
       </defs>
       <use xlink:href="#CMUSerif-Roman-46"/>
       <use xlink:href="#CMUSerif-Roman-65" transform="translate(65.185547 0)"/>
       <use xlink:href="#CMUSerif-Roman-62" transform="translate(109.570312 0)"/>
      </g>
     </g>
    </g>
    <g id="xtick_3">
     <g id="line2d_5">
      <path d="M 165.044763 295.1375 
L 165.044763 29.58 
" clip-path="url(#pf65ae1042c)" style="fill: none; stroke-dasharray: 2.96,1.28; stroke-dashoffset: 0; stroke: #e0f0e9; stroke-opacity: 0.12; stroke-width: 0.8"/>
     </g>
     <g id="line2d_6">
      <g>
       <use xlink:href="#mb2655e4447" x="165.044763" y="295.1375" style="fill: #e0f0e9; stroke: #e0f0e9; stroke-width: 0.8"/>
      </g>
     </g>
     <g id="text_3">
      <!-- Mar -->
      <g style="fill: #e0f0e9" transform="translate(154.208201 310.464375) scale(0.12 -0.12)">
       <defs>
        <path id="CMUSerif-Roman-4d" d="M 238 0 
L 238 197 
Q 469 197 616 242 
Q 763 288 817 373 
Q 872 459 884 517 
Q 897 575 897 672 
L 897 3872 
Q 897 4056 817 4114 
Q 738 4172 391 4172 
L 238 4172 
L 238 4372 
L 1319 4372 
Q 1434 4372 1465 4351 
Q 1497 4331 1544 4231 
L 2931 647 
L 4331 4250 
Q 4363 4341 4392 4356 
Q 4422 4372 4544 4372 
L 5625 4372 
L 5625 4172 
L 5472 4172 
Q 5125 4172 5045 4114 
Q 4966 4056 4966 3872 
L 4966 500 
Q 4966 316 5045 256 
Q 5125 197 5472 197 
L 5625 197 
L 5625 0 
Q 5388 19 4709 19 
Q 4025 19 3788 0 
L 3788 197 
L 3944 197 
Q 4291 197 4369 255 
Q 4447 313 4447 500 
L 4447 4172 
L 4441 4172 
L 2869 122 
Q 2825 0 2753 0 
Q 2675 0 2625 141 
L 1081 4122 
L 1075 4122 
L 1075 672 
Q 1075 575 1087 517 
Q 1100 459 1154 373 
Q 1209 288 1356 242 
Q 1503 197 1734 197 
L 1734 0 
Q 1063 19 986 19 
Q 909 19 238 0 
z
" transform="scale(0.015625)"/>
        <path id="CMUSerif-Roman-72" d="M 178 0 
L 178 197 
Q 519 197 598 239 
Q 678 281 678 488 
L 678 2203 
Q 678 2441 595 2500 
Q 513 2559 178 2559 
L 178 2759 
L 1069 2828 
L 1069 2125 
Q 1159 2400 1351 2614 
Q 1544 2828 1856 2828 
Q 2063 2828 2195 2712 
Q 2328 2597 2328 2438 
Q 2328 2297 2242 2226 
Q 2156 2156 2053 2156 
Q 1938 2156 1858 2229 
Q 1778 2303 1778 2431 
Q 1778 2509 1814 2570 
Q 1850 2631 1878 2653 
Q 1906 2675 1925 2681 
Q 1913 2688 1856 2688 
Q 1503 2688 1301 2336 
Q 1100 1984 1100 1484 
L 1100 500 
Q 1100 316 1176 256 
Q 1253 197 1588 197 
L 1722 197 
L 1722 0 
Q 1466 19 909 19 
Q 831 19 709 16 
Q 588 13 428 6 
Q 269 0 178 0 
z
" transform="scale(0.015625)"/>
       </defs>
       <use xlink:href="#CMUSerif-Roman-4d"/>
       <use xlink:href="#CMUSerif-Roman-61" transform="translate(91.552734 0)"/>
       <use xlink:href="#CMUSerif-Roman-72" transform="translate(141.552734 0)"/>
      </g>
     </g>
    </g>
    <g id="xtick_4">
     <g id="line2d_7">
      <path d="M 211.679757 295.1375 
L 211.679757 29.58 
" clip-path="url(#pf65ae1042c)" style="fill: none; stroke-dasharray: 2.96,1.28; stroke-dashoffset: 0; stroke: #e0f0e9; stroke-opacity: 0.12; stroke-width: 0.8"/>
     </g>
     <g id="line2d_8">
      <g>
       <use xlink:href="#mb2655e4447" x="211.679757" y="295.1375" style="fill: #e0f0e9; stroke: #e0f0e9; stroke-width: 0.8"/>
      </g>
     </g>
     <g id="text_4">
      <!-- Apr -->
      <g style="fill: #e0f0e9" transform="translate(201.507882 310.726875) scale(0.12 -0.12)">
       <defs>
        <path id="CMUSerif-Roman-41" d="M 206 0 
L 206 197 
Q 775 209 922 628 
L 2247 4453 
Q 2272 4531 2300 4556 
Q 2328 4581 2400 4581 
Q 2438 4581 2461 4575 
Q 2484 4569 2500 4547 
Q 2516 4525 2522 4512 
Q 2528 4500 2547 4453 
L 3928 453 
Q 3978 294 4081 245 
Q 4184 197 4475 197 
L 4588 197 
L 4588 0 
Q 4184 19 3750 19 
Q 3059 19 2828 0 
L 2828 197 
Q 3359 197 3359 391 
Q 3359 403 3341 481 
L 3003 1459 
L 1422 1459 
L 1125 622 
Q 1113 597 1113 525 
Q 1113 391 1238 294 
Q 1363 197 1594 197 
L 1594 0 
Q 978 19 856 19 
Q 647 19 206 0 
z
M 1491 1656 
L 2931 1656 
L 2209 3738 
L 1491 1656 
z
" transform="scale(0.015625)"/>
        <path id="CMUSerif-Roman-70" d="M 178 -1044 
Q 519 -1044 598 -1001 
Q 678 -959 678 -756 
L 678 2241 
Q 678 2453 598 2506 
Q 519 2559 178 2559 
L 178 2759 
L 1100 2828 
L 1100 2406 
Q 1484 2828 1997 2828 
Q 2541 2828 2937 2406 
Q 3334 1984 3334 1381 
Q 3334 772 2912 350 
Q 2491 -72 1906 -72 
Q 1588 -72 1373 92 
Q 1159 256 1119 378 
L 1119 319 
L 1119 -756 
Q 1119 -963 1200 -1003 
Q 1281 -1044 1619 -1044 
L 1619 -1241 
Q 947 -1222 897 -1222 
Q 834 -1222 178 -1241 
L 178 -1044 
z
M 1119 728 
Q 1119 631 1133 597 
Q 1147 563 1209 459 
Q 1463 72 1875 72 
Q 1878 72 1881 72 
Q 2247 72 2525 445 
Q 2803 819 2803 1381 
Q 2803 1919 2550 2294 
Q 2297 2669 1947 2669 
Q 1697 2669 1478 2534 
Q 1259 2400 1119 2156 
L 1119 728 
z
" transform="scale(0.015625)"/>
       </defs>
       <use xlink:href="#CMUSerif-Roman-41"/>
       <use xlink:href="#CMUSerif-Roman-70" transform="translate(75 0)"/>
       <use xlink:href="#CMUSerif-Roman-72" transform="translate(130.46875 0)"/>
      </g>
     </g>
    </g>
    <g id="xtick_5">
     <g id="line2d_9">
      <path d="M 256.810397 295.1375 
L 256.810397 29.58 
" clip-path="url(#pf65ae1042c)" style="fill: none; stroke-dasharray: 2.96,1.28; stroke-dashoffset: 0; stroke: #e0f0e9; stroke-opacity: 0.12; stroke-width: 0.8"/>
     </g>
     <g id="line2d_10">
      <g>
       <use xlink:href="#mb2655e4447" x="256.810397" y="295.1375" style="fill: #e0f0e9; stroke: #e0f0e9; stroke-width: 0.8"/>
      </g>
     </g>
     <g id="text_5">
      <!-- May -->
      <g style="fill: #e0f0e9" transform="translate(245.156334 310.335) scale(0.12 -0.12)">
       <defs>
        <path id="CMUSerif-Roman-79" d="M 122 -794 
Q 122 -659 201 -589 
Q 281 -519 391 -519 
Q 506 -519 582 -592 
Q 659 -666 659 -788 
Q 659 -1025 409 -1056 
Q 531 -1172 709 -1172 
Q 900 -1172 1054 -1031 
Q 1209 -891 1276 -756 
Q 1344 -622 1441 -378 
Q 1531 -188 1600 0 
L 641 2338 
Q 578 2491 481 2525 
Q 384 2559 122 2559 
L 122 2759 
Q 409 2741 744 2741 
Q 941 2741 1441 2759 
L 1441 2559 
Q 1081 2559 1081 2394 
Q 1081 2375 1119 2278 
L 1831 556 
L 2478 2131 
Q 2516 2222 2516 2284 
Q 2516 2547 2216 2559 
L 2216 2759 
Q 2638 2741 2772 2741 
Q 3034 2741 3250 2759 
L 3250 2559 
Q 2822 2559 2656 2150 
L 1528 -581 
Q 1222 -1309 709 -1313 
Q 466 -1313 294 -1163 
Q 122 -1013 122 -794 
z
" transform="scale(0.015625)"/>
       </defs>
       <use xlink:href="#CMUSerif-Roman-4d"/>
       <use xlink:href="#CMUSerif-Roman-61" transform="translate(91.552734 0)"/>
       <use xlink:href="#CMUSerif-Roman-79" transform="translate(141.552734 0)"/>
      </g>
     </g>
    </g>
    <g id="xtick_6">
     <g id="line2d_11">
      <path d="M 303.445391 295.1375 
L 303.445391 29.58 
" clip-path="url(#pf65ae1042c)" style="fill: none; stroke-dasharray: 2.96,1.28; stroke-dashoffset: 0; stroke: #e0f0e9; stroke-opacity: 0.12; stroke-width: 0.8"/>
     </g>
     <g id="line2d_12">
      <g>
       <use xlink:href="#mb2655e4447" x="303.445391" y="295.1375" style="fill: #e0f0e9; stroke: #e0f0e9; stroke-width: 0.8"/>
      </g>
     </g>
     <g id="text_6">
      <!-- Jun -->
      <g style="fill: #e0f0e9" transform="translate(293.713203 310.464375) scale(0.12 -0.12)">
       <defs>
        <path id="CMUSerif-Roman-75" d="M 206 2559 
L 206 2759 
L 1147 2828 
L 1147 703 
Q 1147 550 1159 461 
Q 1172 372 1223 269 
Q 1275 166 1395 119 
Q 1516 72 1709 72 
Q 2056 72 2270 356 
Q 2484 641 2484 1063 
L 2484 2203 
Q 2484 2441 2400 2500 
Q 2316 2559 1984 2559 
L 1984 2759 
L 2925 2828 
L 2925 556 
Q 2925 319 3008 258 
Q 3091 197 3425 197 
L 3425 0 
L 2503 -72 
L 2503 506 
Q 2234 -69 1678 -72 
Q 1397 -72 1205 0 
Q 1013 72 916 161 
Q 819 250 767 422 
Q 716 594 709 700 
Q 703 806 703 1013 
L 703 1972 
Q 703 2406 640 2482 
Q 578 2559 206 2559 
z
" transform="scale(0.015625)"/>
       </defs>
       <use xlink:href="#CMUSerif-Roman-4a"/>
       <use xlink:href="#CMUSerif-Roman-75" transform="translate(51.269531 0)"/>
       <use xlink:href="#CMUSerif-Roman-6e" transform="translate(106.738281 0)"/>
      </g>
     </g>
    </g>
    <g id="xtick_7">
     <g id="line2d_13">
      <path d="M 348.57603 295.1375 
L 348.57603 29.58 
" clip-path="url(#pf65ae1042c)" style="fill: none; stroke-dasharray: 2.96,1.28; stroke-dashoffset: 0; stroke: #e0f0e9; stroke-opacity: 0.12; stroke-width: 0.8"/>
     </g>
     <g id="line2d_14">
      <g>
       <use xlink:href="#mb2655e4447" x="348.57603" y="295.1375" style="fill: #e0f0e9; stroke: #e0f0e9; stroke-width: 0.8"/>
      </g>
     </g>
     <g id="text_7">
      <!-- Jul -->
      <g style="fill: #e0f0e9" transform="translate(340.510718 310.464375) scale(0.12 -0.12)">
       <defs>
        <path id="CMUSerif-Roman-6c" d="M 213 0 
L 213 197 
Q 553 197 631 239 
Q 709 281 709 488 
L 709 3816 
Q 709 4053 626 4112 
Q 544 4172 213 4172 
L 213 4372 
L 1131 4441 
L 1131 488 
Q 1131 281 1212 239 
Q 1294 197 1631 197 
L 1631 0 
Q 1553 0 1390 6 
Q 1228 13 1109 16 
Q 991 19 922 19 
Q 847 19 213 0 
z
" transform="scale(0.015625)"/>
       </defs>
       <use xlink:href="#CMUSerif-Roman-4a"/>
       <use xlink:href="#CMUSerif-Roman-75" transform="translate(51.269531 0)"/>
       <use xlink:href="#CMUSerif-Roman-6c" transform="translate(106.738281 0)"/>
      </g>
     </g>
    </g>
    <g id="xtick_8">
     <g id="line2d_15">
      <path d="M 395.211025 295.1375 
L 395.211025 29.58 
" clip-path="url(#pf65ae1042c)" style="fill: none; stroke-dasharray: 2.96,1.28; stroke-dashoffset: 0; stroke: #e0f0e9; stroke-opacity: 0.12; stroke-width: 0.8"/>
     </g>
     <g id="line2d_16">
      <g>
       <use xlink:href="#mb2655e4447" x="395.211025" y="295.1375" style="fill: #e0f0e9; stroke: #e0f0e9; stroke-width: 0.8"/>
      </g>
     </g>
     <g id="text_8">
      <!-- Aug -->
      <g style="fill: #e0f0e9" transform="translate(384.3829 310.726875) scale(0.12 -0.12)">
       <defs>
        <path id="CMUSerif-Roman-67" d="M 178 -506 
Q 178 -300 336 -122 
Q 494 56 769 134 
Q 488 313 488 703 
Q 488 1003 684 1234 
Q 384 1484 384 1894 
Q 384 2272 684 2550 
Q 984 2828 1422 2828 
Q 1806 2828 2100 2597 
Q 2406 2897 2778 2900 
Q 2944 2900 3023 2797 
Q 3103 2694 3103 2584 
Q 3103 2488 3042 2441 
Q 2981 2394 2919 2394 
Q 2841 2394 2786 2445 
Q 2731 2497 2731 2578 
Q 2731 2713 2834 2753 
Q 2816 2759 2772 2759 
Q 2459 2759 2194 2509 
Q 2456 2266 2456 1887 
Q 2456 1509 2156 1231 
Q 1856 953 1422 953 
Q 1063 953 788 1153 
Q 678 1025 678 850 
Q 678 691 775 566 
Q 872 441 1019 422 
Q 1063 416 1497 416 
Q 1753 416 1893 409 
Q 2034 403 2236 361 
Q 2438 319 2597 238 
Q 3013 6 3016 -494 
Q 3016 -859 2595 -1089 
Q 2175 -1319 1594 -1319 
Q 1006 -1319 592 -1086 
Q 178 -853 178 -506 
z
M 513 -506 
Q 513 -769 822 -970 
Q 1131 -1172 1600 -1172 
Q 2059 -1172 2370 -973 
Q 2681 -775 2681 -506 
Q 2681 -316 2572 -194 
Q 2463 -72 2239 -23 
Q 2016 25 1859 34 
Q 1703 44 1416 44 
L 1038 44 
Q 819 31 666 -128 
Q 513 -288 513 -506 
z
M 863 1888 
Q 863 1100 1422 1100 
Q 1703 1100 1875 1356 
Q 1978 1528 1978 1894 
Q 1978 2681 1422 2681 
Q 1141 2681 966 2425 
Q 863 2253 863 1888 
z
" transform="scale(0.015625)"/>
       </defs>
       <use xlink:href="#CMUSerif-Roman-41"/>
       <use xlink:href="#CMUSerif-Roman-75" transform="translate(75 0)"/>
       <use xlink:href="#CMUSerif-Roman-67" transform="translate(130.46875 0)"/>
      </g>
     </g>
    </g>
    <g id="xtick_9">
     <g id="line2d_17">
      <path d="M 441.846019 295.1375 
L 441.846019 29.58 
" clip-path="url(#pf65ae1042c)" style="fill: none; stroke-dasharray: 2.96,1.28; stroke-dashoffset: 0; stroke: #e0f0e9; stroke-opacity: 0.12; stroke-width: 0.8"/>
     </g>
     <g id="line2d_18">
      <g>
       <use xlink:href="#mb2655e4447" x="441.846019" y="295.1375" style="fill: #e0f0e9; stroke: #e0f0e9; stroke-width: 0.8"/>
      </g>
     </g>
     <g id="text_9">
      <!-- Sep -->
      <g style="fill: #e0f0e9" transform="translate(432.526331 310.599375) scale(0.12 -0.12)">
       <defs>
        <path id="CMUSerif-Roman-53" d="M 359 13 
L 359 1294 
Q 359 1366 362 1391 
Q 366 1416 384 1434 
Q 403 1453 441 1453 
Q 513 1453 519 1388 
Q 538 753 916 403 
Q 1288 56 1925 56 
Q 2309 56 2546 332 
Q 2784 609 2784 972 
Q 2784 1319 2584 1563 
Q 2500 1672 2395 1742 
Q 2291 1813 2227 1834 
Q 2163 1856 2041 1888 
Q 1247 2078 1197 2100 
Q 819 2228 589 2551 
Q 359 2875 359 3272 
Q 359 3784 720 4148 
Q 1081 4513 1606 4513 
Q 1869 4513 2089 4430 
Q 2309 4347 2400 4272 
Q 2491 4197 2631 4063 
L 2853 4428 
Q 2903 4513 2950 4513 
Q 3000 4513 3011 4483 
Q 3022 4453 3022 4359 
L 3022 3072 
Q 3022 3000 3019 2975 
Q 3016 2950 2995 2934 
Q 2975 2919 2938 2919 
Q 2875 2919 2859 2994 
Q 2681 4331 1613 4331 
Q 1247 4331 1008 4086 
Q 769 3841 769 3494 
Q 769 3213 944 2983 
Q 1119 2753 1416 2681 
L 2234 2484 
Q 2644 2388 2919 2025 
Q 3194 1663 3194 1191 
Q 3194 647 2839 253 
Q 2484 -141 1931 -141 
Q 1534 -141 1228 -9 
Q 922 122 756 306 
Q 628 94 544 -25 
L 525 -56 
Q 475 -141 428 -141 
Q 378 -141 368 -109 
Q 359 -78 359 13 
z
" transform="scale(0.015625)"/>
       </defs>
       <use xlink:href="#CMUSerif-Roman-53"/>
       <use xlink:href="#CMUSerif-Roman-65" transform="translate(55.46875 0)"/>
       <use xlink:href="#CMUSerif-Roman-70" transform="translate(99.853516 0)"/>
      </g>
     </g>
    </g>
    <g id="xtick_10">
     <g id="line2d_19">
      <path d="M 486.976658 295.1375 
L 486.976658 29.58 
" clip-path="url(#pf65ae1042c)" style="fill: none; stroke-dasharray: 2.96,1.28; stroke-dashoffset: 0; stroke: #e0f0e9; stroke-opacity: 0.12; stroke-width: 0.8"/>
     </g>
     <g id="line2d_20">
      <g>
       <use xlink:href="#mb2655e4447" x="486.976658" y="295.1375" style="fill: #e0f0e9; stroke: #e0f0e9; stroke-width: 0.8"/>
      </g>
     </g>
     <g id="text_10">
      <!-- Oct -->
      <g style="fill: #e0f0e9" transform="translate(477.326033 310.464375) scale(0.12 -0.12)">
       <defs>
        <path id="CMUSerif-Roman-4f" d="M 359 2169 
Q 359 3147 986 3830 
Q 1613 4513 2484 4513 
Q 3363 4513 3989 3828 
Q 4616 3144 4616 2169 
Q 4616 1203 3987 531 
Q 3359 -141 2484 -141 
Q 1622 -141 990 528 
Q 359 1197 359 2169 
z
M 1019 2259 
Q 1019 1666 1159 1211 
Q 1300 756 1526 509 
Q 1753 263 1997 144 
Q 2241 25 2491 25 
Q 2734 25 2973 140 
Q 3213 256 3441 500 
Q 3669 744 3812 1200 
Q 3956 1656 3956 2259 
Q 3956 2728 3856 3104 
Q 3756 3481 3600 3709 
Q 3444 3938 3242 4088 
Q 3041 4238 2852 4295 
Q 2663 4353 2484 4353 
Q 2259 4353 2025 4253 
Q 1791 4153 1555 3933 
Q 1319 3713 1169 3280 
Q 1019 2847 1019 2259 
z
" transform="scale(0.015625)"/>
        <path id="CMUSerif-Roman-63" d="M 625 351 
Q 219 775 219 1383 
Q 219 1991 619 2430 
Q 1019 2869 1606 2869 
Q 1997 2869 2290 2683 
Q 2584 2497 2584 2181 
Q 2584 2041 2501 1961 
Q 2419 1881 2291 1881 
Q 2156 1881 2076 1964 
Q 1997 2047 1997 2175 
Q 1997 2231 2015 2287 
Q 2034 2344 2104 2403 
Q 2175 2463 2297 2472 
Q 2069 2706 1625 2706 
Q 1619 2706 1613 2706 
Q 1288 2706 1019 2400 
Q 750 2094 750 1394 
Q 750 1028 839 761 
Q 928 494 1075 356 
Q 1222 219 1365 155 
Q 1509 91 1650 91 
Q 2278 91 2491 763 
Q 2509 825 2572 825 
Q 2656 825 2656 763 
Q 2656 731 2631 650 
Q 2606 569 2528 441 
Q 2450 313 2339 202 
Q 2228 91 2033 9 
Q 1838 -72 1594 -72 
Q 1031 -72 625 351 
z
" transform="scale(0.015625)"/>
        <path id="CMUSerif-Roman-74" d="M 122 2559 
L 122 2700 
Q 416 2713 611 2920 
Q 806 3128 873 3384 
Q 941 3641 947 3938 
L 1106 3938 
L 1106 2759 
L 2022 2759 
L 2022 2559 
L 1106 2559 
L 1106 781 
Q 1106 91 1538 91 
Q 1722 91 1844 280 
Q 1966 469 1966 806 
L 1966 1159 
L 2125 1159 
L 2125 794 
Q 2125 447 1965 187 
Q 1806 -72 1491 -72 
Q 1375 -72 1261 -42 
Q 1147 -13 998 64 
Q 850 141 758 330 
Q 666 519 666 794 
L 666 2559 
L 122 2559 
z
" transform="scale(0.015625)"/>
       </defs>
       <use xlink:href="#CMUSerif-Roman-4f"/>
       <use xlink:href="#CMUSerif-Roman-63" transform="translate(77.685547 0)"/>
       <use xlink:href="#CMUSerif-Roman-74" transform="translate(122.070312 0)"/>
      </g>
     </g>
    </g>
    <g id="xtick_11">
     <g id="line2d_21">
      <path d="M 533.611652 295.1375 
L 533.611652 29.58 
" clip-path="url(#pf65ae1042c)" style="fill: none; stroke-dasharray: 2.96,1.28; stroke-dashoffset: 0; stroke: #e0f0e9; stroke-opacity: 0.12; stroke-width: 0.8"/>
     </g>
     <g id="line2d_22">
      <g>
       <use xlink:href="#mb2655e4447" x="533.611652" y="295.1375" style="fill: #e0f0e9; stroke: #e0f0e9; stroke-width: 0.8"/>
      </g>
     </g>
     <g id="text_11">
      <!-- Nov -->
      <g style="fill: #e0f0e9" transform="translate(522.950402 310.464375) scale(0.12 -0.12)">
       <defs>
        <path id="CMUSerif-Roman-4e" d="M 213 0 
L 213 197 
Q 444 197 591 242 
Q 738 288 791 373 
Q 844 459 858 517 
Q 872 575 872 672 
L 872 4013 
Q 872 4103 848 4125 
Q 825 4147 716 4159 
Q 525 4172 397 4172 
L 213 4172 
L 213 4372 
L 1300 4372 
Q 1391 4372 1416 4359 
Q 1441 4347 1484 4288 
L 3744 966 
L 3744 3700 
Q 3744 3797 3731 3853 
Q 3719 3909 3664 3996 
Q 3609 4084 3462 4128 
Q 3316 4172 3084 4172 
L 3084 4372 
Q 3756 4353 3832 4353 
Q 3909 4353 4581 4372 
L 4581 4172 
Q 4350 4172 4203 4128 
Q 4056 4084 4003 3996 
Q 3950 3909 3936 3851 
Q 3922 3794 3922 3700 
L 3922 166 
Q 3922 63 3909 31 
Q 3897 0 3834 0 
Q 3791 0 3725 84 
L 1113 3922 
Q 1088 3959 1050 4000 
L 1050 672 
Q 1050 575 1062 517 
Q 1075 459 1129 373 
Q 1184 288 1331 242 
Q 1478 197 1709 197 
L 1709 0 
Q 1038 19 961 19 
Q 884 19 213 0 
z
" transform="scale(0.015625)"/>
        <path id="CMUSerif-Roman-6f" d="M 601 345 
Q 178 763 178 1370 
Q 178 1978 592 2423 
Q 1006 2869 1600 2869 
Q 2181 2869 2598 2426 
Q 3016 1984 3016 1369 
Q 3016 766 2595 347 
Q 2175 -72 1594 -72 
Q 1025 -72 601 345 
z
M 709 1422 
Q 709 800 872 519 
Q 1122 91 1600 91 
Q 1838 91 2036 219 
Q 2234 347 2344 563 
Q 2484 844 2484 1422 
Q 2484 2038 2316 2309 
Q 2066 2725 1594 2725 
Q 1388 2725 1186 2617 
Q 984 2509 863 2297 
Q 709 2016 709 1422 
z
" transform="scale(0.015625)"/>
        <path id="CMUSerif-Roman-76" d="M 122 2559 
L 122 2759 
Q 409 2741 744 2741 
Q 866 2741 1441 2759 
L 1441 2559 
Q 1075 2559 1075 2394 
Q 1075 2369 1113 2284 
L 1831 500 
L 2484 2131 
Q 2522 2241 2522 2284 
Q 2522 2394 2448 2473 
Q 2375 2553 2216 2559 
L 2216 2759 
Q 2541 2741 2772 2741 
Q 3034 2741 3250 2759 
L 3250 2559 
Q 3059 2559 2925 2473 
Q 2791 2388 2748 2314 
Q 2706 2241 2663 2131 
L 1825 50 
Q 1775 -72 1691 -72 
Q 1634 -72 1611 -48 
Q 1588 -25 1556 50 
L 634 2322 
Q 572 2481 490 2520 
Q 409 2559 122 2559 
z
" transform="scale(0.015625)"/>
       </defs>
       <use xlink:href="#CMUSerif-Roman-4e"/>
       <use xlink:href="#CMUSerif-Roman-6f" transform="translate(75 0)"/>
       <use xlink:href="#CMUSerif-Roman-76" transform="translate(125 0)"/>
      </g>
     </g>
    </g>
   </g>
   <g id="matplotlib.axis_2">
    <g id="ytick_1">
     <g id="line2d_23">
      <path d="M 57.8 295.1375 
L 565.2 295.1375 
" clip-path="url(#pf65ae1042c)" style="fill: none; stroke-dasharray: 2.96,1.28; stroke-dashoffset: 0; stroke: #e0f0e9; stroke-opacity: 0.12; stroke-width: 0.8"/>
     </g>
     <g id="line2d_24">
      <defs>
       <path id="md0dac8808b" d="M 0 0 
L -3.5 0 
" style="stroke: #e0f0e9; stroke-width: 0.8"/>
      </defs>
      <g>
       <use xlink:href="#md0dac8808b" x="57.8" y="295.1375" style="fill: #e0f0e9; stroke: #e0f0e9; stroke-width: 0.8"/>
      </g>
     </g>
     <g id="text_12">
      <!-- 0 -->
      <g style="fill: #e0f0e9" transform="translate(44.8 299.300937) scale(0.12 -0.12)">
       <defs>
        <path id="CMUSerif-Roman-30" d="M 250 2047 
Q 250 2988 488 3500 
Q 819 4263 1600 4263 
Q 1766 4263 1939 4217 
Q 2113 4172 2333 4000 
Q 2553 3828 2688 3547 
Q 2944 3003 2944 2047 
Q 2944 1113 2706 603 
Q 2359 -141 1594 -141 
Q 1306 -141 1014 6 
Q 722 153 538 506 
Q 250 1034 250 2047 
z
M 781 2125 
Q 781 1159 850 775 
Q 928 359 1142 179 
Q 1356 0 1594 0 
Q 1850 0 2064 192 
Q 2278 384 2344 800 
Q 2416 1209 2413 2125 
Q 2413 3016 2350 3372 
Q 2266 3788 2042 3955 
Q 1819 4122 1594 4122 
Q 1509 4122 1420 4097 
Q 1331 4072 1203 4000 
Q 1075 3928 976 3750 
Q 878 3572 831 3303 
Q 781 2956 781 2125 
z
" transform="scale(0.015625)"/>
       </defs>
       <use xlink:href="#CMUSerif-Roman-30"/>
      </g>
     </g>
    </g>
    <g id="ytick_2">
     <g id="line2d_25">
      <path d="M 57.8 244.555119 
L 565.2 244.555119 
" clip-path="url(#pf65ae1042c)" style="fill: none; stroke-dasharray: 2.96,1.28; stroke-dashoffset: 0; stroke: #e0f0e9; stroke-opacity: 0.12; stroke-width: 0.8"/>
     </g>
     <g id="line2d_26">
      <g>
       <use xlink:href="#md0dac8808b" x="57.8" y="244.555119" style="fill: #e0f0e9; stroke: #e0f0e9; stroke-width: 0.8"/>
      </g>
     </g>
     <g id="text_13">
      <!-- 20 -->
      <g style="fill: #e0f0e9" transform="translate(38.8 248.718557) scale(0.12 -0.12)">
       <defs>
        <path id="CMUSerif-Roman-32" d="M 319 0 
Q 319 116 330 150 
Q 341 184 391 238 
L 1619 1606 
Q 2291 2363 2291 3022 
Q 2291 3450 2067 3756 
Q 1844 4063 1434 4063 
Q 1153 4063 915 3891 
Q 678 3719 569 3413 
Q 588 3419 653 3419 
Q 813 3419 902 3319 
Q 991 3219 991 3084 
Q 991 2913 880 2830 
Q 769 2747 659 2747 
Q 616 2747 558 2756 
Q 500 2766 409 2855 
Q 319 2944 319 3103 
Q 319 3550 658 3906 
Q 997 4263 1516 4263 
Q 2103 4263 2489 3914 
Q 2875 3566 2875 3022 
Q 2875 2831 2817 2657 
Q 2759 2484 2682 2350 
Q 2606 2216 2400 2000 
Q 2194 1784 2028 1631 
Q 1863 1478 1491 1153 
L 813 494 
L 1966 494 
Q 2528 494 2572 544 
Q 2634 634 2713 1113 
L 2875 1113 
L 2694 0 
L 319 0 
z
" transform="scale(0.015625)"/>
       </defs>
       <use xlink:href="#CMUSerif-Roman-32"/>
       <use xlink:href="#CMUSerif-Roman-30" transform="translate(50 0)"/>
      </g>
     </g>
    </g>
    <g id="ytick_3">
     <g id="line2d_27">
      <path d="M 57.8 193.972738 
L 565.2 193.972738 
" clip-path="url(#pf65ae1042c)" style="fill: none; stroke-dasharray: 2.96,1.28; stroke-dashoffset: 0; stroke: #e0f0e9; stroke-opacity: 0.12; stroke-width: 0.8"/>
     </g>
     <g id="line2d_28">
      <g>
       <use xlink:href="#md0dac8808b" x="57.8" y="193.972738" style="fill: #e0f0e9; stroke: #e0f0e9; stroke-width: 0.8"/>
      </g>
     </g>
     <g id="text_14">
      <!-- 40 -->
      <g style="fill: #e0f0e9" transform="translate(38.8 198.136176) scale(0.12 -0.12)">
       <defs>
        <path id="CMUSerif-Roman-34" d="M 178 1056 
L 178 1253 
L 2144 4256 
Q 2194 4334 2272 4331 
Q 2344 4331 2359 4303 
Q 2375 4275 2375 4166 
L 2375 1253 
L 3016 1253 
L 3016 1056 
L 2375 1056 
L 2375 500 
Q 2375 316 2451 256 
Q 2528 197 2859 197 
L 2994 197 
L 2994 0 
Q 2731 19 2125 19 
Q 1522 19 1259 0 
L 1259 197 
L 1394 197 
Q 1725 197 1803 255 
Q 1881 313 1881 500 
L 1881 1056 
L 178 1056 
z
M 359 1253 
L 1919 1253 
L 1919 3641 
L 359 1253 
z
" transform="scale(0.015625)"/>
       </defs>
       <use xlink:href="#CMUSerif-Roman-34"/>
       <use xlink:href="#CMUSerif-Roman-30" transform="translate(50 0)"/>
      </g>
     </g>
    </g>
    <g id="ytick_4">
     <g id="line2d_29">
      <path d="M 57.8 143.390357 
L 565.2 143.390357 
" clip-path="url(#pf65ae1042c)" style="fill: none; stroke-dasharray: 2.96,1.28; stroke-dashoffset: 0; stroke: #e0f0e9; stroke-opacity: 0.12; stroke-width: 0.8"/>
     </g>
     <g id="line2d_30">
      <g>
       <use xlink:href="#md0dac8808b" x="57.8" y="143.390357" style="fill: #e0f0e9; stroke: #e0f0e9; stroke-width: 0.8"/>
      </g>
     </g>
     <g id="text_15">
      <!-- 60 -->
      <g style="fill: #e0f0e9" transform="translate(38.8 147.553795) scale(0.12 -0.12)">
       <defs>
        <path id="CMUSerif-Roman-36" d="M 269 2022 
Q 269 3028 781 3645 
Q 1294 4263 1953 4263 
Q 2338 4263 2552 4067 
Q 2766 3872 2766 3572 
Q 2766 3406 2669 3334 
Q 2572 3263 2472 3263 
Q 2356 3263 2265 3341 
Q 2175 3419 2175 3559 
Q 2175 3847 2528 3847 
Q 2363 4103 1966 4103 
Q 1844 4103 1719 4067 
Q 1594 4031 1431 3912 
Q 1269 3794 1144 3606 
Q 1019 3419 931 3066 
Q 844 2713 844 2253 
L 844 2100 
Q 1106 2734 1643 2732 
Q 2181 2731 2553 2322 
Q 2925 1913 2925 1306 
Q 2925 684 2537 271 
Q 2150 -141 1606 -141 
Q 1363 -141 1142 -39 
Q 922 63 717 294 
Q 513 525 391 969 
Q 269 1413 269 2022 
z
M 856 1447 
Q 856 819 972 519 
Q 991 469 1033 400 
Q 1075 331 1148 242 
Q 1222 153 1344 95 
Q 1466 38 1606 38 
Q 2034 38 2241 453 
Q 2350 684 2350 1313 
Q 2350 1953 2234 2188 
Q 2038 2584 1638 2584 
Q 1369 2584 1183 2400 
Q 997 2216 926 1969 
Q 856 1722 856 1447 
z
" transform="scale(0.015625)"/>
       </defs>
       <use xlink:href="#CMUSerif-Roman-36"/>
       <use xlink:href="#CMUSerif-Roman-30" transform="translate(50 0)"/>
      </g>
     </g>
    </g>
    <g id="ytick_5">
     <g id="line2d_31">
      <path d="M 57.8 92.807976 
L 565.2 92.807976 
" clip-path="url(#pf65ae1042c)" style="fill: none; stroke-dasharray: 2.96,1.28; stroke-dashoffset: 0; stroke: #e0f0e9; stroke-opacity: 0.12; stroke-width: 0.8"/>
     </g>
     <g id="line2d_32">
      <g>
       <use xlink:href="#md0dac8808b" x="57.8" y="92.807976" style="fill: #e0f0e9; stroke: #e0f0e9; stroke-width: 0.8"/>
      </g>
     </g>
     <g id="text_16">
      <!-- 80 -->
      <g style="fill: #e0f0e9" transform="translate(38.8 96.971414) scale(0.12 -0.12)">
       <defs>
        <path id="CMUSerif-Roman-38" d="M 269 966 
Q 269 1681 1191 2144 
Q 794 2413 722 2491 
Q 441 2803 441 3194 
Q 441 3641 780 3952 
Q 1119 4263 1600 4263 
Q 2059 4263 2406 3997 
Q 2753 3731 2753 3309 
Q 2753 2716 1978 2316 
Q 2491 1997 2613 1863 
Q 2925 1516 2925 1075 
Q 2925 563 2531 211 
Q 2138 -141 1594 -141 
Q 1063 -141 666 168 
Q 269 478 269 966 
z
M 588 966 
Q 588 569 886 303 
Q 1184 38 1600 38 
Q 2003 38 2304 269 
Q 2606 500 2606 844 
Q 2606 978 2561 1093 
Q 2516 1209 2427 1301 
Q 2338 1394 2283 1436 
Q 2228 1478 2125 1550 
L 1338 2047 
Q 588 1631 588 966 
z
M 722 3444 
Q 722 3138 1044 2925 
L 1838 2413 
Q 2472 2784 2472 3309 
Q 2472 3650 2212 3876 
Q 1953 4103 1594 4103 
Q 1241 4103 981 3917 
Q 722 3731 722 3444 
z
" transform="scale(0.015625)"/>
       </defs>
       <use xlink:href="#CMUSerif-Roman-38"/>
       <use xlink:href="#CMUSerif-Roman-30" transform="translate(50 0)"/>
      </g>
     </g>
    </g>
    <g id="ytick_6">
     <g id="line2d_33">
      <path d="M 57.8 42.225595 
L 565.2 42.225595 
" clip-path="url(#pf65ae1042c)" style="fill: none; stroke-dasharray: 2.96,1.28; stroke-dashoffset: 0; stroke: #e0f0e9; stroke-opacity: 0.12; stroke-width: 0.8"/>
     </g>
     <g id="line2d_34">
      <g>
       <use xlink:href="#md0dac8808b" x="57.8" y="42.225595" style="fill: #e0f0e9; stroke: #e0f0e9; stroke-width: 0.8"/>
      </g>
     </g>
     <g id="text_17">
      <!-- 100 -->
      <g style="fill: #e0f0e9" transform="translate(32.8 46.389033) scale(0.12 -0.12)">
       <defs>
        <path id="CMUSerif-Roman-31" d="M 569 3653 
L 569 3853 
Q 1338 3853 1734 4263 
Q 1844 4263 1862 4238 
Q 1881 4213 1881 4097 
L 1881 506 
Q 1881 316 1975 256 
Q 2069 197 2478 197 
L 2681 197 
L 2681 0 
Q 2456 19 1643 19 
Q 831 19 609 0 
L 609 197 
L 813 197 
Q 1216 197 1312 255 
Q 1409 313 1409 506 
L 1409 3822 
Q 1075 3653 569 3653 
z
" transform="scale(0.015625)"/>
       </defs>
       <use xlink:href="#CMUSerif-Roman-31"/>
       <use xlink:href="#CMUSerif-Roman-30" transform="translate(50 0)"/>
       <use xlink:href="#CMUSerif-Roman-30" transform="translate(100 0)"/>
      </g>
     </g>
    </g>
    <g id="text_18">
     <!-- Price (¢) -->
     <g style="fill: #e0f0e9" transform="translate(24.3 196.944062) rotate(-90) scale(0.18 -0.18)">
      <defs>
       <path id="CMUSerif-Roman-50" d="M 225 0 
L 225 197 
L 378 197 
Q 725 197 804 255 
Q 884 313 884 500 
L 884 3872 
Q 884 4056 803 4114 
Q 722 4172 378 4172 
L 225 4172 
L 225 4372 
L 2484 4372 
Q 3131 4372 3562 4015 
Q 3994 3659 3994 3181 
Q 3994 2706 3555 2364 
Q 3116 2022 2534 2022 
L 1453 2022 
L 1453 500 
Q 1453 316 1533 256 
Q 1613 197 1959 197 
L 2113 197 
L 2113 0 
Q 1888 19 1166 19 
Q 450 19 225 0 
z
M 1434 2188 
L 2316 2188 
Q 2603 2188 2812 2269 
Q 3022 2350 3117 2448 
Q 3213 2547 3267 2708 
Q 3322 2869 3328 2958 
Q 3334 3047 3334 3181 
Q 3334 3322 3328 3411 
Q 3322 3500 3267 3661 
Q 3213 3822 3117 3920 
Q 3022 4019 2814 4095 
Q 2606 4172 2316 4172 
L 1747 4172 
Q 1528 4172 1481 4128 
Q 1434 4084 1434 3916 
L 1434 2188 
z
" transform="scale(0.015625)"/>
       <path id="CMUSerif-Roman-69" d="M 213 0 
L 213 197 
Q 553 197 631 239 
Q 709 281 709 488 
L 709 2209 
Q 709 2447 629 2503 
Q 550 2559 238 2559 
L 238 2759 
L 1131 2828 
L 1131 481 
Q 1131 291 1200 244 
Q 1269 197 1581 197 
L 1581 0 
Q 928 19 916 19 
Q 828 19 213 0 
z
M 481 3944 
Q 481 4072 579 4176 
Q 678 4281 818 4281 
Q 959 4281 1059 4186 
Q 1159 4091 1159 3942 
Q 1159 3794 1059 3698 
Q 959 3603 819 3603 
Q 672 3603 576 3706 
Q 481 3809 481 3944 
z
" transform="scale(0.015625)"/>
       <path id="CMUSerif-Roman-20" transform="scale(0.015625)"/>
       <path id="CMUSerif-Roman-28" d="M 634 1600 
Q 634 2681 1038 3553 
Q 1209 3919 1450 4225 
Q 1691 4531 1850 4665 
Q 2009 4800 2053 4800 
Q 2116 4800 2119 4738 
Q 2119 4706 2034 4628 
Q 1003 3578 1006 1600 
Q 1006 -384 2009 -1394 
Q 2119 -1503 2119 -1538 
Q 2119 -1600 2053 -1600 
Q 2009 -1600 1856 -1472 
Q 1703 -1344 1465 -1050 
Q 1228 -756 1056 -397 
Q 634 475 634 1600 
z
" transform="scale(0.015625)"/>
       <path id="CMUSerif-Roman-a2" d="M 213 1375 
Q 213 1956 625 2382 
Q 1038 2809 1678 2853 
L 1678 3413 
L 1875 3413 
L 1875 2853 
Q 2369 2841 2656 2666 
Q 2944 2491 2944 2188 
Q 2944 2041 2861 1961 
Q 2778 1881 2656 1881 
Q 2528 1881 2445 1967 
Q 2363 2053 2363 2175 
Q 2363 2425 2650 2472 
Q 2375 2678 1875 2694 
L 1875 97 
Q 2144 116 2336 198 
Q 2528 281 2617 384 
Q 2706 488 2761 589 
Q 2816 691 2852 758 
Q 2888 825 2931 825 
Q 3009 825 3009 756 
Q 3009 725 2979 647 
Q 2950 569 2870 450 
Q 2791 331 2672 226 
Q 2553 122 2342 39 
Q 2131 -44 1875 -63 
L 1875 -622 
L 1678 -622 
L 1678 -63 
Q 1044 -19 628 393 
Q 213 806 213 1375 
z
M 750 1381 
Q 750 906 976 548 
Q 1203 191 1678 103 
L 1678 2688 
Q 1250 2631 1000 2290 
Q 750 1950 750 1381 
z
" transform="scale(0.015625)"/>
       <path id="CMUSerif-Roman-29" d="M 366 -1538 
Q 366 -1506 447 -1428 
Q 1478 -378 1478 1600 
Q 1478 3584 488 4588 
Q 366 4703 366 4738 
Q 366 4800 428 4800 
Q 472 4800 626 4672 
Q 781 4544 1017 4250 
Q 1253 3956 1428 3597 
Q 1850 2725 1850 1600 
Q 1850 519 1447 -353 
Q 1275 -719 1034 -1025 
Q 794 -1331 634 -1465 
Q 475 -1600 428 -1600 
Q 366 -1600 366 -1538 
z
" transform="scale(0.015625)"/>
      </defs>
      <use xlink:href="#CMUSerif-Roman-50"/>
      <use xlink:href="#CMUSerif-Roman-72" transform="translate(67.96875 0)"/>
      <use xlink:href="#CMUSerif-Roman-69" transform="translate(107.03125 0)"/>
      <use xlink:href="#CMUSerif-Roman-63" transform="translate(134.716797 0)"/>
      <use xlink:href="#CMUSerif-Roman-65" transform="translate(179.101562 0)"/>
      <use xlink:href="#CMUSerif-Roman-20" transform="translate(223.486328 0)"/>
      <use xlink:href="#CMUSerif-Roman-28" transform="translate(256.738281 0)"/>
      <use xlink:href="#CMUSerif-Roman-a2" transform="translate(295.507812 0)"/>
      <use xlink:href="#CMUSerif-Roman-29" transform="translate(345.507812 0)"/>
     </g>
    </g>
   </g>
   <g id="line2d_35">
    <path d="M 80.863636 168.681548 
L 80.926318 168.681548 
L 81.051681 191.443619 
L 81.177026 192.708179 
L 82.681381 192.708179 
L 82.806744 190.17906 
L 82.932124 192.708179 
L 84.812567 192.708179 
L 84.93793 195.237298 
L 85.063293 195.237298 
L 85.125957 192.708179 
L 85.25132 175.004345 
L 85.564745 175.004345 
L 85.690108 177.533464 
L 87.758578 177.533464 
L 87.94664 181.327143 
L 88.009304 181.327143 
L 88.134666 180.062583 
L 89.26295 180.062583 
L 89.388313 177.533464 
L 90.015127 177.533464 
L 90.14049 175.004345 
L 92.334341 175.004345 
L 92.459703 172.475226 
L 92.647748 175.004345 
L 92.773093 175.004345 
L 92.898456 172.475226 
L 94.778917 172.475226 
L 94.904262 175.004345 
L 97.912972 175.004345 
L 98.038335 172.475226 
L 106.563028 172.475226 
L 106.751073 164.887869 
L 107.691277 164.887869 
L 107.879339 157.300512 
L 120.227566 157.300512 
L 120.352929 159.829631 
L 121.293168 159.829631 
L 121.418513 162.35875 
L 133.829439 162.35875 
L 133.954802 164.887869 
L 134.644315 164.887869 
L 134.706979 163.62331 
L 134.832342 164.887869 
L 135.960608 164.887869 
L 136.085971 162.35875 
L 139.157362 162.35875 
L 139.220043 158.565071 
L 139.282725 159.829631 
L 139.408105 158.565071 
L 139.53345 159.829631 
L 140.724398 159.829631 
L 140.849761 162.35875 
L 141.978044 162.35875 
L 142.040725 161.09419 
L 142.166071 162.35875 
L 143.795788 162.35875 
L 143.858487 159.829631 
L 143.921151 162.35875 
L 143.983833 161.09419 
L 144.673346 161.09419 
L 144.798692 162.35875 
L 148.18349 162.35875 
L 148.246171 158.565071 
L 148.308852 159.829631 
L 149.562499 159.829631 
L 149.750526 157.300512 
L 154.765059 157.300512 
L 154.890421 159.829631 
L 160.281008 159.829631 
L 160.406389 162.35875 
L 167.740117 162.35875 
L 167.928144 159.829631 
L 170.372738 159.829631 
L 170.43542 162.35875 
L 170.498101 158.565071 
L 170.560782 159.829631 
L 179.273486 159.829631 
L 179.398866 162.35875 
L 179.900318 162.35875 
L 180.025663 164.887869 
L 199.394247 164.887869 
L 199.519609 169.946107 
L 208.608401 169.946107 
L 208.733764 172.475226 
L 215.942148 172.475226 
L 216.004829 182.591702 
L 216.067511 175.004345 
L 216.318236 175.004345 
L 216.443582 177.533464 
L 225.407046 177.533464 
L 225.532391 180.062583 
L 235.310714 180.062583 
L 235.436077 182.591702 
L 238.820875 182.591702 
L 238.94622 187.64994 
L 241.265451 187.64994 
L 241.390796 185.120821 
L 247.345551 185.120821 
L 247.470896 187.64994 
L 250.855712 187.64994 
L 250.981075 185.120821 
L 256.810449 185.120821 
L 256.935812 182.591702 
L 257.311901 182.591702 
L 257.437246 180.062583 
L 261.07277 180.062583 
L 261.198133 177.533464 
L 268.719941 177.533464 
L 268.845304 180.062583 
L 269.221375 180.062583 
L 269.346738 182.591702 
L 275.677564 182.591702 
L 275.865608 177.533464 
L 275.990971 177.533464 
L 276.053635 173.739786 
L 276.116334 175.004345 
L 276.367059 175.004345 
L 276.429741 173.739786 
L 276.492422 166.152429 
L 276.617803 172.475226 
L 279.062362 172.475226 
L 279.187724 169.946107 
L 281.569619 169.946107 
L 281.695 167.416988 
L 282.760567 167.416988 
L 282.88593 164.887869 
L 286.270728 164.887869 
L 286.39609 162.35875 
L 286.834861 162.35875 
L 287.022905 158.565071 
L 287.14825 157.300512 
L 288.652622 157.300512 
L 288.715304 154.771393 
L 288.777985 157.300512 
L 288.840667 154.771393 
L 288.903348 156.035952 
L 288.96603 156.035952 
L 289.091393 157.300512 
L 289.216755 156.035952 
L 289.342101 157.300512 
L 289.467481 157.300512 
L 289.592862 154.771393 
L 289.718207 154.771393 
L 289.84357 157.300512 
L 289.968933 157.300512 
L 290.094296 154.771393 
L 290.156977 156.035952 
L 290.219659 154.771393 
L 290.345021 157.300512 
L 291.222562 157.300512 
L 291.347925 154.771393 
L 291.473287 157.300512 
L 291.661332 157.300512 
L 291.786695 154.771393 
L 292.288164 154.771393 
L 292.413492 157.300512 
L 293.291067 157.300512 
L 293.353731 154.771393 
L 293.416412 157.300512 
L 293.479094 156.035952 
L 293.729819 156.035952 
L 293.855182 154.771393 
L 293.980545 154.771393 
L 294.043227 156.035952 
L 294.16859 154.771393 
L 297.929476 154.771393 
L 298.054839 152.242274 
L 301.878407 152.242274 
L 302.066451 159.829631 
L 302.129115 159.829631 
L 302.191814 162.35875 
L 302.317177 157.300512 
L 302.379859 158.565071 
L 302.505204 159.829631 
L 303.00669 159.829631 
L 303.194717 157.300512 
L 303.821532 157.300512 
L 303.946895 159.829631 
L 308.271914 159.829631 
L 308.459959 154.771393 
L 311.782058 154.771393 
L 311.907421 157.300512 
L 312.973005 157.300512 
L 313.098368 154.771393 
L 317.987538 154.771393 
L 318.112918 152.242274 
L 319.679937 152.242274 
L 319.8053 154.771393 
L 320.996247 154.771393 
L 321.12161 152.242274 
L 323.440824 152.242274 
L 323.566187 154.771393 
L 324.255683 154.771393 
L 324.381045 152.242274 
L 336.102493 152.242274 
L 336.227838 149.713155 
L 339.173866 149.713155 
L 339.299229 147.184036 
L 340.615539 147.184036 
L 340.740902 144.654917 
L 344.1257 144.654917 
L 344.251063 142.125798 
L 344.313727 121.892845 
L 344.376426 126.951083 
L 344.564453 139.596679 
L 344.689816 139.596679 
L 344.815179 137.06756 
L 344.940559 137.06756 
L 345.065904 134.53844 
L 345.253966 134.53844 
L 345.442011 139.596679 
L 345.567356 137.06756 
L 345.880763 137.06756 
L 345.943445 134.53844 
L 346.006143 137.06756 
L 346.068808 134.53844 
L 346.131489 135.803 
L 346.256852 134.53844 
L 346.382215 134.53844 
L 346.507578 137.06756 
L 346.632941 137.06756 
L 346.758303 134.53844 
L 346.820985 134.53844 
L 347.009047 137.06756 
L 347.322454 137.06756 
L 347.385135 139.596679 
L 347.510498 129.480202 
L 347.57318 132.009321 
L 347.698525 134.53844 
L 347.761224 134.53844 
L 347.949268 130.744762 
L 348.01195 132.009321 
L 348.137313 139.596679 
L 348.199994 134.53844 
L 348.262675 137.06756 
L 348.450702 137.06756 
L 348.576083 139.596679 
L 348.826808 139.596679 
L 348.952171 137.06756 
L 350.143101 137.06756 
L 350.2058 128.215643 
L 350.268482 133.273881 
L 350.519207 129.480202 
L 350.832597 129.480202 
L 350.957978 125.686524 
L 351.208703 129.480202 
L 351.647456 129.480202 
L 351.8355 132.009321 
L 352.023545 132.009321 
L 352.148908 134.53844 
L 352.336952 134.53844 
L 352.462315 137.06756 
L 352.524996 137.06756 
L 352.650377 134.53844 
L 352.838403 142.125798 
L 352.901085 138.332119 
L 353.026448 142.125798 
L 353.151828 139.596679 
L 353.841307 139.596679 
L 353.966669 137.06756 
L 354.092032 137.06756 
L 354.217395 134.53844 
L 354.280077 134.53844 
L 354.40544 137.06756 
L 354.530802 137.06756 
L 354.718847 142.125798 
L 355.345661 142.125798 
L 355.471024 139.596679 
L 355.72175 139.596679 
L 355.847113 142.125798 
L 357.03806 142.125798 
L 357.163423 139.596679 
L 357.539529 139.596679 
L 357.664875 137.06756 
L 359.357274 137.06756 
L 359.482636 139.596679 
L 359.796044 139.596679 
L 359.921407 142.125798 
L 360.736265 142.125798 
L 360.861628 139.596679 
L 361.049673 139.596679 
L 361.112371 137.06756 
L 361.175035 138.332119 
L 361.300398 137.06756 
L 363.744992 137.06756 
L 363.870355 139.596679 
L 364.810559 139.596679 
L 364.935922 142.125798 
L 365.061285 139.596679 
L 365.249329 143.390357 
L 365.374692 142.125798 
L 365.688099 142.125798 
L 365.813462 144.654917 
L 368.132676 144.654917 
L 368.32072 119.363726 
L 368.383419 119.363726 
L 368.508782 116.834607 
L 368.571446 124.421964 
L 368.634145 118.099167 
L 368.696809 119.363726 
L 369.135579 119.363726 
L 369.19826 118.099167 
L 369.449003 121.892845 
L 369.511668 120.628286 
L 369.574366 121.892845 
L 369.699712 119.363726 
L 370.013136 119.363726 
L 370.138482 116.834607 
L 370.201163 116.834607 
L 370.263862 115.570048 
L 370.389208 116.834607 
L 370.639933 116.834607 
L 370.702632 114.305488 
L 370.765296 116.834607 
L 370.827978 115.570048 
L 370.953341 116.834607 
L 371.01604 115.570048 
L 371.141385 116.834607 
L 371.705501 116.834607 
L 371.830864 114.305488 
L 372.269634 114.305488 
L 372.394997 116.834607 
L 372.645722 116.834607 
L 372.833767 121.892845 
L 373.147174 121.892845 
L 373.335236 119.363726 
L 373.83667 119.363726 
L 374.024731 124.421964 
L 374.150094 121.892845 
L 374.212776 121.892845 
L 374.275457 124.421964 
L 374.40082 132.009321 
L 374.463484 130.744762 
L 374.588847 133.273881 
L 374.71421 132.009321 
L 374.776909 134.53844 
L 374.902272 132.009321 
L 375.15298 132.009321 
L 375.215661 129.480202 
L 375.278343 130.744762 
L 375.403723 129.480202 
L 375.466387 129.480202 
L 375.529086 130.744762 
L 375.717113 142.125798 
L 375.779794 139.596679 
L 375.842476 139.596679 
L 375.967839 137.06756 
L 376.093202 137.06756 
L 376.218565 139.596679 
L 376.281263 137.06756 
L 376.343927 139.596679 
L 376.46929 134.53844 
L 376.594653 137.06756 
L 376.720016 137.06756 
L 376.845379 139.596679 
L 377.033423 129.480202 
L 377.221468 129.480202 
L 377.409512 134.53844 
L 377.472193 134.53844 
L 377.534875 132.009321 
L 377.660238 134.53844 
L 377.785601 132.009321 
L 377.910964 134.53844 
L 378.663141 134.53844 
L 378.725822 132.009321 
L 378.788504 133.273881 
L 378.851185 132.009321 
L 378.913867 134.53844 
L 379.03923 132.009321 
L 379.227274 132.009321 
L 379.352637 129.480202 
L 379.540681 129.480202 
L 379.666044 126.951083 
L 379.854088 126.951083 
L 380.167496 137.06756 
L 380.230177 137.06756 
L 380.480903 132.009321 
L 380.606266 134.53844 
L 380.982354 134.53844 
L 381.107717 132.009321 
L 381.421142 132.009321 
L 381.609169 137.06756 
L 381.67185 134.53844 
L 381.797213 137.06756 
L 381.922576 134.53844 
L 382.298665 134.53844 
L 382.424028 132.009321 
L 382.674753 132.009321 
L 382.800134 134.53844 
L 382.925479 134.53844 
L 383.050859 137.06756 
L 383.113541 137.06756 
L 383.364249 144.654917 
L 383.489612 144.654917 
L 383.614975 142.125798 
L 383.928382 142.125798 
L 384.053762 139.596679 
L 384.179125 139.596679 
L 384.304471 137.06756 
L 384.429834 137.06756 
L 384.492515 135.803 
L 384.617878 137.06756 
L 385.119347 137.06756 
L 385.244692 139.596679 
L 386.498321 139.596679 
L 386.686366 143.390357 
L 386.749047 143.390357 
L 386.87441 144.654917 
L 387.689286 144.654917 
L 387.814649 147.184036 
L 388.754853 147.184036 
L 388.817552 149.713155 
L 388.880234 147.184036 
L 389.005597 149.713155 
L 389.068278 149.713155 
L 389.256322 147.184036 
L 389.381668 149.713155 
L 390.321907 149.713155 
L 390.44727 147.184036 
L 390.948721 147.184036 
L 391.074102 144.654917 
L 391.638217 144.654917 
L 391.76358 142.125798 
L 391.888943 142.125798 
L 392.014306 143.390357 
L 392.076987 143.390357 
L 392.139669 144.654917 
L 392.20235 143.390357 
L 392.327696 144.654917 
L 392.578421 144.654917 
L 392.766466 149.713155 
L 392.829165 147.184036 
L 392.954527 149.713155 
L 393.07989 147.184036 
L 394.458882 147.184036 
L 394.584245 144.654917 
L 394.834953 144.654917 
L 395.022998 149.713155 
L 395.148378 149.713155 
L 395.461785 159.829631 
L 395.587131 157.300512 
L 396.276644 157.300512 
L 396.464688 161.09419 
L 396.590051 162.35875 
L 396.715397 159.829631 
L 397.780999 159.829631 
L 397.84368 162.35875 
L 397.969043 159.829631 
L 398.282433 159.829631 
L 398.407796 162.35875 
L 399.285353 162.35875 
L 399.410716 159.829631 
L 399.598761 159.829631 
L 399.724106 157.300512 
L 400.915053 157.300512 
L 401.040416 164.887869 
L 401.479204 164.887869 
L 401.541868 167.416988 
L 401.72993 159.829631 
L 401.917957 159.829631 
L 402.043337 162.35875 
L 402.168682 162.35875 
L 402.294045 157.300512 
L 402.356744 157.300512 
L 402.482107 159.829631 
L 403.35963 159.829631 
L 403.547674 163.62331 
L 403.610373 163.62331 
L 403.735718 162.35875 
L 403.7984 162.35875 
L 403.861099 164.887869 
L 403.986462 162.35875 
L 404.174506 164.887869 
L 405.24009 164.887869 
L 405.365453 167.416988 
L 405.741542 167.416988 
L 405.929569 172.475226 
L 406.054932 169.946107 
L 406.242976 172.475226 
L 406.681746 172.475226 
L 406.807127 169.946107 
L 406.995171 169.946107 
L 407.120534 170.704843 
L 407.183198 170.325475 
L 407.37126 170.831299 
L 407.433941 170.831299 
L 407.559286 172.095858 
L 407.621985 172.095858 
L 407.684649 172.222314 
L 407.810012 172.601682 
L 407.998057 172.601682 
L 408.186101 172.095858 
L 408.2488 172.095858 
L 408.311464 171.842946 
L 408.374145 172.222314 
L 408.436827 171.969402 
L 408.499508 171.969402 
L 408.624888 172.222314 
L 408.812933 175.257257 
L 408.938278 174.751433 
L 409.000977 174.751433 
L 409.12634 175.130801 
L 409.314384 174.498521 
L 409.43973 174.624977 
L 409.502429 174.624977 
L 409.56511 174.751433 
L 409.8785 179.936127 
L 409.941199 179.430304 
L 410.00388 179.809671 
L 410.254606 181.580055 
L 410.379951 180.568407 
L 410.442633 180.821319 
L 410.505332 181.706511 
L 410.567996 179.809671 
L 410.630677 180.062583 
L 410.818739 180.568407 
L 410.88142 180.441951 
L 411.132146 179.683215 
L 411.32019 179.683215 
L 411.508235 179.430304 
L 411.63358 179.430304 
L 411.696279 179.683215 
L 411.758961 179.430304 
L 411.821642 179.55676 
L 411.884306 179.936127 
L 411.946988 179.809671 
L 412.009669 179.55676 
L 412.135032 179.809671 
L 412.260412 181.327143 
L 412.385775 180.694863 
L 412.448439 180.694863 
L 412.511138 180.441951 
L 412.573802 180.694863 
L 412.761846 179.936127 
L 412.824545 180.062583 
L 413.075271 179.55676 
L 413.137935 180.062583 
L 413.200634 179.683215 
L 413.263315 179.809671 
L 413.388678 179.177392 
L 413.451342 179.809671 
L 413.514041 179.683215 
L 413.576722 179.430304 
L 413.639404 179.683215 
L 413.702085 179.55676 
L 413.764767 179.430304 
L 413.827448 179.683215 
L 413.890112 179.55676 
L 413.952811 179.430304 
L 414.078157 179.55676 
L 414.203537 180.062583 
L 414.266218 180.062583 
L 414.454245 180.568407 
L 414.579626 179.55676 
L 414.704988 179.683215 
L 414.76767 179.430304 
L 414.955714 180.189039 
L 415.143741 180.189039 
L 415.269121 179.936127 
L 415.394484 180.062583 
L 415.582529 179.809671 
L 415.64521 180.315495 
L 415.707892 180.189039 
L 415.833237 180.568407 
L 415.958617 181.580055 
L 416.021281 181.200687 
L 416.083963 181.453599 
L 416.146644 181.959423 
L 416.209343 181.706511 
L 416.460051 182.085879 
L 416.52275 182.085879 
L 416.648113 181.959423 
L 416.836158 182.212335 
L 416.898839 181.959423 
L 416.961503 182.212335 
L 417.024184 181.959423 
L 417.462955 183.350438 
L 417.525653 183.476894 
L 417.588335 183.350438 
L 417.71368 182.97107 
L 417.776362 182.97107 
L 417.964406 183.350438 
L 418.027088 183.350438 
L 418.089769 183.476894 
L 418.15245 183.350438 
L 418.403176 183.729806 
L 418.465875 183.729806 
L 418.591238 183.476894 
L 418.779265 183.476894 
L 418.904628 183.729806 
L 418.967327 183.60335 
L 419.09269 182.212335 
L 419.218052 181.453599 
L 419.280734 181.453599 
L 419.468778 179.936127 
L 419.844867 179.177392 
L 420.095593 172.475226 
L 420.28362 176.648273 
L 420.471664 173.992698 
L 420.534363 173.61333 
L 420.597044 173.739786 
L 420.659726 173.739786 
L 420.722407 173.866242 
L 420.785071 173.739786 
L 420.973133 171.084211 
L 421.035814 171.210667 
L 421.16116 171.969402 
L 421.28654 172.095858 
L 421.411903 172.095858 
L 421.474584 171.463579 
L 421.537266 171.842946 
L 421.72531 172.601682 
L 421.787992 171.337123 
L 421.850673 171.463579 
L 421.913354 171.463579 
L 421.976036 172.095858 
L 422.038717 171.842946 
L 422.352125 173.107506 
L 422.414806 172.854594 
L 422.477487 171.969402 
L 422.853576 176.521817 
L 422.916258 176.142449 
L 422.978922 176.521817 
L 423.166983 175.763081 
L 423.292346 175.889537 
L 423.417709 175.636625 
L 423.543055 175.763081 
L 423.668435 175.636625 
L 423.919143 172.222314 
L 423.981842 172.475226 
L 424.169886 171.590035 
L 424.232568 172.34877 
L 424.295249 172.222314 
L 424.483294 172.601682 
L 424.545958 172.34877 
L 424.671338 172.728138 
L 424.796701 172.34877 
L 424.859382 171.969402 
L 424.922046 172.222314 
L 424.984728 172.34877 
L 425.047427 172.095858 
L 425.360816 167.6699 
L 425.423515 168.049268 
L 425.61156 163.876221 
L 425.862285 164.508501 
L 425.987648 164.002677 
L 426.05033 164.508501 
L 426.175693 163.749765 
L 426.238357 164.002677 
L 426.301038 164.761413 
L 426.36372 164.255589 
L 426.614445 163.62331 
L 426.677127 163.243942 
L 426.739826 164.382045 
L 426.802507 164.002677 
L 426.990551 162.864574 
L 427.178578 161.600014 
L 427.241277 161.600014 
L 427.303959 161.473558 
L 427.429322 162.232294 
L 427.554684 161.979382 
L 427.680047 162.232294 
L 427.742729 161.72647 
L 427.80541 162.232294 
L 427.868092 161.979382 
L 428.056136 162.99103 
L 428.1188 163.496854 
L 428.181499 165.773061 
L 428.24418 165.393693 
L 428.369543 164.255589 
L 428.432225 164.255589 
L 428.620269 165.773061 
L 428.870995 167.164076 
L 428.933694 166.911164 
L 429.059039 165.646605 
L 429.121721 165.773061 
L 429.184419 165.267237 
L 429.309765 166.531796 
L 429.372446 166.40534 
L 429.435128 166.40534 
L 429.497792 170.199019 
L 429.560491 169.946107 
L 429.623172 165.140781 
L 429.685854 167.164076 
L 429.748518 168.428636 
L 429.811199 168.175724 
L 429.87388 167.922812 
L 430.061942 168.681548 
L 430.187305 167.796356 
L 430.249987 167.796356 
L 430.375349 168.049268 
L 430.438031 167.6699 
L 430.563394 168.428636 
L 430.688757 168.049268 
L 430.876784 169.313827 
L 430.939482 169.313827 
L 431.064828 168.93446 
L 431.25289 167.922812 
L 431.315554 168.049268 
L 431.378252 167.796356 
L 431.566297 169.313827 
L 431.691642 170.831299 
L 431.754324 170.831299 
L 431.942368 169.946107 
L 432.067748 170.578387 
L 432.13043 168.93446 
L 432.193094 170.199019 
L 432.381156 169.693195 
L 432.443837 169.440283 
L 432.569183 170.831299 
L 432.631881 170.704843 
L 432.757227 170.831299 
L 432.819926 170.831299 
L 432.945289 169.819651 
L 433.133316 169.819651 
L 433.195997 169.946107 
L 433.258678 169.819651 
L 433.384059 170.072563 
L 433.509404 170.072563 
L 433.697466 169.819651 
L 433.760147 169.819651 
L 433.885493 169.187371 
L 434.136219 169.566739 
L 434.198917 169.566739 
L 434.261582 169.313827 
L 434.324263 169.566739 
L 434.386944 169.313827 
L 434.449626 170.072563 
L 434.512307 169.819651 
L 434.63767 169.060915 
L 434.700369 169.060915 
L 434.825714 168.428636 
L 434.951077 168.555092 
L 435.076458 168.555092 
L 435.264502 168.175724 
L 435.327183 168.30218 
L 435.515228 167.922812 
L 435.640591 167.922812 
L 435.703272 168.049268 
L 435.765954 167.796356 
L 435.891299 168.30218 
L 436.016679 167.6699 
L 436.142042 168.049268 
L 436.204724 168.049268 
L 436.267405 167.796356 
L 436.392768 168.555092 
L 436.580812 168.555092 
L 436.706175 168.808004 
L 436.956901 168.808004 
L 437.019582 168.555092 
L 437.144945 168.808004 
L 437.458353 167.922812 
L 437.583698 168.049268 
L 437.709078 168.049268 
L 437.897123 168.808004 
L 438.022486 168.555092 
L 438.085167 168.555092 
L 438.147848 168.30218 
L 438.273211 168.555092 
L 438.461256 168.555092 
L 438.586619 168.049268 
L 438.711981 168.049268 
L 438.837344 167.6699 
L 439.08807 170.578387 
L 439.213433 169.819651 
L 439.338796 169.819651 
L 439.52684 169.313827 
L 439.589522 169.313827 
L 439.714885 169.060915 
L 440.090973 169.060915 
L 440.216336 168.808004 
L 440.780469 168.808004 
L 440.905832 169.060915 
L 441.093876 169.060915 
L 441.281921 168.555092 
L 441.532629 168.555092 
L 441.658009 168.30218 
L 441.783355 168.30218 
L 441.971416 168.049268 
L 442.034098 168.049268 
L 442.159443 167.796356 
L 442.347505 167.796356 
L 442.472851 167.290532 
L 442.535549 167.290532 
L 442.660912 167.03762 
L 442.848957 167.03762 
L 442.911638 166.784708 
L 443.099682 167.290532 
L 443.162364 167.164076 
L 443.287727 166.784708 
L 443.413072 166.784708 
L 443.538453 166.531796 
L 443.601134 166.531796 
L 443.663798 165.899517 
L 443.726497 166.025973 
L 443.789178 166.025973 
L 443.977223 165.520149 
L 444.165267 165.520149 
L 444.353311 165.773061 
L 444.478674 165.773061 
L 444.666719 164.761413 
L 444.792064 164.761413 
L 444.980126 164.255589 
L 445.105489 164.761413 
L 445.16817 164.761413 
L 445.293533 164.508501 
L 445.356214 164.508501 
L 445.481577 165.014325 
L 445.544259 165.014325 
L 445.60694 164.887869 
L 445.732303 165.014325 
L 445.794985 165.014325 
L 445.920347 165.267237 
L 446.04571 165.014325 
L 446.233755 165.267237 
L 446.296436 165.773061 
L 446.359118 165.646605 
L 446.421799 165.646605 
L 446.547162 165.773061 
L 446.609843 165.773061 
L 446.79787 165.267237 
L 446.860569 165.267237 
L 446.985932 165.773061 
L 447.173976 164.255589 
L 447.299339 164.255589 
L 447.424702 164.002677 
L 447.487384 164.002677 
L 447.612746 163.749765 
L 447.675428 163.749765 
L 447.863472 161.72647 
L 447.988835 161.220646 
L 448.114198 161.473558 
L 448.176879 161.473558 
L 448.302242 161.72647 
L 448.427623 161.473558 
L 448.490287 161.72647 
L 448.552968 161.473558 
L 448.678348 161.72647 
L 449.117101 160.208999 
L 449.179765 160.461911 
L 449.242464 161.979382 
L 449.305145 161.72647 
L 449.430508 161.852926 
L 449.618553 161.473558 
L 449.743916 161.473558 
L 449.806597 161.347102 
L 449.93196 161.473558 
L 450.057323 161.220646 
L 450.182686 161.220646 
L 450.308049 161.473558 
L 450.37073 161.220646 
L 450.433411 160.461911 
L 450.496075 160.714823 
L 450.684155 167.290532 
L 450.746819 166.531796 
L 450.8095 166.784708 
L 450.872182 166.658252 
L 450.934863 167.543444 
L 450.997544 167.290532 
L 451.060226 165.393693 
L 451.122907 165.773061 
L 451.24827 166.531796 
L 451.310952 166.531796 
L 451.436315 166.278885 
L 451.498996 166.278885 
L 451.561677 166.531796 
L 451.68704 166.278885 
L 451.749722 166.278885 
L 451.875085 167.543444 
L 451.937766 167.164076 
L 452.000447 167.543444 
L 452.063129 167.03762 
L 452.251173 168.049268 
L 452.313855 168.049268 
L 452.376536 167.796356 
L 452.439218 167.922812 
L 452.501899 168.681548 
L 452.564563 168.555092 
L 452.627262 168.681548 
L 452.752625 169.566739 
L 452.87797 169.313827 
L 452.940669 169.566739 
L 453.066032 169.060915 
L 453.128713 165.014325 
L 453.191395 165.140781 
L 453.316758 164.255589 
L 453.442121 164.761413 
L 453.504802 164.761413 
L 453.567484 164.634957 
L 453.630165 164.761413 
L 453.755528 165.646605 
L 453.818209 165.393693 
L 453.880891 165.520149 
L 454.068935 165.267237 
L 454.131617 165.520149 
L 454.194298 165.393693 
L 454.256979 165.520149 
L 454.445024 164.129133 
L 454.570387 164.255589 
L 454.69575 164.002677 
L 454.883811 164.382045 
L 454.946475 164.255589 
L 455.071838 164.508501 
L 455.134502 164.255589 
L 455.197201 164.382045 
L 455.259883 164.508501 
L 455.385245 162.738118 
L 455.57329 162.99103 
L 455.635971 162.99103 
L 455.761334 163.243942 
L 455.949378 163.243942 
L 456.074741 163.749765 
L 456.137405 163.62331 
L 456.262786 163.496854 
L 456.388149 162.232294 
L 456.513511 162.232294 
L 456.576193 162.105838 
L 456.638874 162.35875 
L 456.826901 164.002677 
L 456.889583 164.002677 
L 457.014946 163.749765 
L 457.077644 164.002677 
L 457.203007 171.842946 
L 457.265671 171.463579 
L 457.32837 169.819651 
L 457.391052 170.199019 
L 457.516397 171.590035 
L 457.579079 172.601682 
L 457.704441 169.819651 
L 457.892503 170.704843 
L 457.955185 170.325475 
L 458.080548 168.175724 
L 458.143229 169.440283 
L 458.20591 169.060915 
L 458.268592 168.808004 
L 458.456619 170.325475 
L 458.519318 169.693195 
L 458.581982 170.072563 
L 458.707362 169.819651 
L 458.832725 170.325475 
L 459.020752 170.325475 
L 459.146132 170.578387 
L 459.271495 170.578387 
L 459.647566 171.842946 
L 459.835628 170.831299 
L 459.898309 170.831299 
L 459.960991 171.084211 
L 460.023672 170.957755 
L 460.086354 171.084211 
L 460.211717 170.831299 
L 460.525124 170.831299 
L 460.650487 170.578387 
L 460.77585 170.578387 
L 460.901213 170.831299 
L 461.151938 170.831299 
L 461.277301 170.578387 
L 461.403552 171.084211 
L 461.465346 170.957755 
L 461.528027 170.957755 
L 461.590708 170.831299 
L 461.65339 171.337123 
L 461.716054 171.084211 
L 461.904116 171.084211 
L 461.966797 170.831299 
L 462.029479 171.084211 
L 462.09216 170.831299 
L 462.280204 171.337123 
L 462.468249 171.337123 
L 462.781656 171.842946 
L 462.844337 171.842946 
L 462.9697 171.590035 
L 463.032382 171.590035 
L 463.345789 172.095858 
L 463.471152 171.590035 
L 463.84724 173.107506 
L 464.035285 171.084211 
L 464.097966 171.084211 
L 464.28601 170.199019 
L 464.348692 170.578387 
L 464.411373 169.313827 
L 464.474055 170.199019 
L 464.536736 170.199019 
L 464.599418 170.325475 
L 464.662099 169.440283 
L 464.724781 169.819651 
L 464.787462 169.946107 
L 464.975506 170.704843 
L 465.100869 170.578387 
L 465.288914 171.084211 
L 465.351595 171.084211 
L 465.476958 171.337123 
L 465.602321 170.578387 
L 465.665002 170.578387 
L 465.790348 170.325475 
L 465.915728 170.578387 
L 466.041091 170.072563 
L 466.229135 171.590035 
L 466.354498 171.590035 
L 466.41718 171.842946 
L 466.542542 171.590035 
L 466.605224 171.590035 
L 467.169357 173.61333 
L 467.357401 173.107506 
L 467.420083 172.854594 
L 467.482764 173.866242 
L 467.545446 173.61333 
L 467.796171 173.61333 
L 467.858853 173.107506 
L 467.984216 173.61333 
L 468.109579 173.360418 
L 468.360304 173.360418 
L 468.485667 173.61333 
L 468.548349 173.61333 
L 468.673712 174.624977 
L 468.736393 175.636625 
L 468.799074 175.257257 
L 468.861756 175.383713 
L 469.112482 177.912832 
L 469.237845 177.65992 
L 469.363207 176.901185 
L 469.48857 178.418656 
L 469.676615 177.154096 
L 469.927358 176.268905 
L 470.052703 176.142449 
L 470.115385 176.142449 
L 470.240748 175.763081 
L 470.366111 175.257257 
L 470.428792 175.257257 
L 470.554155 175.889537 
L 470.616836 175.889537 
L 470.679518 174.877889 
L 470.742217 175.383713 
L 470.804881 175.130801 
L 470.930244 174.372065 
L 471.055606 174.372065 
L 471.243651 174.624977 
L 471.619739 174.624977 
L 471.745102 174.119154 
L 471.870465 174.119154 
L 471.933147 173.992698 
L 471.995828 174.119154 
L 472.121191 173.992698 
L 472.246554 174.119154 
L 472.622642 174.119154 
L 472.748005 174.372065 
L 472.873368 174.372065 
L 472.998731 174.119154 
L 473.186775 174.624977 
L 473.249457 174.624977 
L 473.37482 174.751433 
L 473.437501 174.24561 
L 473.625546 175.383713 
L 473.688227 174.877889 
L 473.750891 175.257257 
L 473.938953 174.751433 
L 474.001634 174.877889 
L 474.126997 175.130801 
L 474.189679 175.130801 
L 474.25236 174.877889 
L 474.315041 175.130801 
L 474.377723 174.624977 
L 474.565767 175.636625 
L 474.753812 176.395361 
L 475.192582 176.395361 
L 475.380626 176.142449 
L 475.505989 176.142449 
L 475.631352 176.648273 
L 475.819396 175.383713 
L 475.944759 175.130801 
L 476.00744 174.119154 
L 476.070122 174.372065 
L 476.258166 173.866242 
L 476.446193 173.866242 
L 476.696936 172.98105 
L 476.822299 173.107506 
L 476.884981 173.107506 
L 476.947662 172.98105 
L 477.010344 173.107506 
L 477.073025 172.98105 
L 477.386432 173.61333 
L 477.511795 173.360418 
L 477.574477 173.360418 
L 477.699839 173.866242 
L 477.762538 173.360418 
L 477.825202 173.61333 
L 478.013247 173.61333 
L 478.13861 173.486874 
L 478.263972 173.61333 
L 478.389335 173.61333 
L 478.640061 172.601682 
L 478.765424 173.107506 
L 479.14153 171.842946 
L 479.204194 171.842946 
L 479.266893 171.969402 
L 479.517619 171.337123 
L 479.580283 171.590035 
L 479.642964 171.463579 
L 479.705646 171.590035 
L 480.081734 170.325475 
L 480.144416 170.325475 
L 480.33246 171.842946 
L 480.395142 171.337123 
L 480.457823 171.590035 
L 480.520504 171.842946 
L 480.583186 171.337123 
L 480.645867 171.590035 
L 480.771248 171.337123 
L 480.833912 171.337123 
L 480.896593 171.590035 
L 481.021973 171.210667 
L 481.084637 171.337123 
L 481.147319 171.842946 
L 481.21 171.590035 
L 481.272682 171.590035 
L 481.398062 171.842946 
L 481.586106 171.842946 
L 481.711469 172.095858 
L 482.087541 172.095858 
L 482.212903 172.34877 
L 482.275585 172.34877 
L 482.338266 172.475226 
L 482.400948 172.222314 
L 482.463629 172.34877 
L 482.588992 172.34877 
L 482.651674 172.222314 
L 482.777036 172.601682 
L 482.902399 172.601682 
L 483.02778 172.854594 
L 483.153125 172.854594 
L 483.278488 173.107506 
L 483.403851 172.854594 
L 483.466532 172.854594 
L 483.529214 172.98105 
L 483.654577 172.854594 
L 483.842621 172.854594 
L 483.90532 173.107506 
L 484.030665 172.854594 
L 484.093364 173.107506 
L 484.156028 172.98105 
L 484.406754 171.337123 
L 484.469435 171.590035 
L 484.532134 171.590035 
L 484.594798 171.337123 
L 484.657497 171.463579 
L 484.78286 171.337123 
L 484.908223 171.337123 
L 485.033568 170.704843 
L 485.09625 170.831299 
L 485.221613 171.084211 
L 485.284294 171.084211 
L 485.409657 171.337123 
L 485.472356 171.337123 
L 485.597719 171.084211 
L 485.6604 171.463579 
L 485.723082 171.337123 
L 485.785746 171.337123 
L 485.848427 171.084211 
L 485.97379 171.337123 
L 486.099153 171.337123 
L 486.161834 171.590035 
L 486.28718 171.084211 
L 486.41256 171.084211 
L 486.537923 171.337123 
L 486.976693 171.337123 
L 487.039375 171.084211 
L 487.164737 171.590035 
L 487.227419 171.590035 
L 487.352782 171.337123 
L 487.72887 171.337123 
L 487.791569 171.084211 
L 488.167658 173.61333 
L 488.293003 173.107506 
L 488.669092 173.107506 
L 488.731774 173.360418 
L 488.919818 172.222314 
L 488.982499 172.34877 
L 489.107862 170.325475 
L 489.170544 170.325475 
L 489.295907 170.072563 
L 489.358588 170.072563 
L 489.546632 170.578387 
L 489.609296 170.578387 
L 489.734677 169.819651 
L 489.86004 170.325475 
L 490.048101 170.325475 
L 490.110765 170.578387 
L 490.236128 170.325475 
L 490.298827 170.325475 
L 490.42419 170.072563 
L 490.486854 170.072563 
L 490.549535 170.578387 
L 490.612217 170.325475 
L 490.800261 169.566739 
L 490.862943 169.566739 
L 490.988306 169.819651 
L 491.364394 169.819651 
L 491.489757 169.566739 
L 491.61512 169.566739 
L 491.677801 169.313827 
L 491.865863 170.325475 
L 491.928527 170.578387 
L 492.179253 169.819651 
L 492.304616 169.819651 
L 492.429979 170.072563 
L 492.555342 169.060915 
L 492.743386 170.072563 
L 492.806067 170.072563 
L 492.868749 169.819651 
L 492.93143 168.30218 
L 492.994112 169.187371 
L 493.244837 169.566739 
L 493.3702 169.566739 
L 493.558245 169.060915 
L 493.620926 169.060915 
L 493.746289 169.313827 
L 493.871652 169.060915 
L 494.122378 169.060915 
L 494.247741 168.808004 
L 494.310422 168.808004 
L 494.498466 168.175724 
L 494.623829 168.30218 
L 494.749192 168.30218 
L 494.937236 167.796356 
L 495.062599 167.796356 
L 495.187962 166.784708 
L 495.376007 167.543444 
L 495.501369 166.784708 
L 495.564051 167.290532 
L 495.626732 167.03762 
L 495.752095 166.784708 
L 495.814777 166.784708 
L 495.94014 166.658252 
L 496.002821 166.658252 
L 496.128184 166.784708 
L 496.253547 166.784708 
L 496.37891 166.531796 
L 496.504273 167.03762 
L 496.692317 166.531796 
L 496.754998 166.531796 
L 496.880361 166.278885 
L 497.005724 166.278885 
L 497.068388 157.932792 
L 497.131087 161.473558 
L 497.25645 159.070895 
L 497.444494 160.082543 
L 497.507176 160.082543 
L 497.632539 158.691527 
L 497.820583 164.129133 
L 497.883264 162.99103 
L 498.008627 160.208999 
L 498.071309 160.714823 
L 498.13399 160.461911 
L 498.196672 161.979382 
L 498.259353 161.72647 
L 498.384716 161.473558 
L 498.510079 161.979382 
L 498.572778 161.72647 
L 498.760805 162.232294 
L 499.01153 160.967735 
L 499.074212 161.347102 
L 499.136893 161.347102 
L 499.262256 161.979382 
L 499.387619 161.09419 
L 499.512982 160.208999 
L 499.638345 160.208999 
L 499.826389 160.967735 
L 500.014433 160.208999 
L 500.139796 160.208999 
L 500.265159 160.967735 
L 500.390539 160.461911 
L 500.453221 160.714823 
L 500.578566 159.956087 
L 500.641248 160.208999 
L 500.703929 159.829631 
L 500.766628 160.461911 
L 500.891974 159.703175 
L 500.954655 159.703175 
L 501.017337 159.956087 
L 501.142699 159.197351 
L 501.330744 156.921144 
L 501.456124 157.67988 
L 501.518805 157.67988 
L 501.581487 157.932792 
L 501.644168 156.921144 
L 501.706832 152.36873 
L 501.769531 155.656585 
L 501.894877 153.380377 
L 502.082938 155.024305 
L 502.14562 154.897849 
L 502.270983 155.150761 
L 502.333647 155.150761 
L 502.45901 154.897849 
L 502.521691 154.897849 
L 502.647071 153.127465 
L 502.709736 153.633289 
L 503.023143 156.162408 
L 503.085824 156.162408 
L 503.399231 159.956087 
L 503.461913 159.576719 
L 503.524594 159.703175 
L 503.587276 159.703175 
L 503.649957 158.438615 
L 503.712639 158.691527 
L 503.775337 158.438615 
L 503.900683 155.656585 
L 503.963364 155.909496 
L 504.026046 155.909496 
L 504.151426 156.668232 
L 504.339453 156.668232 
L 504.402152 157.174056 
L 504.527515 156.668232 
L 504.590196 156.668232 
L 504.65286 157.932792 
L 504.840905 156.162408 
L 505.028949 156.668232 
L 505.154329 156.162408 
L 505.279675 156.41532 
L 505.655763 156.41532 
L 505.843808 157.426968 
L 506.031852 156.668232 
L 506.157215 156.668232 
L 506.219896 156.921144 
L 506.407941 158.944439 
L 506.47064 158.31216 
L 506.533304 158.691527 
L 506.595985 158.438615 
L 506.721348 158.691527 
L 506.846711 158.691527 
L 506.909392 158.438615 
L 506.972074 158.691527 
L 507.160118 158.185704 
L 507.348162 158.691527 
L 507.410861 158.691527 
L 507.598888 159.450263 
L 507.66157 158.691527 
L 507.786932 156.41532 
L 507.912295 156.41532 
L 508.037658 155.656585 
L 508.163021 155.909496 
L 508.288384 155.909496 
L 508.476428 155.150761 
L 508.601791 155.150761 
L 508.664473 155.403673 
L 508.915198 151.989362 
L 508.97788 152.621642 
L 509.228606 148.575051 
L 509.291287 148.322139 
L 509.353986 148.575051 
L 509.41665 148.322139 
L 509.604694 149.333787 
L 509.667393 149.333787 
L 509.730057 149.586699 
L 509.918102 148.322139 
L 509.980783 148.322139 
L 510.231509 146.045932 
L 510.419553 143.263901 
L 510.482235 144.781373 
L 510.544916 144.275549 
L 510.607615 144.022637 
L 510.795642 145.034285 
L 510.858323 148.322139 
L 510.921005 147.05758 
L 510.983703 146.804668 
L 511.109049 147.563404 
L 511.17173 147.05758 
L 511.234429 147.310492 
L 511.297111 147.816315 
L 511.359792 147.310492 
L 511.422474 147.563404 
L 511.485155 147.310492 
L 511.547836 148.069227 
L 511.798545 143.516813 
L 511.986589 139.976046 
L 512.049288 137.446927 
L 512.111969 138.711487 
L 512.174634 137.699839 
L 512.488058 142.505165 
L 512.550722 142.758077 
L 512.676085 138.711487 
L 512.738767 139.217311 
L 512.801448 138.964399 
L 512.864147 138.964399 
L 512.98951 141.240606 
L 513.052174 141.240606 
L 513.114855 141.493518 
L 513.240218 140.987694 
L 513.365598 142.252254 
L 513.428262 141.74643 
L 513.490961 142.505165 
L 513.553625 142.252254 
L 513.616307 142.252254 
L 513.804368 143.263901 
L 513.867032 143.516813 
L 513.929714 143.263901 
L 513.992395 143.643269 
L 514.055077 143.516813 
L 514.117758 143.137445 
L 514.243121 144.022637 
L 514.305803 143.769725 
L 514.493847 143.769725 
L 514.61921 143.516813 
L 514.681891 144.275549 
L 514.744573 144.022637 
L 515.057997 144.022637 
L 515.246024 143.516813 
L 515.371387 143.516813 
L 515.49675 143.263901 
L 515.559431 143.516813 
L 515.622113 143.010989 
L 515.684794 143.263901 
L 515.747476 143.010989 
L 515.810157 143.516813 
L 515.872839 145.79302 
L 515.93552 152.748098 
L 516.123564 144.149093 
L 516.186246 145.034285 
L 516.311609 143.769725 
L 516.37429 144.275549 
L 516.436972 144.022637 
L 516.562335 144.275549 
L 516.687697 143.516813 
L 516.81306 144.022637 
L 516.938423 143.263901 
L 517.001122 143.263901 
L 517.189149 141.74643 
L 517.377193 142.252254 
L 517.502556 141.240606 
L 517.565238 141.74643 
L 517.627919 141.493518 
L 517.690601 141.493518 
L 517.753282 139.976046 
L 517.815981 140.228958 
L 517.941326 139.976046 
L 518.004008 140.48187 
L 518.192052 137.06756 
L 518.254751 136.941104 
L 518.317415 139.723135 
L 518.380096 138.964399 
L 518.442778 138.458575 
L 518.505459 139.343767 
L 518.568158 138.458575 
L 518.693504 130.997674 
L 518.756185 133.147425 
L 518.944247 134.664896 
L 519.006911 134.159073 
L 519.132274 134.917808 
L 519.320318 132.894513 
L 519.383017 132.641601 
L 519.571044 133.906161 
L 519.633725 133.653249 
L 519.82177 127.836275 
L 519.94715 129.353746 
L 520.009814 133.020969 
L 520.072495 132.262233 
L 520.135177 132.894513 
L 520.197858 131.377042 
L 520.385903 137.573383 
L 520.511266 134.159073 
L 520.573964 133.906161 
L 520.636646 134.917808 
L 520.69931 132.388689 
L 520.761991 132.894513 
L 520.887354 133.400337 
L 521.012734 132.894513 
L 521.138097 134.159073 
L 521.200779 131.882865 
L 521.263443 140.228958 
L 521.326124 133.906161 
L 521.388806 133.653249 
L 521.576867 141.240606 
L 521.639549 138.711487 
L 521.70223 139.470223 
L 521.952956 143.516813 
L 522.078302 143.516813 
L 522.140983 143.769725 
L 522.579753 139.343767 
L 522.642452 139.723135 
L 522.89316 136.308824 
L 522.955842 136.43528 
L 523.018523 136.308824 
L 523.206585 133.020969 
L 523.269266 133.147425 
L 523.394647 133.653249 
L 523.582674 133.653249 
L 523.645338 134.159073 
L 523.708019 133.906161 
L 523.770701 134.032617 
L 523.833382 131.882865 
L 523.896064 132.894513 
L 523.958762 132.894513 
L 524.084108 132.388689 
L 524.146807 129.733114 
L 524.209471 130.112482 
L 524.272152 130.618306 
L 524.397515 129.85957 
L 524.460214 130.618306 
L 524.648241 133.779705 
L 524.71094 133.653249 
L 524.773621 134.159073 
L 524.836303 133.906161 
L 524.898967 133.906161 
L 525.024347 134.664896 
L 525.14971 133.653249 
L 525.212374 133.653249 
L 525.337737 132.388689 
L 525.400418 132.641601 
L 525.58848 133.906161 
L 525.651161 133.147425 
L 525.839206 134.159073 
L 525.964551 131.377042 
L 526.089914 131.12413 
L 526.152595 133.653249 
L 526.215294 131.882865 
L 526.277958 131.377042 
L 526.34064 131.377042 
L 526.466003 131.629954 
L 526.591366 131.629954 
L 526.904773 130.618306 
L 526.967454 130.871218 
L 527.030136 130.365394 
L 527.092835 130.871218 
L 527.280861 129.85957 
L 527.406224 130.618306 
L 527.468906 130.112482 
L 527.656968 130.871218 
L 527.845012 130.112482 
L 528.033056 127.836275 
L 528.095755 128.089187 
L 528.346463 126.571715 
L 528.471809 128.089187 
L 528.53449 128.089187 
L 528.597172 128.342099 
L 528.659853 127.583363 
L 528.722535 128.089187 
L 528.785216 128.089187 
L 528.910596 128.847923 
L 528.97326 127.456907 
L 529.098641 128.595011 
L 529.161305 128.595011 
L 529.286668 127.583363 
L 529.412048 127.583363 
L 529.537428 128.595011 
L 529.662774 127.330451 
L 529.788137 127.836275 
L 529.850818 127.330451 
L 529.9135 127.583363 
L 529.976181 127.583363 
L 530.101544 126.824627 
L 530.164225 126.824627 
L 530.289588 126.065892 
L 530.35227 126.318804 
L 530.477633 126.951083 
L 530.602995 126.571715 
L 530.728341 127.077539 
L 530.79104 126.824627 
L 530.979084 127.583363 
L 531.041748 127.583363 
L 531.10443 127.836275 
L 531.22981 125.81298 
L 531.292491 126.065892 
L 531.417854 126.065892 
L 531.5432 125.81298 
L 531.605898 125.81298 
L 531.793925 127.836275 
L 531.856624 127.583363 
L 532.10735 129.606658 
L 532.483439 138.205663 
L 532.608802 135.423632 
L 532.734164 129.353746 
L 532.796846 130.112482 
L 532.85951 131.377042 
L 532.922209 131.12413 
L 532.984873 130.871218 
L 533.047572 130.112482 
L 533.360979 140.228958 
L 533.549023 132.388689 
L 533.611705 135.423632 
L 533.674386 135.17072 
L 533.737068 133.906161 
L 533.799749 134.411985 
L 534.050457 140.102502 
L 534.113139 140.48187 
L 534.17582 140.228958 
L 534.363865 135.676544 
L 534.426563 136.182368 
L 534.489227 136.43528 
L 534.677289 139.470223 
L 535.241422 148.575051 
L 535.304104 148.322139 
L 535.366785 146.804668 
L 535.492148 149.333787 
L 535.554829 149.080875 
L 535.742874 150.345435 
L 535.805555 148.827963 
L 535.868237 149.080875 
L 535.930918 148.575051 
L 536.056281 145.287196 
L 536.118945 145.540108 
L 536.306989 144.528461 
L 536.620414 147.816315 
L 536.808458 161.220646 
L 536.87114 156.668232 
L 536.933821 157.932792 
L 537.18453 152.115818 
L 537.247228 151.862906 
L 537.30991 149.586699 
L 537.497937 156.41532 
L 537.560636 154.644937 
L 537.623317 158.944439 
L 537.685999 158.691527 
L 537.811361 158.438615 
L 537.874043 158.944439 
L 537.936724 156.162408 
L 537.999406 157.67988 
L 538.18745 152.621642 
L 538.312813 157.932792 
L 538.563539 153.633289 
L 538.62622 153.127465 
L 538.688902 148.575051 
L 538.751566 149.080875 
L 538.814265 148.827963 
L 538.876946 149.080875 
L 538.939627 150.851258 
L 539.190353 141.999342 
L 539.253052 150.724802 
L 539.315716 150.345435 
L 539.378415 147.184036 
L 539.441062 148.827963 
L 539.503743 148.954419 
L 539.629106 144.022637 
L 539.754469 148.069227 
L 539.942513 144.022637 
L 540.005195 145.287196 
L 540.067876 147.563404 
L 540.193239 140.734782 
L 540.25592 140.987694 
L 540.381283 136.43528 
L 540.506646 140.861238 
L 540.569328 139.217311 
L 540.632009 136.308824 
L 540.69469 136.688192 
L 540.757372 143.769725 
L 540.820053 141.240606 
L 540.945434 138.585031 
L 541.008098 141.240606 
L 541.133461 139.470223 
L 541.196142 148.448595 
L 541.446885 61.320444 
L 541.634912 43.869523 
L 541.760275 43.363699 
L 541.822956 43.616611 
L 541.948337 42.604963 
L 542.0737 43.110787 
L 542.136364 42.857875 
L 542.136364 42.857875 
" clip-path="url(#pf65ae1042c)" style="fill: none; stroke: #e6bb12; stroke-width: 2; stroke-linecap: square"/>
   </g>
   <g id="patch_3">
    <path d="M 57.8 295.1375 
L 57.8 29.58 
" style="fill: none; stroke: #e0f0e9; stroke-width: 0.8; stroke-linejoin: miter; stroke-linecap: square"/>
   </g>
   <g id="patch_4">
    <path d="M 565.2 295.1375 
L 565.2 29.58 
" style="fill: none; stroke: #e0f0e9; stroke-width: 0.8; stroke-linejoin: miter; stroke-linecap: square"/>
   </g>
   <g id="patch_5">
    <path d="M 57.8 295.1375 
L 565.2 295.1375 
" style="fill: none; stroke: #e0f0e9; stroke-width: 0.8; stroke-linejoin: miter; stroke-linecap: square"/>
   </g>
   <g id="patch_6">
    <path d="M 57.8 29.58 
L 565.2 29.58 
" style="fill: none; stroke: #e0f0e9; stroke-width: 0.8; stroke-linejoin: miter; stroke-linecap: square"/>
   </g>
   <g id="text_19">
    <!-- Price of yes-contract on "Will Trump win the 2024 election?" -->
    <g style="fill: #e0f0e9" transform="translate(68.113281 23.58) scale(0.18 -0.18)">
     <defs>
      <path id="CMUSerif-Roman-66" d="M 213 2559 
L 213 2759 
L 716 2759 
L 716 3494 
Q 716 3969 1023 4241 
Q 1331 4513 1709 4513 
Q 1959 4513 2121 4378 
Q 2284 4244 2284 4063 
Q 2284 3941 2211 3861 
Q 2138 3781 2003 3781 
Q 1875 3781 1801 3862 
Q 1728 3944 1728 4056 
Q 1728 4263 1919 4325 
Q 1822 4369 1709 4372 
Q 1478 4372 1298 4134 
Q 1119 3897 1119 3500 
L 1119 2759 
L 1869 2759 
L 1869 2559 
L 1141 2559 
L 1141 500 
Q 1141 316 1217 256 
Q 1294 197 1625 197 
L 1759 197 
L 1759 0 
Q 1503 19 947 19 
Q 869 19 748 16 
Q 628 13 467 6 
Q 306 0 219 0 
L 219 197 
Q 559 197 637 239 
Q 716 281 716 488 
L 716 2559 
L 213 2559 
z
" transform="scale(0.015625)"/>
      <path id="CMUSerif-Roman-73" d="M 213 84 
L 213 928 
Q 213 1000 216 1025 
Q 219 1050 237 1069 
Q 256 1088 294 1088 
Q 338 1088 355 1069 
Q 372 1050 384 978 
Q 481 538 689 305 
Q 897 72 1275 72 
Q 1634 72 1815 231 
Q 1997 391 1997 653 
Q 1997 1122 1331 1241 
Q 947 1319 787 1370 
Q 628 1422 488 1538 
Q 213 1763 213 2081 
Q 213 2400 455 2634 
Q 697 2869 1234 2869 
Q 1594 2869 1838 2688 
Q 1909 2744 1947 2791 
Q 2031 2869 2075 2869 
Q 2125 2869 2134 2836 
Q 2144 2803 2144 2713 
L 2144 2069 
Q 2144 1997 2141 1972 
Q 2138 1947 2119 1930 
Q 2100 1913 2059 1913 
Q 1988 1913 1984 1972 
Q 1934 2747 1234 2747 
Q 856 2747 687 2601 
Q 519 2456 519 2259 
Q 519 2150 570 2067 
Q 622 1984 689 1936 
Q 756 1888 881 1842 
Q 1006 1797 1082 1781 
Q 1159 1766 1306 1734 
Q 1819 1638 2034 1428 
Q 2303 1159 2303 819 
Q 2303 441 2047 184 
Q 1791 -72 1275 -72 
Q 859 -72 569 206 
Q 531 169 503 136 
Q 475 103 464 90 
Q 453 78 450 70 
Q 447 63 441 56 
Q 313 -72 281 -72 
Q 231 -72 222 -39 
Q 213 -6 213 84 
z
" transform="scale(0.015625)"/>
      <path id="CMUSerif-Roman-2d" d="M 63 1191 
L 63 1569 
L 1766 1569 
L 1766 1191 
L 63 1191 
z
" transform="scale(0.015625)"/>
      <path id="CMUSerif-Roman-22" d="M 763 4250 
Q 763 4409 858 4476 
Q 953 4544 1056 4544 
Q 1166 4544 1261 4476 
Q 1356 4409 1356 4250 
Q 1356 4219 1301 3728 
Q 1247 3238 1189 2739 
Q 1131 2241 1131 2222 
L 984 2222 
Q 966 2419 908 2919 
Q 850 3419 806 3819 
Q 763 4219 763 4250 
z
M 1838 4244 
Q 1838 4391 1923 4467 
Q 2009 4544 2131 4544 
Q 2234 4544 2329 4476 
Q 2425 4409 2425 4250 
Q 2425 4219 2381 3822 
Q 2338 3425 2280 2925 
Q 2222 2425 2203 2222 
L 2059 2222 
Q 2047 2319 1942 3253 
Q 1838 4188 1838 4244 
z
" transform="scale(0.015625)"/>
      <path id="CMUSerif-Roman-57" d="M 116 4172 
L 116 4372 
Q 206 4372 368 4365 
Q 531 4359 659 4356 
Q 788 4353 897 4353 
Q 1575 4353 1806 4372 
L 1806 4172 
Q 1269 4172 1269 3981 
Q 1269 3938 1281 3897 
L 2309 750 
L 3200 3494 
L 3059 3944 
Q 3009 4103 2900 4137 
Q 2791 4172 2484 4172 
L 2484 4372 
Q 2575 4372 2737 4365 
Q 2900 4359 3028 4356 
Q 3156 4353 3263 4353 
Q 3941 4353 4172 4372 
L 4172 4172 
Q 3634 4172 3634 3981 
Q 3634 3963 3653 3884 
L 4678 750 
L 5638 3706 
Q 5669 3803 5672 3834 
Q 5672 3950 5537 4058 
Q 5403 4166 5113 4172 
L 5113 4372 
Q 5613 4353 5875 4353 
Q 6169 4353 6456 4372 
L 6456 4172 
Q 5950 4172 5819 3744 
L 4594 -13 
Q 4581 -63 4572 -86 
Q 4563 -109 4538 -125 
Q 4513 -141 4469 -141 
Q 4384 -141 4347 -19 
L 3284 3238 
L 2228 -13 
Q 2216 -63 2205 -86 
Q 2194 -109 2169 -125 
Q 2144 -141 2100 -141 
Q 2016 -141 1978 -19 
L 697 3903 
Q 641 4088 555 4130 
Q 469 4172 116 4172 
z
" transform="scale(0.015625)"/>
      <path id="CMUSerif-Roman-54" d="M 231 2894 
L 353 4331 
L 4263 4331 
L 4384 2894 
L 4225 2894 
Q 4200 3181 4176 3347 
Q 4153 3513 4098 3670 
Q 4044 3828 3976 3904 
Q 3909 3981 3781 4042 
Q 3653 4103 3487 4118 
Q 3322 4134 3072 4134 
Q 2778 4134 2706 4122 
Q 2628 4103 2609 4048 
Q 2591 3994 2591 3878 
L 2591 506 
Q 2591 378 2617 326 
Q 2644 275 2791 236 
Q 2938 197 3263 197 
L 3519 197 
L 3519 0 
Q 3256 19 2303 19 
Q 1356 19 1094 0 
L 1094 197 
L 1350 197 
Q 1675 197 1823 236 
Q 1972 275 1997 326 
Q 2022 378 2022 506 
L 2022 3878 
Q 2022 3969 2015 4006 
Q 2009 4044 1981 4076 
Q 1953 4109 1889 4121 
Q 1825 4134 1544 4134 
Q 1294 4134 1126 4118 
Q 959 4103 831 4042 
Q 703 3981 636 3904 
Q 569 3828 514 3670 
Q 459 3513 437 3347 
Q 416 3181 391 2894 
L 231 2894 
z
" transform="scale(0.015625)"/>
      <path id="CMUSerif-Roman-6d" d="M 206 0 
L 206 197 
Q 547 197 625 239 
Q 703 281 703 488 
L 703 2203 
Q 703 2441 620 2500 
Q 538 2559 206 2559 
L 206 2759 
L 1106 2828 
L 1106 2156 
Q 1406 2828 2053 2828 
Q 2803 2828 2906 2203 
Q 3016 2447 3245 2637 
Q 3475 2828 3834 2828 
Q 4316 2828 4506 2591 
Q 4647 2431 4675 2253 
Q 4703 2075 4703 1613 
L 4703 391 
Q 4709 256 4812 226 
Q 4916 197 5203 197 
L 5203 0 
Q 4550 19 4488 19 
Q 4438 19 3763 0 
L 3763 197 
Q 4103 197 4183 239 
Q 4263 281 4263 488 
L 4263 1978 
Q 4263 2303 4163 2495 
Q 4063 2688 3788 2688 
Q 3456 2688 3190 2409 
Q 2925 2131 2925 1663 
L 2925 488 
Q 2925 281 3004 239 
Q 3084 197 3425 197 
L 3425 0 
Q 2772 19 2706 19 
Q 2656 19 1984 0 
L 1984 197 
Q 2325 197 2404 239 
Q 2484 281 2484 488 
L 2484 1978 
Q 2484 2303 2384 2495 
Q 2284 2688 2009 2688 
Q 1678 2688 1412 2409 
Q 1147 2131 1147 1663 
L 1147 488 
Q 1147 281 1226 239 
Q 1306 197 1644 197 
L 1644 0 
Q 991 19 928 19 
Q 878 19 206 0 
z
" transform="scale(0.015625)"/>
      <path id="CMUSerif-Roman-77" d="M 116 2559 
L 116 2759 
Q 463 2741 709 2741 
Q 831 2741 1409 2759 
L 1409 2559 
Q 1031 2559 1031 2388 
Q 1031 2350 1063 2272 
L 1672 563 
L 2222 2113 
Q 2106 2425 2075 2463 
Q 1997 2559 1672 2559 
L 1672 2759 
Q 1959 2741 2241 2741 
Q 2350 2741 2906 2759 
L 2906 2559 
Q 2528 2559 2528 2388 
Q 2528 2363 2559 2266 
L 3194 481 
L 3775 2119 
Q 3806 2203 3809 2253 
Q 3809 2394 3709 2473 
Q 3609 2553 3438 2559 
L 3438 2759 
Q 3803 2741 4031 2741 
Q 4288 2741 4500 2759 
L 4500 2559 
Q 4103 2547 3963 2150 
L 3213 50 
Q 3141 -66 3084 -72 
Q 3000 -72 2956 50 
L 2303 1869 
L 1656 56 
Q 1631 -22 1609 -47 
Q 1588 -72 1530 -72 
Q 1472 -72 1447 -39 
Q 1422 -6 1394 72 
L 588 2338 
Q 531 2484 448 2521 
Q 366 2559 116 2559 
z
" transform="scale(0.015625)"/>
      <path id="CMUSerif-Roman-68" d="M 206 0 
L 206 197 
Q 547 197 625 239 
Q 703 281 703 488 
L 703 3816 
Q 703 4053 620 4112 
Q 538 4172 206 4172 
L 206 4372 
L 1125 4441 
L 1125 2216 
L 1131 2216 
Q 1234 2447 1465 2637 
Q 1697 2828 2053 2828 
Q 2534 2828 2725 2591 
Q 2866 2431 2895 2253 
Q 2925 2075 2925 1613 
L 2925 391 
Q 2931 256 3034 226 
Q 3138 197 3425 197 
L 3425 0 
Q 2772 19 2706 19 
Q 2656 19 1984 0 
L 1984 197 
Q 2325 197 2404 239 
Q 2484 281 2484 488 
L 2484 1978 
Q 2484 2303 2384 2495 
Q 2284 2688 2009 2688 
Q 1678 2688 1412 2409 
Q 1147 2131 1147 1663 
L 1147 488 
Q 1147 281 1226 239 
Q 1306 197 1644 197 
L 1644 0 
Q 991 19 928 19 
Q 878 19 206 0 
z
" transform="scale(0.015625)"/>
      <path id="CMUSerif-Roman-3f" d="M 359 3659 
Q 359 3991 656 4252 
Q 953 4513 1447 4513 
Q 2094 4513 2375 4250 
Q 2656 3988 2656 3647 
Q 2656 3250 2350 3022 
Q 1506 2394 1503 1594 
L 1503 1369 
Q 1503 1297 1500 1269 
Q 1497 1241 1478 1219 
Q 1459 1197 1422 1197 
Q 1372 1197 1358 1225 
Q 1344 1253 1344 1350 
L 1344 1638 
Q 1344 1978 1478 2368 
Q 1613 2759 1906 3078 
Q 1978 3150 2015 3203 
Q 2053 3256 2089 3381 
Q 2125 3506 2125 3688 
Q 2125 3797 2122 3859 
Q 2119 3922 2080 4031 
Q 2041 4141 1973 4205 
Q 1906 4269 1765 4320 
Q 1625 4372 1428 4372 
Q 847 4372 588 3938 
Q 947 3938 947 3647 
Q 947 3519 867 3436 
Q 788 3353 653 3353 
Q 531 3353 445 3429 
Q 359 3506 359 3659 
z
M 1181 98 
Q 1081 197 1081 339 
Q 1081 481 1181 579 
Q 1281 678 1422 678 
Q 1563 678 1661 579 
Q 1759 481 1759 339 
Q 1759 197 1661 98 
Q 1563 0 1422 0 
Q 1281 0 1181 98 
z
" transform="scale(0.015625)"/>
     </defs>
     <use xlink:href="#CMUSerif-Roman-50"/>
     <use xlink:href="#CMUSerif-Roman-72" transform="translate(67.96875 0)"/>
     <use xlink:href="#CMUSerif-Roman-69" transform="translate(107.03125 0)"/>
     <use xlink:href="#CMUSerif-Roman-63" transform="translate(134.716797 0)"/>
     <use xlink:href="#CMUSerif-Roman-65" transform="translate(179.101562 0)"/>
     <use xlink:href="#CMUSerif-Roman-20" transform="translate(223.486328 0)"/>
     <use xlink:href="#CMUSerif-Roman-6f" transform="translate(256.738281 0)"/>
     <use xlink:href="#CMUSerif-Roman-66" transform="translate(306.738281 0)"/>
     <use xlink:href="#CMUSerif-Roman-20" transform="translate(337.207031 0)"/>
     <use xlink:href="#CMUSerif-Roman-79" transform="translate(370.458984 0)"/>
     <use xlink:href="#CMUSerif-Roman-65" transform="translate(423.144531 0)"/>
     <use xlink:href="#CMUSerif-Roman-73" transform="translate(467.529297 0)"/>
     <use xlink:href="#CMUSerif-Roman-2d" transform="translate(506.884766 0)"/>
     <use xlink:href="#CMUSerif-Roman-63" transform="translate(540.136719 0)"/>
     <use xlink:href="#CMUSerif-Roman-6f" transform="translate(584.521484 0)"/>
     <use xlink:href="#CMUSerif-Roman-6e" transform="translate(634.521484 0)"/>
     <use xlink:href="#CMUSerif-Roman-74" transform="translate(689.990234 0)"/>
     <use xlink:href="#CMUSerif-Roman-72" transform="translate(728.759766 0)"/>
     <use xlink:href="#CMUSerif-Roman-61" transform="translate(767.822266 0)"/>
     <use xlink:href="#CMUSerif-Roman-63" transform="translate(817.822266 0)"/>
     <use xlink:href="#CMUSerif-Roman-74" transform="translate(862.207031 0)"/>
     <use xlink:href="#CMUSerif-Roman-20" transform="translate(900.976562 0)"/>
     <use xlink:href="#CMUSerif-Roman-6f" transform="translate(934.228516 0)"/>
     <use xlink:href="#CMUSerif-Roman-6e" transform="translate(984.228516 0)"/>
     <use xlink:href="#CMUSerif-Roman-20" transform="translate(1039.697266 0)"/>
     <use xlink:href="#CMUSerif-Roman-22" transform="translate(1072.949219 0)"/>
     <use xlink:href="#CMUSerif-Roman-57" transform="translate(1122.949219 0)"/>
     <use xlink:href="#CMUSerif-Roman-69" transform="translate(1225.634766 0)"/>
     <use xlink:href="#CMUSerif-Roman-6c" transform="translate(1253.320312 0)"/>
     <use xlink:href="#CMUSerif-Roman-6c" transform="translate(1281.005859 0)"/>
     <use xlink:href="#CMUSerif-Roman-20" transform="translate(1308.691406 0)"/>
     <use xlink:href="#CMUSerif-Roman-54" transform="translate(1341.943359 0)"/>
     <use xlink:href="#CMUSerif-Roman-72" transform="translate(1414.111328 0)"/>
     <use xlink:href="#CMUSerif-Roman-75" transform="translate(1453.173828 0)"/>
     <use xlink:href="#CMUSerif-Roman-6d" transform="translate(1508.642578 0)"/>
     <use xlink:href="#CMUSerif-Roman-70" transform="translate(1591.894531 0)"/>
     <use xlink:href="#CMUSerif-Roman-20" transform="translate(1647.363281 0)"/>
     <use xlink:href="#CMUSerif-Roman-77" transform="translate(1680.615234 0)"/>
     <use xlink:href="#CMUSerif-Roman-69" transform="translate(1752.783203 0)"/>
     <use xlink:href="#CMUSerif-Roman-6e" transform="translate(1780.46875 0)"/>
     <use xlink:href="#CMUSerif-Roman-20" transform="translate(1835.9375 0)"/>
     <use xlink:href="#CMUSerif-Roman-74" transform="translate(1869.189453 0)"/>
     <use xlink:href="#CMUSerif-Roman-68" transform="translate(1907.958984 0)"/>
     <use xlink:href="#CMUSerif-Roman-65" transform="translate(1963.427734 0)"/>
     <use xlink:href="#CMUSerif-Roman-20" transform="translate(2007.8125 0)"/>
     <use xlink:href="#CMUSerif-Roman-32" transform="translate(2041.064453 0)"/>
     <use xlink:href="#CMUSerif-Roman-30" transform="translate(2091.064453 0)"/>
     <use xlink:href="#CMUSerif-Roman-32" transform="translate(2141.064453 0)"/>
     <use xlink:href="#CMUSerif-Roman-34" transform="translate(2191.064453 0)"/>
     <use xlink:href="#CMUSerif-Roman-20" transform="translate(2241.064453 0)"/>
     <use xlink:href="#CMUSerif-Roman-65" transform="translate(2274.316406 0)"/>
     <use xlink:href="#CMUSerif-Roman-6c" transform="translate(2318.701172 0)"/>
     <use xlink:href="#CMUSerif-Roman-65" transform="translate(2346.386719 0)"/>
     <use xlink:href="#CMUSerif-Roman-63" transform="translate(2390.771484 0)"/>
     <use xlink:href="#CMUSerif-Roman-74" transform="translate(2435.15625 0)"/>
     <use xlink:href="#CMUSerif-Roman-69" transform="translate(2473.925781 0)"/>
     <use xlink:href="#CMUSerif-Roman-6f" transform="translate(2501.611328 0)"/>
     <use xlink:href="#CMUSerif-Roman-6e" transform="translate(2551.611328 0)"/>
     <use xlink:href="#CMUSerif-Roman-3f" transform="translate(2607.080078 0)"/>
     <use xlink:href="#CMUSerif-Roman-22" transform="translate(2654.248047 0)"/>
    </g>
   </g>
  </g>
 </g>
 <defs>
  <clipPath id="pf65ae1042c">
   <rect x="57.8" y="29.58" width="507.4" height="265.5575"/>
  </clipPath>
 </defs>
</svg>
